<?xml version="1.0" encoding="utf-8" ?><svg xmlns="http://www.w3.org/2000/svg" xmlns:xlink="http://www.w3.org/1999/xlink" width="221" height="270" viewBox="0 0 221 270"><path fill="#EEB618" transform="scale(0.0595781 0.0595781)" d="M1817.98 423.156C1840.49 417.069 1942.76 425.552 1969.62 427.497C2514.22 466.928 3092.78 885.462 3205.57 1577.31C3256.1 1887.26 3194.19 2196.17 3050.59 2455.99C2914.15 2281.63 2753.49 2138.2 2576.06 2032.34C2599.86 1960.97 2612.92 1884.94 2614.62 1807.9C2618.61 1624.63 2555.75 1454.19 2453.48 1323.13C2309.45 1138.56 2094.38 1038.05 1887.72 1031.33C1875.68 1028.99 1839.21 1029.89 1825.34 1030.48C1724.55 1033.88 1624.94 1057.93 1530.67 1101.61C1218.64 1247.8 997.036 1616.53 1128.77 2032.67C952.299 2138.27 792.413 2280.96 656.421 2454.21C289.091 1790.7 540.064 1021.88 1083.28 659.021C1316.91 502.953 1552.5 431.573 1817.98 423.156Z"/><path fill="#08A8C8" transform="scale(0.0595781 0.0595781)" d="M1828.06 1488.19C1851.59 1485.26 1879.31 1487.71 1902.78 1490.87C2136.4 1522.35 2304.04 1809.01 2155.95 2069.48C2470.63 2149.64 2753.27 2359.17 2956.73 2663.1C2767.88 2567.51 2523.38 2499.48 2319.31 2465.59C2267.37 2606.62 2216.46 2761.23 2166.68 2904.38L1863.01 3777.39L1852.64 3806.5L1386.12 2465.68C1179.39 2499.03 941.728 2567.86 749.326 2662.62C890.221 2440.21 1128.54 2239.68 1342.85 2141.45C1414.55 2108.58 1475.11 2088.74 1549.61 2069.45C1407.45 1821.77 1555.74 1541.21 1780.1 1495.02C1796.61 1491.63 1811.36 1489.72 1828.06 1488.19Z"/><path fill="#7CCF03" transform="scale(0.0595781 0.0595781)" d="M2448.56 2692.98C2579.66 2725.78 2690.72 2758.59 2817.12 2814.15L2128.51 3847.44L1958.35 4102.7L2448.56 2692.98Z"/><path fill="#7CCF03" transform="scale(0.0595781 0.0595781)" d="M1251.45 2694.44C1255.34 2693.46 1253.3 2693.39 1257.55 2695.17L1747.47 4103.4C1693.91 4020.62 1637.19 3937.41 1582.5 3855.55C1563.57 3823.59 1530.69 3777.62 1509.3 3745.51L1358.94 3519.79L888.673 2813.86C1014.21 2759.52 1121.32 2726.99 1251.45 2694.44Z"/></svg>