<?xml version="1.0" encoding="utf-8" ?><svg xmlns="http://www.w3.org/2000/svg" xmlns:xlink="http://www.w3.org/1999/xlink" width="1196" height="1027" viewBox="0 0 1196 1027"><clipPath id="cl_5"><rect x="0.00068664551" y="-0.00038146973" width="1196.4188" height="1027.0144"/></clipPath><g clip-path="url(#cl_5)"><path fill="#5CC7F8" transform="matrix(1.51254 0 0 1.51254 -183.017 -231.419)" d="M511.645 164.125C514.613 164.59 517.519 165.759 519.106 168.387C522.504 174.018 525.756 180.117 528.997 185.849C535.196 196.885 541.559 207.828 548.082 218.675L631.537 359.342L820.842 681.062C844.578 721.724 869.264 761.846 892.552 802.763C897.324 811.147 901.516 817.202 891.932 823.47C880.512 824.146 861.962 823.54 849.902 823.532L767.288 823.489L510.766 823.49L251.047 823.491L164.103 823.466C155.089 823.467 146.046 823.75 137.031 823.782C128.987 823.811 127.356 822.424 124.661 814.958C128.348 804.077 140.869 784.423 147.019 773.812L198.803 686.176L329.805 463.957L453.742 254.015C464.476 236.034 475.108 217.994 485.64 199.894C491.542 189.676 497.57 178.888 503.811 168.853C505.685 165.841 508.279 164.741 511.645 164.125Z"/></g></svg>