<?xml version="1.0" encoding="utf-8" ?><svg xmlns="http://www.w3.org/2000/svg" xmlns:xlink="http://www.w3.org/1999/xlink" width="1281" height="1279" viewBox="0 0 1281 1279"><clipPath id="cl_3"><path d="M-0.000427246 614.832L595.068 0L1281.31 664.179L686.237 1279.01L-0.000427246 614.832Z"/></clipPath><g clip-path="url(#cl_3)"><path fill="#5CC7F8" fill-opacity="0.40000001" transform="matrix(0.897539 -0.927348 0.927348 0.897539 -287.736 656.039)" d="M509.533 152.056C514.116 151.745 516.834 152.282 520.824 154.619C533.945 162.306 546.937 170.206 560.087 177.846L664.61 238.56L768.223 298.825C776.513 303.632 820.276 327.554 824.032 332.414C824.728 335.128 825.105 337.915 825.156 340.716C825.835 365.004 825.2 393.001 825.224 417.549L825.182 587.716L825.297 657.709C825.323 666.224 825.387 674.755 825.382 683.27C825.377 690.205 825.677 692.816 819.426 696.668C804.079 706.124 788.339 714.875 772.754 723.927L681.01 777.15L574.216 839.097C556.685 849.242 536.02 861.888 518.388 871.139C515.986 871.922 512.26 872.991 509.834 872.174C499.701 868.762 485.956 859.718 476.585 854.201L438.17 831.678L267.575 732.681C247.677 721.027 227.528 709.778 207.687 698.008C199.776 693.315 198.1 691.916 198.027 682.297C197.931 669.511 198.01 656.709 198.01 643.922L198.016 568.194C198.016 546.29 196.988 338.428 198.674 334.566C199.932 331.686 202.227 329.727 204.818 328.082C214.972 321.636 225.7 315.854 236.109 309.81L290.924 277.927L421.641 202.201L478.804 169.327C485.323 165.544 503.329 154.57 509.533 152.056Z"/></g></svg>