<?xml version="1.0" encoding="utf-8" ?><svg xmlns="http://www.w3.org/2000/svg" xmlns:xlink="http://www.w3.org/1999/xlink" width="130" height="130" viewBox="0 0 130 130"><path fill="#ECA42D" transform="scale(0.127023 0.127023)" d="M719.072 253.182C724.808 252.523 737.684 252.957 743.607 253.035C744.78 253.654 746.004 254.339 747.026 255.304C757.328 265.029 762.974 270.314 764.166 285.357C764.489 289.421 762.664 296.912 762.452 301.308C761.856 305.032 762.643 310.892 761.609 314.421C758.151 326.219 746.284 337.837 738.578 346.557L722.662 364.241C720.076 367.143 716.781 371.537 714.161 374.129C704.239 383.948 694.46 393.867 684.749 403.893C680.411 408.263 676.76 414.393 672.46 418.666C657.81 433.222 643.186 447.769 629.523 463.272C626.925 466.22 623.434 469.07 620.639 471.99L588.771 505.766C585.43 509.364 582.149 513.666 578.789 517.083L518.877 579.154C508.928 589.366 498.483 598.474 488.781 609.198C480.51 617.598 468.465 628.001 457.785 633.289C445.612 639.317 427.655 635.134 416.414 629.183C411.713 626.695 408.404 620.875 404.657 618.338C393.413 610.725 385.873 602.182 376.73 592.625L350.701 565.515C348.398 563.097 345.296 561.034 343.222 558.765C340.225 555.691 337.701 551.51 334.724 548.491C327.179 540.839 320.419 532.379 312.682 524.967C305.13 517.836 300.329 511.292 293.637 503.468C287.014 495.726 272.312 481.091 271.123 470.554C270.312 463.369 267.405 460.496 266.677 454.1C266.573 453.188 268.454 443.636 268.791 441.795C272.41 438.155 271.509 436.837 274.082 433.308C281.742 422.804 291.195 414.62 304.206 412.169C314.099 410.305 321.78 411.314 330.595 416.231C340.911 421.985 345.985 430.2 353.175 438.563C357.374 442.361 361.284 447.363 365.485 451.051C385.243 468.396 401.723 489.267 420.923 507.313C425.497 511.612 431.529 518.832 436.508 522.125C437.197 522.09 441.317 522.24 441.497 522.13C443.265 520.957 445.211 518.916 446.604 517.291C454.219 508.404 462.053 500.016 470.603 492.026C471.722 490.98 471.774 488.67 472.58 487.788C475.872 484.182 479.696 480.947 483.168 477.492C486.319 474.331 490.177 471.542 493.188 468.319L579.91 377.286C586.507 370.318 593.25 363.552 599.953 356.641C602.846 353.658 605.867 347.467 609.999 346.264C612.087 345.656 611.911 346.194 613.7 344.669C619.285 339.906 623.221 333.319 628.303 328.206L662.174 293.805C668.772 287.029 673.375 281.367 680.853 275.334C686.437 270.828 691.117 263.289 698.051 259.587C699.789 258.659 703.234 255.525 704.865 254.126C710.128 253.998 713.821 253.932 719.072 253.182Z"/><path fill="#F1B550" transform="scale(0.127023 0.127023)" d="M664.772 359.365L665.708 359.4C667.214 361.531 672.187 360.852 671.837 365.489L670.982 365.727C669.841 364.616 669.692 364.227 668.866 362.886C667.342 363.072 667.082 364.599 665.303 366.137C665.087 366.368 663.044 369.868 662.882 370.246L664.017 371.761L663.537 372.585C661.825 373.443 661.825 373.348 659.991 373.348C658.705 371.922 659.49 371.373 659.111 369.765C659.019 369.379 658.147 369.989 656.927 367.989C657.414 364.441 660.824 364.122 662.455 361.791C663.392 360.453 663.502 360.484 664.772 359.365Z"/><path fill="#F1B550" transform="scale(0.127023 0.127023)" d="M459.241 577.75C460.953 578.166 461.173 577.928 462.3 578.973C462.91 582.533 460.593 585.987 458.72 589.107L457.781 589.307C455.94 588.384 455.285 588.129 454.605 586.413C455.55 585.448 456.46 585.54 457.873 585.353L458.498 585.275C458.309 581.799 458.257 581.024 459.241 577.75Z"/><path fill="#F1B550" transform="scale(0.127023 0.127023)" d="M428.144 569.621C429.995 569.842 431.266 569.707 433.216 570.072C434.44 571.311 434.039 570.58 434.328 572.41C434.198 572.452 434.068 572.494 433.938 572.535L433.283 572.731C431.662 573.226 431.152 573.612 429.552 573.044C428.43 571.916 428.456 571.19 428.144 569.621Z"/><path fill="#F1B550" transform="scale(0.127023 0.127023)" d="M322.938 501.227L323.798 501.216C324.78 504.678 324.625 507.788 322.011 510.29C319.848 507.149 323.072 506.054 322.938 501.227Z"/><path fill="#F1B550" transform="scale(0.127023 0.127023)" d="M355.122 492.363C356.411 493.154 357.511 495.031 360.011 495.193C360.822 495.246 360.791 495.353 361.507 495.801L361.845 497.561L360.255 497.715C357.57 496.564 355.399 495.498 355.122 492.363Z"/><path fill="#F1B550" transform="scale(0.127023 0.127023)" d="M635.712 342.613L637.045 343.271C637.81 344.965 638.272 345.981 637.744 347.785L636.481 348.339C635.762 345.744 634.959 346.669 634.326 344.599L635.712 342.613Z"/><path fill="#F1B550" transform="scale(0.127023 0.127023)" d="M454.323 562.065C456.064 562.754 455.423 562.194 456.36 563.751C456.063 565.402 454.721 566.354 453.46 567.604C453.192 567.826 453.426 567.687 452.41 567.949L452.121 567.31C453.479 565.174 453.793 564.535 454.323 562.065Z"/><path fill="#F1B550" transform="scale(0.127023 0.127023)" d="M416.256 565.682L417.617 566.085C418.992 569.289 420.685 569.308 421.746 571.789C418.186 573.126 417.24 568.35 416.256 565.682Z"/><path fill="#F1B550" transform="scale(0.127023 0.127023)" d="M561.598 496.031C563.108 495.994 562.921 495.405 564.884 495.885L564.508 496.789C563.46 497.466 563.261 497.745 562.573 498.787L562.316 499.122C561.071 498.346 561.159 498.345 560.306 497.124L560.51 496.298L561.598 496.031Z"/><path fill="#F1B550" transform="scale(0.127023 0.127023)" d="M675.801 338.976C675.762 337.432 675.708 337.529 676.506 336.218C678.979 335.08 680.977 335.502 682.064 338.082C678.55 337.265 678.43 336.438 675.801 338.976Z"/><path fill="#F1B550" transform="scale(0.127023 0.127023)" d="M658.525 374.992C659.85 374.944 660.463 374.762 661.604 375.378C661.231 376.817 660.17 377.312 658.824 378.526C658.003 379.394 658.475 379.235 657.509 379.344L657.36 378.58C658.133 377.085 658.357 376.73 658.525 374.992Z"/><path fill="#F1B550" transform="scale(0.127023 0.127023)" d="M458.711 553.75C462.038 555.988 460.513 555.266 464.426 557.032L463.753 557.741C462.121 557.748 460.836 557.875 459.277 557.395C458.264 555.951 458.647 555.978 458.711 553.75Z"/><path fill="#F1B550" transform="scale(0.127023 0.127023)" d="M669.64 355.79C671.856 355.58 671.793 355.205 673.326 356.107C673.709 357.782 673.716 358.924 673.805 360.618C673.096 360.686 673.183 360.577 672.409 360.256C671.573 357.728 671.614 357.38 669.64 355.79Z"/><path fill="#F1B550" transform="scale(0.127023 0.127023)" d="M497.534 524.264C499.05 524.412 499.736 524.641 501.171 525.046C500.902 525.676 499.652 526.072 498.835 526.477L498.826 527.661L499.479 528.18C497.674 528.082 498.475 528.356 496.989 527.324C496.438 525.425 496.437 526.419 497.534 524.264Z"/><path fill="#F1B550" transform="scale(0.127023 0.127023)" d="M345.963 502.965C348.601 503.406 350.557 503.794 351.806 506.177C349.101 506.682 347.042 505.367 345.963 502.965Z"/><path fill="#F1B550" transform="scale(0.127023 0.127023)" d="M717.813 291.947L719.588 292.419C721.2 293.676 721.773 295.447 722.677 297.35C720.1 296.535 718.966 294.308 717.813 291.947Z"/><path fill="#F1B550" transform="scale(0.127023 0.127023)" d="M437.42 579.436C438.657 579.989 438.895 579.907 439.565 581.019C438.821 581.848 438.188 582.491 437.393 583.273L436.734 583.944L436.338 583.476C436.238 581.609 436.633 581.115 437.42 579.436Z"/><path fill="#F1B550" transform="scale(0.127023 0.127023)" d="M591.401 425.164C592.448 425.449 592.756 425.632 593.755 426.075C594.757 427.841 594.377 427.764 594.302 430.171C593.775 430.045 594.039 430.138 593.413 429.803C592.335 429.225 591.768 426.344 591.401 425.164Z"/><path fill="#F1B550" transform="scale(0.127023 0.127023)" d="M448.202 554.167C450.02 553.948 450.763 554.07 452.436 554.711C453.354 556.251 453.102 555.361 452.57 557.631C451.148 556.365 449.078 555.247 448.202 554.167Z"/><path fill="#F1B550" transform="scale(0.127023 0.127023)" d="M429.053 610.477L429.74 610.523L429.811 611.362C428.683 612.967 429.107 612.878 427.575 613.505C426.575 612.541 426.461 612.561 425.887 611.328C427.415 611.23 427.694 611.18 429.053 610.477Z"/><path fill="#F1B550" transform="scale(0.127023 0.127023)" d="M567.092 463.381C567.472 463.57 567.664 463.891 567.982 464.251C567.406 465.648 566.953 465.578 565.467 466.614C564.389 466.127 564.721 466.382 564.007 465.46C564.839 464.029 565.25 464.238 567.092 463.381Z"/><path fill="#F1B550" transform="scale(0.127023 0.127023)" d="M687.662 336.088C686.132 334.165 685.215 333.768 686.164 331.474C687.918 333.101 688.422 332.954 688.597 334.719L687.662 336.088Z"/><path fill="#F1B550" transform="scale(0.127023 0.127023)" d="M441.731 565.86C442.043 566.705 441.933 566.503 441.927 567.464C441.225 568.841 441.092 569.37 439.825 570.282L439.128 568.887C439.591 567.099 439.939 567.337 441.731 565.86Z"/><path fill="#F1B550" transform="scale(0.127023 0.127023)" d="M540.548 511.188L541.182 510.844C542.455 512.343 542.806 512.219 542.942 513.812L542.455 514.157L541.687 513.887C540.451 512.064 540.57 512.931 540.548 511.188Z"/><path fill="#F1B550" transform="scale(0.127023 0.127023)" d="M478.455 518.934L479.266 519.835C478.759 521.208 478.184 521.045 476.382 521.925L475.75 521.625C476.078 520.18 476.866 520.094 478.455 518.934Z"/></svg>