<?xml version="1.0" encoding="utf-8" ?><svg xmlns="http://www.w3.org/2000/svg" xmlns:xlink="http://www.w3.org/1999/xlink" width="2457" height="1746" viewBox="0 0 2457 1746"><clipPath id="cl_4"><rect x="0.00024414062" width="2457.3833" height="1745.5468"/></clipPath><g clip-path="url(#cl_4)"><path fill="#6AA24D" transform="matrix(-3.09494 0 0 -3.09494 2785.45 2423.34)" d="M494.484 314.244L498.296 314.115C596.335 310.949 720.858 336.266 794.346 405.26C823.223 432.778 844.188 470.117 844.385 510.754C844.463 549.265 825.746 587.056 798.674 614.014C729.916 682.485 624.183 709.33 530.344 711.681C529.071 711.855 527.887 711.916 526.592 711.945C425.344 714.164 307.858 688.945 231.41 618.767C201.994 591.764 181.41 553.951 180.344 513.888C179.3 474.619 198.138 438.014 224.965 410.349C290.931 342.322 403.246 316.629 494.484 314.244Z"/></g></svg>