<?xml version="1.0" encoding="utf-8" ?><svg xmlns="http://www.w3.org/2000/svg" xmlns:xlink="http://www.w3.org/1999/xlink" width="1660" height="1697" viewBox="0 0 1660 1697"><clipPath id="cl_9"><path d="M9.15527e-05 384.086L1259.35 7.62939e-05L1659.77 1312.9L400.419 1696.99L9.15527e-05 384.086Z"/></clipPath><g clip-path="url(#cl_9)"><path fill="#6AA24D" transform="matrix(1.7275 -0.526867 0.526867 1.7275 -337.456 243.43)" d="M387.858 182.713C421.351 178.583 520.865 210.719 558.012 221.942C588.194 230.738 618.291 239.82 648.301 249.187L716.471 270.108C745.194 279.17 780.215 288.671 802.727 309.712C819.293 325.197 828.255 350.023 828.033 372.44C827.847 391.253 823.484 410.37 819.025 428.622C813.108 453.62 805.47 477.733 798.305 502.335L764.917 617.57C754.964 651.955 744.72 686.256 734.188 720.468C723.707 754.047 714.904 789.778 689.328 815.642C675.049 829.799 655.732 837.705 635.625 837.623C605.341 837.925 570.367 826.421 541.258 817.946L441.5 787.962C434.24 785.823 426.84 784.051 419.563 781.918C381.861 770.897 344.32 759.331 306.953 747.224C279.23 738.225 249.424 731.279 225.892 713.526C170.669 671.863 198.556 597.405 213.545 542.704C225.084 500.662 237.072 458.744 249.507 416.959C261.342 376.941 272.386 337.124 285.063 297.334C302.242 243.41 322.522 188.008 387.858 182.713Z"/></g></svg>