<?xml version="1.0" encoding="utf-8" ?><svg xmlns="http://www.w3.org/2000/svg" xmlns:xlink="http://www.w3.org/1999/xlink" width="1804" height="1373" viewBox="0 0 1804 1373"><clipPath id="cl_3"><rect x="-0.00051879883" y="-6.1035156e-05" width="1804.4258" height="1372.9326"/></clipPath><g clip-path="url(#cl_3)"><path fill="#AEC980" transform="matrix(2.61511 0 0 2.61511 -421.033 -724.385)" d="M498.99 315.272C499.779 315.241 500.569 315.217 501.358 315.2C524.211 314.837 547.065 315.892 569.787 318.359C648.999 326.303 734.566 349.735 793.231 406.492C821.037 433.393 842.458 472.538 841.991 511.653C841.505 552.393 822.602 586.579 794.689 614.696C729.649 680.211 616.026 710.259 526.125 710.516C432.937 714.153 309.251 686.642 238.002 622.853C206.683 594.813 184.281 559.796 182.12 516.729C180.227 479.019 195.541 444.049 220.824 416.383C271.573 360.853 350.294 334.087 422.687 322.277C448.3 318.098 473.296 316.605 498.99 315.272Z"/></g></svg>