<?xml version="1.0" encoding="utf-8" ?><svg xmlns="http://www.w3.org/2000/svg" xmlns:xlink="http://www.w3.org/1999/xlink" width="915" height="826" viewBox="0 0 915 826"><clipPath id="cl_c"><path d="M123.832 0L914.705 143.586L790.873 825.651L0.000198364 682.065L123.832 0Z"/></clipPath><g clip-path="url(#cl_c)"><path fill="#A6C634" fill-opacity="0.42745098" transform="matrix(1.00748 0.182912 -0.182912 1.00748 29.4531 -179.482)" d="M509.025 164.512C511.781 164.288 514.834 164.277 516.789 166.446C523.851 174.286 530.229 188.887 535.763 198.212C550.664 222.968 565.401 247.821 579.974 272.771L768.438 592.284L835.543 706.302C855.117 739.144 874.892 771.904 893.676 805.206C895.951 809.24 899.815 816.207 895.745 820.487C894.248 822.06 892.172 823.369 889.927 823.422C876.94 823.725 863.899 823.516 850.897 823.514L770.786 823.523L513.25 823.53L247.6 823.47L167.564 823.496C158.884 823.512 138.325 824.293 131.017 823.412C122.112 817.714 125.402 811.872 129.541 804.266C134.363 795.408 139.598 786.802 144.648 778.079C163.495 745.745 182.515 713.511 201.706 681.379L407.786 331.986L473.102 221.286L492.039 188.99C496.137 181.934 502.438 168.514 509.025 164.512Z"/></g></svg>