<?xml version="1.0" encoding="utf-8" ?><svg xmlns="http://www.w3.org/2000/svg" xmlns:xlink="http://www.w3.org/1999/xlink" width="1024" height="1024" viewBox="0 0 1024 1024"><path fill="#F8E38C" d="M355.606 625.783C348.195 620.007 338.017 608.964 332.015 601.66C304.631 568.804 287.409 528.684 282.453 486.2C275.343 428.359 293.413 370.573 329.514 325.255C408.712 225.835 560.674 212.02 659.397 289.822C705.667 325.981 735.627 379.082 742.655 437.383C749.189 494.846 732.539 552.542 696.394 597.688C688.037 608.244 680.166 616.102 670.892 625.803C668.894 626.197 645.303 625.985 641.531 625.985L563.432 625.981L423.667 625.98L379.187 625.98C372.613 625.979 361.929 626.294 355.606 625.783Z"/><path fill="#EFC338" d="M355.606 625.783C361.929 626.294 372.613 625.979 379.187 625.98L423.667 625.98L563.432 625.981L641.531 625.985C645.303 625.985 668.894 626.197 670.892 625.803C685.037 626.069 699.325 625.632 713.5 625.815C732.84 625.98 752.362 625.863 771.683 625.886C778.697 625.894 779.404 631.181 778.84 636.697C777.759 647.275 774.703 658.721 771.461 668.736C756.793 713.406 729.984 753.114 694.035 783.416C637.573 831.137 564.427 854.4 490.772 848.06C380.153 838.853 278.41 764.424 249.035 655.397C246.979 647.766 244.311 639.393 244.633 631.433C244.73 629.041 247.414 627.331 249.149 626.024C257.422 625.347 269.579 626.045 278.34 625.871C303.551 625.369 330.604 626.769 355.606 625.783Z"/></svg>