<?xml version="1.0" encoding="utf-8" ?><svg xmlns="http://www.w3.org/2000/svg" xmlns:xlink="http://www.w3.org/1999/xlink" width="137" height="137" viewBox="0 0 137 137"><path fill="#FF7F6D" transform="scale(0.133395 0.133395)" d="M0 0L1024 0L1024 1024L0 1024L0 0Z"/><path fill="#FDF0D5" transform="scale(0.133395 0.133395)" d="M694.209 239.09C723.628 235.189 754.636 265.23 757.222 293.67C760.23 326.761 757.747 361.016 758.082 394.262L758.442 541.339L758.254 644.626C758.177 663.395 758.662 680.638 757.07 699.535C753.554 741.267 721.363 775.027 679.957 781.153C658.923 784.265 636.843 780.977 615.686 782.098C612.025 782.292 608.172 781.784 604.501 781.88C587.636 783.035 570.768 782.286 553.889 782.029C535.049 782.383 516.24 781.723 497.469 781.81L406.217 781.867C366.16 781.799 320.267 785.556 289.843 753.482C280.984 744.085 274.183 732.943 269.875 720.768C265.869 709.629 264.005 700.035 264.199 688.275C264.44 673.632 264.547 658.898 264.423 644.25L264.333 501.694L264.381 389.507C264.131 357.451 263.738 325.551 265.009 293.413C265.937 269.954 286.632 252.508 307.183 244.872C329.874 236.442 340.602 251.665 359.432 261.129C378.709 270.817 398.639 267.586 415.65 254.865C422.461 249.901 424.725 244.949 433.532 241.901C458.826 233.147 469.64 251.692 489.245 261C511.506 271.569 530.532 264.07 549.855 251.703C554.136 248.963 563.013 243.293 567.702 241.766C586.612 235.607 603.272 253.696 619.341 261.622C638.838 271.24 657.984 266.296 674.483 253.232C681.916 247.348 684.845 242.279 694.209 239.09Z"/><path fill="#FF7F6D" transform="scale(0.133395 0.133395)" d="M385.358 365.688C395.928 365.035 405.197 365.787 415.481 365.773L503.502 366.345L551.214 366.616C566.861 366.771 582.365 366.919 598.022 366.759C619.773 366.538 654.163 360.56 663.34 387.175C666.16 395.113 665.621 403.859 661.846 411.39C657.294 420.384 651.042 423.808 641.92 426.762C635.797 427.876 628.94 427.549 622.682 427.59L586.826 427.516L470 427.425C441.44 427.377 412.535 427.946 384 428.433C373.996 428.604 361.121 418.133 360.519 407.691C360.001 398.704 357.553 385.672 364.003 377.782C369.402 371.179 376.869 366.676 385.358 365.688Z"/><path fill="#FF7F6D" transform="scale(0.133395 0.133395)" d="M379.486 476.622C386.192 476.127 398.4 476.461 405.401 476.541L445.691 476.819L494.11 476.704C507.003 476.703 529.279 475.376 540.632 481.743C551.175 487.656 554.051 500.194 553.5 511.501C552.781 526.267 545.585 537.177 530.569 540.699C519.842 542.357 491.929 541.14 479.625 541.293C457.381 541.772 435.134 542.061 412.885 542.161C402.579 542.245 391.748 542.596 381.585 542.114C370.224 540.997 360.601 531.386 358.345 520.596C354.187 500.712 356.903 482.068 379.486 476.622Z"/><path fill="#FF7F6D" transform="scale(0.133395 0.133395)" d="M358.081 613.016C360.462 601.083 369.143 590.757 381.782 590.541C427.263 589.76 472.75 587.91 518.261 588.496C522.411 588.55 526.581 588.227 530.675 588.87C553.247 594.218 558.88 619.435 550.119 638.469L550.385 639.773L551.17 640.282C553.492 639.758 552.479 639.596 554.384 640.26L554.378 640.501C552.629 641.967 548.705 642.797 548.64 642.86C544.59 646.78 543.561 650.207 536.908 651.185C526.591 654.582 504.715 653.426 493.047 653.584C475.949 653.95 458.849 654.217 441.748 654.385L406.186 654.314C392.475 654.305 374.925 656.667 365.392 645.166C362.342 641.486 359.936 638.304 358.221 633.819L359.912 633.213C360.774 631.17 357.929 625.32 359.064 618.575C357.732 618.899 358.299 619.027 357.242 618.594C356.765 616.778 357.557 614.887 358.081 613.016Z"/><path fill="#FEE7C6" transform="scale(0.133395 0.133395)" d="M536.908 651.185C543.82 647.52 546.044 644.995 550.119 638.469L550.385 639.773L551.17 640.282C553.492 639.758 552.479 639.596 554.384 640.26L554.378 640.501C552.629 641.967 548.705 642.797 548.64 642.86C544.59 646.78 543.561 650.207 536.908 651.185Z"/><path fill="#FF7F6D" transform="scale(0.133395 0.133395)" d="M630.252 477.417C647.87 476.252 663.081 489.622 664.185 507.243C665.289 524.864 651.866 540.029 634.241 541.072C616.703 542.11 601.629 528.767 600.53 511.232C599.431 493.697 612.722 478.577 630.252 477.417Z"/><path fill="#FF7F6D" transform="scale(0.133395 0.133395)" d="M627.662 589.678C645.115 587.291 661.193 599.52 663.552 616.977C665.91 634.434 653.655 650.491 636.195 652.822C618.774 655.147 602.761 642.926 600.408 625.509C598.054 608.092 610.25 592.06 627.662 589.678Z"/><path fill="#FEE7C6" transform="scale(0.133395 0.133395)" d="M499.025 341.156C499.84 341.604 499.836 341.691 500.54 342.323C500.126 344.886 500.428 345.175 502.108 346.891L501.327 346.947L500.936 346.528L500.517 346.855C499.562 346.34 499.214 346.288 498.158 346.011L496.971 345.998C495.647 345.029 495.699 345.132 494.956 343.68C496.22 343.675 497.169 343.793 498.318 343.288L499.025 341.156Z"/><path fill="#FEE7C6" transform="scale(0.133395 0.133395)" d="M530.911 565.282C531.936 566.257 532.196 566.731 533.553 567.022C534.193 567.576 534.051 567.544 534.484 568.34L534.01 568.781L532.458 568.453C530.874 569.215 532.087 571.459 530.228 574.061L529.228 574.139C528.631 571.067 531.428 569.792 530.911 565.282Z"/><path fill="#FEE7C6" transform="scale(0.133395 0.133395)" d="M298.515 255.202C301.162 256.258 301.824 258.202 305.195 258.286L304.699 258.811C302.635 259.886 301.891 260.357 299.747 258.995C298.588 257.248 298.667 257.328 298.515 255.202Z"/><path fill="#FEE7C6" transform="scale(0.133395 0.133395)" d="M290.847 449.465L292.97 449.527C295.036 450.659 298.281 452.897 299.144 455.07C296.934 453.634 293.653 452.179 291.201 450.884L290.847 449.465Z"/><path fill="#FEE7C6" transform="scale(0.133395 0.133395)" d="M572.754 672.596L573.772 672.719C574.274 674.516 574.661 676.063 573.361 677.609C572.379 676.692 572.575 676.363 572.161 674.823L571.878 674.69C570.975 674.833 570.282 674.91 569.377 675.005L569.391 674.365C570.688 673.75 571.508 673.312 572.754 672.596Z"/><path fill="#FEE7C6" transform="scale(0.133395 0.133395)" d="M537.368 692.622L538.432 693.34C539.066 694.935 538.996 694.11 538.422 695.909C536.639 697.798 536.37 697.824 533.947 698.95L533.209 698.876C533.455 696.101 536.264 698.307 537.368 692.622Z"/><path fill="#FEE7C6" transform="scale(0.133395 0.133395)" d="M530.911 565.282C531.164 563.583 531.786 563.211 532.922 561.695L533.731 561.405C534.23 562.956 533.924 565.086 533.422 566.607L533.553 567.022C532.196 566.731 531.936 566.257 530.911 565.282Z"/><path fill="#FEE7C6" transform="scale(0.133395 0.133395)" d="M529.783 438.335C531.407 439.066 534.943 441.255 535.757 442.907C531.459 442.182 530.754 442.678 529.783 438.335Z"/><path fill="#FEE7C6" transform="scale(0.133395 0.133395)" d="M586.492 337.269C587.477 337.758 587.103 337.374 587.534 338.492C586.953 339.297 586.549 339.911 586.027 340.756L586.505 341.488L588.055 341.759L587.295 342.411C586.642 342.968 587.037 342.786 586.069 342.861C584.215 339.748 584.549 339.835 586.492 337.269Z"/><path fill="#FEE7C6" transform="scale(0.133395 0.133395)" d="M546.879 557.771C549.191 558.252 549.979 558.424 552.144 559.328L552.159 559.886L550.767 559.516L549.487 559.457C548.776 560.054 548.146 560.522 547.398 561.073C546.742 559.975 546.888 559.07 546.879 557.771Z"/><path fill="#FEE7C6" transform="scale(0.133395 0.133395)" d="M535.964 727.327C538.277 727.223 538.941 726.53 540.292 727.529L540.415 729.092C538.417 729.285 537.314 729.764 536.021 728.722L535.964 727.327Z"/><path fill="#FEE7C6" transform="scale(0.133395 0.133395)" d="M539.346 696.908C542.457 697.034 543.628 697.573 544.353 700.594C542.671 699.798 541.239 699.306 539.566 698.454L539.346 696.908Z"/><path fill="#FEE7C6" transform="scale(0.133395 0.133395)" d="M556.529 674.299L557.424 674.916C558.497 677.914 558.281 678.703 557.845 681.821L556.982 681.245C556.623 680.167 556.222 675.298 556.529 674.299Z"/><path fill="#FEE7C6" transform="scale(0.133395 0.133395)" d="M467.432 355.668C469.983 355.362 470.373 355.323 472.81 355.932L472.951 356.991L472.13 357.305C469.761 356.895 469.367 356.955 467.432 355.668Z"/><path fill="#FEE7C6" transform="scale(0.133395 0.133395)" d="M685.677 555.184C686.774 555.778 686.426 555.48 687.122 556.525C686.721 558.191 686.837 557.673 685.25 559.028L684.292 558.431C684.139 556.924 684.637 556.821 685.677 555.184Z"/><path fill="#FEE7C6" transform="scale(0.133395 0.133395)" d="M558.59 691.328C559.558 691.423 560.168 691.593 561.117 691.803L560.988 692.366L558.322 693.509C557.377 693.987 557.92 693.83 556.66 693.85C557.079 692.408 557.352 692.531 558.59 691.328Z"/><path fill="#FEE7C6" transform="scale(0.133395 0.133395)" d="M335.27 543.444C337.127 544.153 337.515 544.744 338.56 546.228L338.28 547.215C336.723 546.754 335.503 545.006 335.27 543.444Z"/><path fill="#FEE7C6" transform="scale(0.133395 0.133395)" d="M442.647 316.611L443.497 317.022C443.905 318.607 443.213 319.456 442.558 321.343L441.699 321.16C441.311 319.278 441.902 318.77 442.647 316.611Z"/><path fill="#FEE7C6" transform="scale(0.133395 0.133395)" d="M513.953 709.181L515.113 709.9C515.835 711.364 515.471 712.107 515.122 713.727L513.882 712.752C513.232 711.395 513.599 710.672 513.953 709.181Z"/><path fill="#FEE7C6" transform="scale(0.133395 0.133395)" d="M547.106 586.764C547.573 586.937 547.813 587.211 548.234 587.545C547.756 588.981 547.258 588.967 545.837 590.103L545.381 590.236L544.715 589.856C545.111 588.54 546.112 587.772 547.106 586.764Z"/><path fill="#FEE7C6" transform="scale(0.133395 0.133395)" d="M297.285 681.513C300.074 681.286 300.764 681.867 302.904 683.495C299.943 683.563 299.313 683.725 297.285 681.513Z"/><path fill="#FEE7C6" transform="scale(0.133395 0.133395)" d="M381.19 707.056C383.288 707.303 385.136 707.397 385.973 709.421C383.763 709.079 383.549 709.067 381.548 708.148L381.19 707.056Z"/><path fill="#FEE7C6" transform="scale(0.133395 0.133395)" d="M580.649 312.813L581.372 313.57C581.527 315.235 580.847 316.303 580.167 317.865L579.576 317.425C579.211 315.713 579.97 314.498 580.649 312.813Z"/><path fill="#FEE7C6" transform="scale(0.133395 0.133395)" d="M627.113 302.617L627.921 302.261C629.624 303.368 629.552 303.295 630.697 304.971C628.986 304.838 628.58 304.467 627.255 303.572L627.113 302.617Z"/><path fill="#FEE7C6" transform="scale(0.133395 0.133395)" d="M511.7 671.815L512.724 672.285C512.51 673.833 512.024 673.726 510.447 675.082L509.423 674.535C509.599 673.31 510.52 672.905 511.7 671.815Z"/><path fill="#FEE7C6" transform="scale(0.133395 0.133395)" d="M288.237 693.264C290.1 694.537 289.935 695.551 290.085 697.643C287.55 695.989 287.743 696.008 288.237 693.264Z"/><path fill="#FEE7C6" transform="scale(0.133395 0.133395)" d="M573.076 666.255L573.471 666.138L574.008 666.496L574.302 669.416L573.716 669.886L572.91 669.778C572.81 668.468 572.585 667.449 573.076 666.255Z"/><path fill="#FEE7C6" transform="scale(0.133395 0.133395)" d="M321.76 538.198L322.742 538.75L322.839 539.641L321.008 541.771L320.156 541.335C320.044 539.732 320.431 539.888 321.76 538.198Z"/><path fill="#FEE7C6" transform="scale(0.133395 0.133395)" d="M621.343 466.393L621.914 467.064C621.941 468.831 621.73 468.514 620.545 470.317L619.712 469.582C619.62 468.025 620.106 468.028 621.343 466.393Z"/><path fill="#FEE7C6" transform="scale(0.133395 0.133395)" d="M574.794 344.146C575.36 344.41 575.539 344.632 576.036 345.037C575.807 346.396 575.325 346.417 574.083 347.618L573.351 347.155L573.196 346.211L574.794 344.146Z"/><path fill="#FEE7C6" transform="scale(0.133395 0.133395)" d="M368.098 711.03L369.37 711.51L369.595 712.127L367.518 713.787L366.317 713.253L366.257 712.539L368.098 711.03Z"/><path fill="#FEE7C6" transform="scale(0.133395 0.133395)" d="M711.247 337.35C713.357 338.277 713.973 339.673 714.715 341.695C712.675 341.232 711.941 339.079 711.247 337.35Z"/><path fill="#FEE7C6" transform="scale(0.133395 0.133395)" d="M354.142 340.842L354.63 341.371C354.506 342.786 354.002 342.852 352.815 344.186L351.977 343.551C352.146 342.046 352.591 342.181 354.142 340.842Z"/><path fill="#FEE7C6" transform="scale(0.133395 0.133395)" d="M483.459 345.088C484.779 344.924 485.658 344.652 486.842 345.204L487.184 346.396C484.661 347.363 484.766 347.098 483.459 345.088Z"/><path fill="#FEE7C6" transform="scale(0.133395 0.133395)" d="M370.227 545.377C372.461 545.839 372.786 545.844 372.842 547.96C371.514 547.626 370.542 547.579 369.716 546.545L370.227 545.377Z"/><path fill="#FEE7C6" transform="scale(0.133395 0.133395)" d="M554.538 687.358C556.585 687.763 557.615 688.313 558.773 690.003C556.162 690.233 555.918 689.191 554.538 687.358Z"/><path fill="#FEE7C6" transform="scale(0.133395 0.133395)" d="M338.629 763.581C340.738 763.994 341.447 764.179 342.539 765.988C340.286 765.81 339.647 765.696 338.629 763.581Z"/><path fill="#FEE7C6" transform="scale(0.133395 0.133395)" d="M584.495 659.777C585.475 660.487 585.176 660.014 585.403 661.19L583.959 663.234C583.079 662.507 583.367 662.972 583.126 661.819L584.495 659.777Z"/><path fill="#FEE7C6" transform="scale(0.133395 0.133395)" d="M565.686 602.291L566.346 602.923C566.652 604.85 566.532 604.294 565.7 606.376L564.94 605.64C564.549 604.046 564.871 604.203 565.686 602.291Z"/><path fill="#FEE7C6" transform="scale(0.133395 0.133395)" d="M296.324 442.66L297.193 442.618C298.016 444.299 297.751 443.38 297.486 445.608C296.51 444.457 296.255 444.234 295.526 442.88L296.324 442.66Z"/><path fill="#FEE7C6" transform="scale(0.133395 0.133395)" d="M457.678 679.368L458.195 679.896C458.625 681.559 458.366 681.239 457.51 683.244L456.754 682.571C456.485 680.947 456.741 681.208 457.678 679.368Z"/><path fill="#FEE7C6" transform="scale(0.133395 0.133395)" d="M629.348 358.886C631.184 358.913 630.637 358.668 632.135 359.392L632.206 360.717C630.912 360.878 630.801 361.039 629.661 360.509L629.348 358.886Z"/><path fill="#FEE7C6" transform="scale(0.133395 0.133395)" d="M636.17 471.328C636.909 472.125 636.644 471.632 636.834 472.868L635.432 474.732C634.567 473.911 634.89 474.395 634.667 473.136L636.17 471.328Z"/><path fill="#FEE7C6" transform="scale(0.133395 0.133395)" d="M528.283 563.365L529.07 564.537C528.408 565.993 528.888 565.323 526.768 566.135C526.279 565.41 526.441 565.843 526.427 564.792L528.283 563.365Z"/><path fill="#FEE7C6" transform="scale(0.133395 0.133395)" d="M573.378 351.042C574.626 350.947 575.436 350.75 576.567 351.265L576.273 352.471L575.492 352.702L573.378 351.042Z"/><path fill="#FEE7C6" transform="scale(0.133395 0.133395)" d="M422.729 333.437C424.589 333.995 425.176 334.333 426.196 335.897C423.775 335.993 423.78 335.246 422.729 333.437Z"/><path fill="#FEE7C6" transform="scale(0.133395 0.133395)" d="M693.319 481.203C694.659 481.598 694.213 481.189 694.896 482.188L693.765 484.04C692.801 483.696 693.253 483.99 692.509 483.022L693.319 481.203Z"/><path fill="#FEE7C6" transform="scale(0.133395 0.133395)" d="M564.53 660.559C565.81 660.498 565.822 660.436 567.032 660.789L566.696 661.738C565.84 661.988 566.037 661.905 565.107 661.875L564.53 660.559Z"/><path fill="#FEE7C6" transform="scale(0.133395 0.133395)" d="M661.067 476.783C662.292 477.499 661.915 476.983 662.458 478.147L661.227 479.49C660 478.808 660.421 479.304 659.732 478.187L661.067 476.783Z"/><path fill="#FEE7C6" transform="scale(0.133395 0.133395)" d="M672.186 548.351C673.905 549.679 674.06 550.058 674.01 552.044C672.352 550.746 672.368 550.247 672.186 548.351Z"/><path fill="#FEE7C6" transform="scale(0.133395 0.133395)" d="M437.116 327.847C437.791 328.519 437.48 328.088 437.903 329.235L436.988 331.21L436.265 330.525C435.926 328.897 435.913 329.754 437.116 327.847Z"/><path fill="#FEE7C6" transform="scale(0.133395 0.133395)" d="M539.652 571.387C540.991 571.706 541.925 572.619 543.042 573.479C541.123 573.435 541.165 573.76 539.872 572.828L539.652 571.387Z"/><path fill="#FEE7C6" transform="scale(0.133395 0.133395)" d="M507.125 713.052C507.631 712.762 507.27 712.923 508.293 712.853L509.89 714.548C508.604 714.403 508.54 714.353 507.314 713.901L507.125 713.052Z"/><path fill="#FEE7C6" transform="scale(0.133395 0.133395)" d="M539.129 666.398C540.458 667.572 539.938 668.67 539.783 670.282C538.195 668.615 538.667 668.412 539.129 666.398Z"/><path fill="#FEE7C6" transform="scale(0.133395 0.133395)" d="M692.461 713.642C693.676 714.096 693.249 713.684 693.913 714.709L693.41 716.417C692.161 716.315 692.66 716.565 691.857 715.791L692.461 713.642Z"/><path fill="#FEE7C6" transform="scale(0.133395 0.133395)" d="M546.891 685.404C547.258 685.598 548.083 686.225 548.454 686.491L548.415 687.494C547.235 687.563 547.776 687.731 546.822 686.904L546.891 685.404Z"/><path fill="#FEE7C6" transform="scale(0.133395 0.133395)" d="M302.992 570.268C303.852 572.04 303.067 572.385 302.054 573.827C301.197 571.891 301.85 571.78 302.992 570.268Z"/><path fill="#FEE7C6" transform="scale(0.133395 0.133395)" d="M543.811 584.824C544.541 585.472 544.218 585.105 544.525 586.234L543.348 588.161C542.685 587.539 542.982 587.95 542.637 586.815L543.811 584.824Z"/><path fill="#FEE7C6" transform="scale(0.133395 0.133395)" d="M536.482 568.797C536.769 568.709 536.532 568.756 537.472 568.746L536.953 569.636C536.641 569.742 536.897 569.681 535.898 569.752L536.482 568.797Z"/><path fill="#FEE7C6" transform="scale(0.133395 0.133395)" d="M372.394 760.153C372.824 760.009 372.523 760.07 373.307 760.272L372.913 762.135C371.913 761.672 372.368 762.006 371.592 761.076L372.394 760.153Z"/><path fill="#FEE7C6" transform="scale(0.133395 0.133395)" d="M294.543 689.259C295.265 689.881 294.979 689.474 295.273 690.559L293.972 692.222C293.448 691.609 293.701 691.995 293.332 690.992L294.543 689.259Z"/><path fill="#FEE7C6" transform="scale(0.133395 0.133395)" d="M552.577 569.726C553.237 569.249 552.87 569.339 553.682 569.465L552.87 570.138C552.334 570.584 552.673 570.397 551.791 570.561L552.577 569.726Z"/><path fill="#FEE7C6" transform="scale(0.133395 0.133395)" d="M719.873 672.88C721.385 673.696 721.545 673.77 721.495 675.299L721.245 675.454L720.521 675.253L719.873 672.88Z"/><path fill="#FEE7C6" transform="scale(0.133395 0.133395)" d="M557.279 640.654C557.799 640.534 557.478 640.543 558.206 640.919L557.504 641.514C556.661 641.498 557.097 641.594 556.223 641.128L557.279 640.654Z"/><path fill="#FEE7C6" transform="scale(0.133395 0.133395)" d="M595.43 594.588C596.186 594.234 595.757 594.319 596.735 594.465L596.907 595.503L595.982 595.579L595.43 594.588Z"/><path fill="#FEE7C6" transform="scale(0.133395 0.133395)" d="M632.689 302.048L633.598 301.852L633.853 302.749C633.378 303.105 633.718 302.893 632.724 303.166L632.689 302.048Z"/><path fill="#FEE7C6" transform="scale(0.133395 0.133395)" d="M595.46 759.292L596.09 759.107L596.53 759.44L595.807 761.286C594.821 760.617 595.092 760.931 594.584 759.809L595.46 759.292Z"/><path fill="#FEE7C6" transform="scale(0.133395 0.133395)" d="M445.663 770.747L446.495 770.361L446.981 770.692L446.457 772.437C445.643 771.941 445.493 771.797 444.754 771.198L445.663 770.747Z"/><path fill="#FEE7C6" transform="scale(0.133395 0.133395)" d="M338.868 534.263C340.106 534.506 339.693 534.305 340.69 535.079L339.966 535.596L339.071 536.303L338.575 536.044L338.868 534.263Z"/><path fill="#FEE7C6" transform="scale(0.133395 0.133395)" d="M364.35 326.196L365.294 326.177L365.454 327.361C365.188 327.507 364.86 327.488 364.56 327.532L364.35 326.196Z"/><path fill="#FEE7C6" transform="scale(0.133395 0.133395)" d="M520.67 575.325L521.277 575.006L521.906 575.214L521.434 577.117L520.269 576.231L520.67 575.325Z"/><path fill="#FEE7C6" transform="scale(0.133395 0.133395)" d="M280.051 436.798L281.003 436.739L280.477 437.75C280.214 437.825 280.432 437.789 279.559 437.755L280.051 436.798Z"/><path fill="#FEE7C6" transform="scale(0.133395 0.133395)" d="M430.546 339.612L431.548 339.408L432.015 339.923L431.448 340.782L430.504 340.541L430.546 339.612Z"/><path fill="#FEE7C6" transform="scale(0.133395 0.133395)" d="M342.148 439.22L342.957 439.232L342.865 440.732L342.003 440.766L342.148 439.22Z"/><path fill="#FEE7C6" transform="scale(0.133395 0.133395)" d="M510.347 700.098L511 700.266L510.618 701.286L510.005 701.421L509.533 701.088L510.347 700.098Z"/><path fill="#FF7F6D" transform="scale(0.133395 0.133395)" d="M67.4503 277.646L67.8623 277.437C69.0289 278.274 68.8984 278.892 69.4883 280.564C67.5221 279.971 67.4274 279.431 67.4503 277.646Z"/><path fill="#FF7F6D" transform="scale(0.133395 0.133395)" d="M658.467 28.1831L658.933 27.9068L659.577 28.1726L659.556 29.3561L659.035 29.5947L658.362 29.2829L658.467 28.1831Z"/></svg>