<?xml version="1.0" encoding="utf-8" ?><svg xmlns="http://www.w3.org/2000/svg" xmlns:xlink="http://www.w3.org/1999/xlink" width="912" height="192" viewBox="0 0 912 192"><clipPath id="cl_5"><rect width="912.31653" height="191.58647"/></clipPath><g clip-path="url(#cl_5)"><path fill="#009C47" transform="scale(2.28079 2.28079)" d="M45.297 1.91242C45.9834 2.0657 59.4158 15.626 60.9544 17.1245C57.5983 20.7802 53.0535 24.9087 49.5378 28.5284C47.6691 30.4522 42.2365 35.8493 40.337 37.1297L40.3727 37.156C43.6737 39.6248 48.7525 45.1744 51.9584 48.235C53.9799 50.1648 58.9705 55.0255 60.5442 57.0027C60.4046 58.0182 47.3883 70.6802 45.5898 72.4309C44.3166 71.6926 36.7513 63.9103 35.2158 62.3777C26.8314 53.9293 18.3751 45.5526 9.84789 37.2484C11.4257 35.4344 14.0812 32.9418 15.8352 31.2029L26.4893 20.6215C31.9631 15.1683 39.7756 6.81934 45.297 1.91242Z"/><path fill="#3C7DDC" transform="scale(2.28079 2.28079)" d="M81.2438 1.91579C82.4087 2.45954 113.378 33.7925 116.811 37.1777C114.677 39.6384 108.848 45.0483 106.186 47.7053C97.961 55.8449 89.7842 64.0328 81.6557 72.2686C80.5316 72.0997 67.8525 59.0335 65.9384 57.2129C70.8042 51.9795 76.1617 47.0566 81.1642 41.9423C82.7242 40.3475 84.4219 38.6606 86.125 37.2364C79.9361 31.0576 72.2347 22.8456 65.9107 17.2542C68.6847 13.9648 72.4713 10.778 75.4212 7.55113C77.1214 5.69129 79.3472 3.51568 81.2438 1.91579Z"/><path fill="#532398" transform="scale(2.28079 2.28079)" d="M63.3133 19.4628C68.9923 25.3479 75.5178 31.1366 81.041 37.0962C80.2031 38.3269 76.5728 41.778 75.3444 43.0005L63.4101 54.8729C62.2842 54.0366 59.1635 50.8579 58.056 49.7511C53.8418 45.5395 49.7422 41.323 45.4702 37.1578C51.4138 31.6461 57.3121 25.1441 63.3133 19.4628Z"/><path transform="scale(2.28079 2.28079)" d="M129.586 22.3055C132.189 22.5614 140.407 22.043 141.58 23.1316C141.149 23.7287 139.081 24.0806 137.993 24.5656C137.19 25.7973 137.497 32.8428 137.503 34.7676L152.349 34.7601C152.107 31.6257 152.32 27.8479 152.137 24.4754C151.095 24.2671 148.862 24.0845 148.511 23.0192C149.455 22.2594 160.259 22.2274 161.22 22.7575L161.252 23.2299C160.708 23.9259 158.565 24.2631 157.625 24.4662C157.403 26.7309 157.514 31.241 157.513 33.6761C157.512 38.5859 157.431 43.7687 157.59 48.6565C158.869 49.2046 159.996 49.1524 161.098 50.1513L161.069 50.553C160.404 51.0051 159.617 50.848 158.812 50.7791C156.665 50.6866 149.735 51.0927 148.435 50.3876L148.501 50.0129C149.397 49.2914 151.061 49.0485 152.229 48.7853C152.399 45.0922 152.151 41.2316 152.354 37.345C148.769 37.3722 140.674 37.5845 137.466 37.195C137.747 40.7364 137.469 44.9715 137.673 48.7241C138.76 49.1095 140.736 49.3812 141.53 50.0445L141.383 50.5136C139.735 50.8472 130.15 51.1092 128.911 50.3638L128.941 49.9606C129.744 49.2421 131.127 49.0295 132.203 48.7682C132.314 44.2163 132.209 39.4125 132.24 34.8404C132.259 31.9536 132.367 27.1119 131.968 24.4269C130.959 24.235 129.021 23.955 128.449 23.1274C128.731 22.4789 128.745 22.6416 129.586 22.3055Z"/><path transform="scale(2.28079 2.28079)" d="M250.556 22.329C256.825 23.0299 266.307 20.7514 271.138 25.4584C274.038 28.7726 272.534 34.0168 269.605 36.7385C268.006 38.2237 261.407 39.7078 260.029 38.1907C260.707 37.2776 263.985 37.0554 265.446 35.9655C267.413 32.9873 267.923 26.4195 263.873 24.7337C262.496 24.1606 259.369 24.073 257.821 23.9604C258.069 27.4863 257.423 46.6936 258.541 48.2432C259.496 49.568 261.806 49.1134 262.859 50.2463C262.032 51.0379 250.143 51.0762 249.27 50.242L249.459 49.8463C250.504 49.3429 251.391 49.0682 252.484 48.7102C252.691 45.7462 252.593 41.8274 252.595 38.7966C252.646 34.0013 252.605 29.2056 252.473 24.4119C251.639 24.1903 249.685 23.7525 249.312 23.0129C249.688 22.4486 249.795 22.5607 250.556 22.329Z"/><path transform="scale(2.28079 2.28079)" d="M231.655 20.0112C231.837 20.0096 232.085 20.128 232.27 20.1976C232.733 21.5146 232.455 33.2176 232.122 34.9145C246.161 25.5876 243.808 40.0102 243.776 49.023C244.684 49.1868 246.072 49.2689 246.273 50.2828C246.08 50.4141 245.869 50.5151 245.645 50.5822C244.314 50.9786 238.127 50.9919 236.867 50.2857L236.849 49.913C237.373 49.3487 238.389 49.2496 239.169 49.0946C239.173 45.5621 239.324 40.3274 238.977 36.9394C237.548 34.1384 234.712 35.301 232.443 36.1983C232.478 40.0539 232.266 43.9085 232.479 47.7545C232.608 50.0859 234.361 48.8429 235.133 50.4308C234.218 50.9927 226.184 50.9894 225.16 50.1653C225.525 49.3569 226.181 49.6788 227.451 48.9757C228.025 48.1927 227.744 26.949 227.605 24.3366C226.612 23.8277 226.019 23.7038 225.526 22.8317L225.768 22.2341C226.669 21.4777 230.278 20.4632 231.655 20.0112Z"/><path transform="scale(2.28079 2.28079)" d="M189.755 32.0226C200.237 31.0485 194.576 43.6127 196.487 47.7673C197.367 48.5388 197.489 48.2934 198.772 48.5486C199.406 50.614 193.707 54.0676 191.624 48.5096C191.39 48.7164 191.149 48.9153 190.902 49.106C187.637 51.6242 184.247 53.0172 181.335 49.167C180.834 46.9248 180.934 46.6188 181.83 44.5158C184.344 42.3623 188.435 41.2714 191.597 40.2007L191.59 39.6954C191.581 39.1646 191.598 38.4242 191.509 37.9388C191.297 36.7755 190.533 34.4236 189.027 34.538C186.469 34.7324 185.238 37.4338 183.708 39.1199C183.483 39.3689 182.716 39.2949 182.406 39.2792C178.438 36.7923 187.938 32.578 189.755 32.0226ZM186.841 48.3855C191.443 49.0736 191.796 46.0275 191.607 42.3864C191.362 42.1052 191.405 42.0525 191.102 42.0163C189.288 42.5527 184.843 43.9011 185.551 46.747C185.695 47.3254 186.319 48.0718 186.841 48.3855Z"/><path transform="scale(2.28079 2.28079)" d="M280.417 32.0297C282.558 31.8568 283.118 32.0323 285.067 32.7255C288.93 36.7486 286.608 42.652 287.295 47.6664C287.449 48.7909 289.067 48.1336 289.821 48.4956C290.096 50.5227 285.981 52.112 284.35 51.2558C283.186 50.6445 282.97 49.5861 282.535 48.4442C282.446 48.5298 282.355 48.614 282.262 48.697C279.199 51.4535 275.561 53.0025 272.388 49.3848C272.347 49.2889 272.308 49.1922 272.27 49.0947C271.516 47.1035 271.863 46.4005 272.689 44.5629C274.869 42.5042 279.608 41.213 282.58 40.2051L282.577 39.5402C282.556 37.2935 281.933 34.6685 279.183 34.413C276.533 34.1666 275.871 39.5908 273.323 39.6047C269.491 36.4166 278.306 32.8001 280.417 32.0297ZM277.721 48.4848C279.936 48.597 280.684 48.3631 282.473 46.7666C282.521 45.5069 282.66 43.4222 282.475 42.2555L282.145 41.9817L281.869 42.0199C278.958 42.7104 273.817 45.4244 277.721 48.4848Z"/><path transform="scale(2.28079 2.28079)" d="M280.294 44.7129L280.501 44.9225L280.465 45.4663C279.959 46.2386 279.47 46.4549 278.669 46.9198L278.487 46.7429C278.591 46.056 279.641 45.3419 280.294 44.7129Z"/><path transform="scale(2.28079 2.28079)" d="M332.937 32.0116C341.831 31.2898 338.396 41.4502 338.935 46.8154C339.041 47.8662 338.557 48.3643 339.678 48.9882C340.326 49.349 341.193 49.7288 341.667 50.2933L341.388 50.5909C339.888 50.9051 333.563 51.0042 332.193 50.3128L332.138 49.9112C332.694 49.2883 333.628 49.211 334.457 49.0527C334.18 45.0769 334.768 41.0271 334.098 37.1796C333.622 34.4457 329.615 34.8871 328.037 36.1978C327.51 36.8969 327.641 37.8104 327.671 38.6876C327.678 41.5401 327.611 44.4887 327.603 47.3455C327.594 50.6177 330.175 48.2569 330.442 50.3414C329.416 51.16 321.36 51.0573 320.354 50.1258C320.725 49.4889 321.707 49.3943 322.617 49.0784C323.447 47.8811 323.032 38.1245 322.967 36.0932C322.048 35.8702 320.76 35.7254 320.33 34.8608C321.196 34.0019 326.018 32.3448 327.351 32.2153C327.815 32.871 327.617 33.2071 327.557 34.1637L327.852 34.4119C328.612 34.2722 330.93 32.6383 332.937 32.0116Z"/><path transform="scale(2.28079 2.28079)" d="M170.726 31.8072C175.806 31.6482 177.5 35.0857 177.858 39.4975C173.894 39.6197 170.158 39.8215 166.19 39.6175C167.22 47.1673 170.166 49.4344 177.192 46.0419C177.745 45.7752 177.699 45.8919 178.27 46.1196C176.963 50.1099 170.013 53.3051 166.28 50.3433C159.42 44.9012 161.644 33.423 170.726 31.8072ZM166.041 38.1522C167.705 38.1576 169.37 38.184 171.034 38.2314C172.191 38.037 172.493 38.1786 173.294 37.4658C174.462 34.7373 171.629 33.3846 169.153 33.8021C167.386 35.2904 167.034 36.0521 166.041 38.1522Z"/><path transform="scale(2.28079 2.28079)" d="M351.44 31.8295C356.33 32.3516 362.353 39.2706 355.372 39.5929C352.737 39.7146 349.139 39.655 346.424 39.6146C347.017 42.3259 347.701 45.5891 350.338 47.1077C353.931 49.1765 356.177 46.1093 358.608 45.4476L358.684 45.4273C358.287 47.8717 355.147 50.6174 352.863 51.0982C340.526 53.6965 338.747 33.6661 351.44 31.8295ZM346.568 38.1996L350.562 38.2453C351.521 38.2009 352.74 38.2709 353.464 37.69C355.01 35.6684 352.847 33.932 350.925 33.4927C348.116 34.2767 347.557 35.6229 346.568 38.1996Z"/><path transform="scale(2.28079 2.28079)" d="M206.79 20.0235L207.171 20.0667C207.251 20.152 207.349 20.2548 207.463 20.3753C207.519 28.119 207.514 41.9138 207.455 49.0096C208.335 49.1772 209.774 49.2732 209.949 50.2555C208.782 50.9252 203.123 50.7001 201.185 50.8327C200.939 50.766 200.614 50.5353 200.387 50.3927L200.373 49.9892C201.229 49.5007 202.939 48.7992 202.88 47.5152C202.523 39.8083 202.968 32.0508 202.7 24.3478C201.939 23.8936 200.217 23.136 199.348 22.7269C201.361 21.7934 204.651 20.7341 206.79 20.0235Z"/><path transform="scale(2.28079 2.28079)" d="M313.718 28.1598L313.99 28.3479C314.305 28.9445 314.12 31.7056 314.095 32.562C315.599 32.501 318.196 32.1074 319.044 33.6815L318.832 34.198C317.293 35.2637 316.049 34.844 314.092 34.6632C314.089 37.022 313.862 45.4049 314.413 47.1651C315.715 48.3526 316.882 47.6939 318.846 47.773L319.043 48.1157C318.799 48.9163 318.025 49.4664 317.384 50.0182C316.957 50.3116 316.308 50.742 315.827 50.9516C306.369 55.073 310.092 40.3021 309.458 35.7859C309.25 34.3075 308.155 35.4361 307.119 34.7046L307.117 34.2303C307.619 33.4364 312.583 29.2478 313.718 28.1598Z"/><path transform="scale(2.28079 2.28079)" d="M383.343 31.8359C385.102 31.983 386.317 32.3813 388.015 32.8712C388.039 34.5236 387.935 35.5513 387.745 37.2003L387.319 37.3786C386.781 36.3855 386.293 35.4426 385.493 34.5865C384.764 33.4611 381.768 33.1418 380.976 34.2923C378.493 38.1737 384.904 39.546 387.167 41.7735C389.571 44.1396 389.402 46.7811 387.341 49.3969C386.088 50.9877 383.307 51.4966 381.235 51.5235C380.196 51.3497 378.862 51.175 377.94 50.6807C376.701 50.0169 376.346 46.6323 376.998 45.6002C378.348 45.8225 378.823 49.9722 381.593 49.8323C383.07 49.7577 385.389 48.9335 384.818 47.0612C383.703 43.4088 376.9 43.0774 376.469 38.4492C376.307 34.0618 379.386 32.2575 383.343 31.8359Z"/><path transform="scale(2.28079 2.28079)" d="M218.204 28.1474C219.042 28.6728 218.778 31.5168 218.768 32.5217C220.335 32.4855 223.056 32.1283 223.881 33.8034C223.019 35.2835 220.19 34.8449 218.739 34.7711C218.783 37.3677 218.201 46.2486 219.589 47.7823C221.049 48.442 223.022 47.588 224.554 47.1143C223.55 48.4888 223.128 49.0894 221.86 50.2087C211.437 56.5274 214.505 40.7276 214.147 35.5424C213.417 34.7601 212.928 35.0053 211.702 34.5533L211.618 34.0864C214.209 31.9333 215.838 30.5493 218.204 28.1474Z"/><path transform="scale(2.28079 2.28079)" d="M297.983 32.0573C298.605 33.3224 297.847 33.1322 298.241 34.353C298.651 34.4405 299.032 34.2077 299.22 33.89C300.94 30.9794 306.648 31.6264 305.651 35.2079C305.512 35.7181 305.168 36.1477 304.7 36.3942C303.301 37.1419 301.917 35.8768 300.26 35.366C297.183 35.8705 298.25 46.0173 298.231 49.0367L301.47 49.5725C301.661 49.6216 301.832 49.8489 301.976 50.0028L301.792 50.5023C301.093 51.0147 291.561 50.944 290.921 50.4399L290.951 49.7655C291.581 49.0237 292.395 49.648 293.425 48.7486C293.707 46.2934 293.501 39.0193 293.493 36.2159C292.425 35.9125 291.697 35.8913 291.219 34.8712C292.035 33.5505 296.195 32.6177 297.983 32.0573Z"/><path transform="scale(2.28079 2.28079)" d="M366.946 32.0401C367.481 33.0546 366.863 32.9553 367.287 34.3181C369.051 33.6875 371.227 30.7106 373.876 32.5035C374.763 33.6497 374.858 35.0473 373.881 36.1718C371.443 37.5966 369.761 34.3389 367.794 35.8113C366.914 37.2718 367.234 46.6843 367.195 49.1478C368.297 49.3626 369.33 49.4599 370.442 49.5763L370.783 49.9081L370.746 50.2957C369.85 51.0879 361.248 50.9863 359.985 50.3141L360.015 49.9315C360.651 49.3441 361.699 49.2577 362.569 49.1012L362.502 36.1235C361.512 35.8546 360.681 35.813 360.235 34.8719C360.721 33.717 365.524 32.5044 366.946 32.0401Z"/></g></svg>