<?xml version="1.0" encoding="utf-8" ?><svg xmlns="http://www.w3.org/2000/svg" xmlns:xlink="http://www.w3.org/1999/xlink" width="923" height="220" viewBox="0 0 923 220"><clipPath id="cl_6"><rect x="0.00088500977" y="-3.0517578e-05" width="923.32788" height="220.03894"/></clipPath><g clip-path="url(#cl_6)"><path fill="#013867" transform="matrix(1.39265 0 0 1.39265 -239.535 -239.536)" d="M237.939 213.926C248.016 213.665 254.807 217.763 261.483 224.855C261.703 224.628 261.924 224.404 262.148 224.181C274.647 211.77 295.417 209.826 308.648 222.589C320.178 234.094 318.846 250.893 318.642 265.887C317.838 270.628 320.725 282.424 317.313 285.619C315.259 287.543 295.281 287.099 294.691 285.503C289.978 273.237 297.977 250.896 290.018 239.95C285.857 234.227 270.821 236.271 269.852 246.638C268.891 256.925 269.406 266.728 269.465 276.963C269.772 291.051 265.246 285.574 254.06 286.68C249.673 286.662 246.75 287.48 245.704 282.525C242.912 269.301 254.23 234.016 231.402 236.753C214.662 238.76 225.493 279.071 220.752 285.708C218.18 287.203 199.87 287.216 197.539 285.409C196.25 281.931 196.633 225.186 197.243 217.59C197.292 216.973 198.169 216.335 198.689 216.17C201.152 215.389 206.949 215.289 209.243 216.273C211.999 217.454 213.195 222.14 214.253 224.923C221.52 217.498 227.578 214.703 237.939 213.926Z"/><path fill="#79BF21" transform="matrix(1.39265 0 0 1.39265 -239.535 -239.536)" d="M335.445 213.913C367.805 213.875 369.659 246.268 368.418 270.535C368.229 274.232 369.267 282.519 367.399 285.346C364.149 287.416 352.068 286.624 347.554 286.567C346.721 286.53 345.749 286.554 344.981 286.204C340.266 284.06 344.731 250.867 341.145 242.83C340.118 240.527 338.428 238.616 336.032 237.716C331.878 236.156 327.552 237.357 323.701 239.092C321.664 231.342 319.48 227.701 315.498 220.946C322 215.916 327.37 214.49 335.445 213.913Z"/><path fill="#013867" transform="matrix(1.39265 0 0 1.39265 -239.535 -239.536)" d="M742.218 213.951C750.328 212.499 758.074 217.912 759.498 226.026C760.922 234.14 755.482 241.867 747.363 243.264C739.282 244.653 731.599 239.246 730.182 231.17C728.765 223.095 734.147 215.395 742.218 213.951ZM746.842 236.708C751.312 235.602 754.035 231.079 752.92 226.612C751.805 222.145 747.275 219.431 742.81 220.555C738.357 221.675 735.653 226.189 736.764 230.643C737.876 235.098 742.385 237.811 746.842 236.708Z"/><path fill="#013867" transform="matrix(1.39265 0 0 1.39265 -239.535 -239.536)" d="M398.101 214.24C404.256 214.035 413.111 213.194 417.968 217.37C424.968 223.388 424.534 231.904 419.174 238.596C412.983 244.086 406.138 243.057 398.254 242.99C398.144 233.407 398.093 223.824 398.101 214.24ZM404.21 237.1C408.689 236.989 410.609 237.295 414.299 234.676C419.8 225.415 414.102 219.628 404.226 220.058L404.21 237.1Z"/><path fill="#013867" transform="matrix(1.39265 0 0 1.39265 -239.535 -239.536)" d="M584.559 213.424C587.08 214.749 593.926 228.508 595.81 232.01C597.407 229.004 604.213 215.284 606.611 214.258C608.347 216.119 611.568 238.846 612.309 242.982C610.151 242.925 607.801 242.72 605.631 242.575L605.02 237.079L604.043 229.552C601.38 234.469 598.727 239.508 595.847 244.292C593.422 241.061 589.673 233.446 587.669 229.602C586.922 233.937 586.313 238.613 585.661 242.989L579.317 242.771C579.801 238.452 583.398 216.764 584.559 213.424Z"/><path fill="#013867" transform="matrix(1.39265 0 0 1.39265 -239.535 -239.536)" d="M495.144 256.066C497.501 264.859 498.767 277.145 500.826 286.724C498.492 286.763 496.732 286.605 494.424 286.406C494.062 284.857 493.741 283.238 493.409 281.677C492.874 278.942 492.471 275.988 492.042 273.221C489.728 277.131 488.09 281.381 485.632 285.179C484.843 286.398 484.357 286.313 483.2 286.031C481.152 283.994 477.545 276.294 475.989 273.237L473.676 286.611C471.956 286.706 469.38 286.557 467.595 286.51C469.009 277.914 470.7 265.28 472.726 257.102C475.639 258.837 481.979 271.905 484.108 275.825C486.967 270.405 491.771 260.677 495.144 256.066Z"/><path fill="#013867" transform="matrix(1.39265 0 0 1.39265 -239.535 -239.536)" d="M666.657 257.686C678.243 257.968 681.724 268.273 671.324 275.124C673.453 278.857 675.811 282.75 677.38 286.73L670.757 286.699C669.322 284.632 668.247 282.429 667.09 280.2C666.045 277.825 665.659 276.213 663.337 275.252L662.519 275.843C661.436 279.229 661.728 283.08 661.69 286.719L655.576 286.72C655.036 279.388 655.118 265.352 655.439 257.909L666.657 257.686ZM661.946 270.315C664.911 270.281 667.008 270.348 669.933 269.734C670.969 268.305 671.101 268.112 671.279 266.329C669.866 262.635 665.141 263.475 661.712 263.564C661.847 265.899 661.945 267.963 661.946 270.315Z"/><path fill="#013867" transform="matrix(1.39265 0 0 1.39265 -239.535 -239.536)" d="M521.436 214.232C529.218 214.057 544.857 211.864 543.328 224.6C542.962 227.645 539.852 229.863 537.491 231.416C539.327 235.138 541.486 239.031 543.446 242.716C541.467 242.889 538.967 242.914 536.941 242.993C534.873 241.641 532.223 232.978 529.198 231.466L528.454 231.887C527.641 234.099 527.736 240.246 527.652 242.948L521.293 243.029C521.237 233.429 521.285 223.83 521.436 214.232ZM527.819 226.621C530.74 226.612 533.891 226.799 536.62 225.76C537.02 223.947 537.329 223.199 536.589 221.506C534.493 219.128 530.644 219.729 527.628 219.718L527.819 226.621Z"/><path fill="#013867" transform="matrix(1.39265 0 0 1.39265 -239.535 -239.536)" d="M544.715 256.972C548.091 258.14 559.9 270.263 563.114 273.37C562.996 268.491 563.151 262.865 563.183 257.931C565.14 257.756 567.455 257.9 569.447 257.967C569.474 262.418 569.968 284.964 568.791 287.431C566.359 286.102 554.079 273.41 550.948 270.407C550.937 275.857 550.874 281.306 550.759 286.755L544.736 286.715C544.439 277.902 544.28 265.703 544.715 256.972Z"/><path fill="#013867" transform="matrix(1.39265 0 0 1.39265 -239.535 -239.536)" d="M652.87 213.342C655.991 214.506 668.159 226.993 671.433 230.178C671.279 224.877 671.2 219.574 671.197 214.272C673.188 214.222 675.439 214.288 677.454 214.299C677.491 224.018 677.644 233.998 677.396 243.694C674.473 242.605 662.146 229.657 659.079 226.629L658.947 242.961L652.827 243.025C652.68 234.836 652.295 221.344 652.87 213.342Z"/><path fill="#013867" transform="matrix(1.39265 0 0 1.39265 -239.535 -239.536)" d="M416.212 257.956C418.312 257.867 420.499 257.935 422.608 257.966C422.698 263.548 423.079 281.64 422.306 286.275L421.522 286.766C417.442 286.928 415.699 286.719 415.937 281.828C416.041 279.668 416.078 277.356 416.104 275.182C412.059 274.954 408.173 275.056 404.132 275.126C404.07 278.883 405.206 283.63 403.31 286.199C401.992 287.133 399.803 286.766 398.102 286.674L398.059 257.897C400.078 257.835 402.176 257.958 404.201 258.041L404.174 269.021L416.121 268.901L416.212 257.956Z"/><path fill="#013867" transform="matrix(1.39265 0 0 1.39265 -239.535 -239.536)" d="M451.337 258.008C453.111 257.935 455.904 257.557 457.197 258.576C458.214 260.088 457.864 263.076 457.827 265.035C457.931 270.777 458.807 280.322 454.607 283.379C441.307 293.061 431.726 281.275 434.227 267.431C434.525 265.78 434.392 259.257 434.42 258.013L440.9 258.081C441.001 261.524 439.905 277.015 442.484 278.842C453.968 286.977 451.362 263.639 451.337 258.008Z"/><path fill="#013867" transform="matrix(1.39265 0 0 1.39265 -239.535 -239.536)" d="M462.827 214.261C468.678 214.041 475.361 213.116 480.272 217.102C484.061 220.176 484.354 224.947 481.055 228.574C477.893 232.051 475.546 232.332 471.108 232.613L469.802 232.613C468.822 234.131 469.283 240.87 469.351 242.972L462.943 242.989C462.558 233.841 462.772 223.493 462.827 214.261Z"/><path fill="#013867" transform="matrix(1.39265 0 0 1.39265 -239.535 -239.536)" d="M625.403 257.885C631.47 257.686 638.052 257.746 644.162 257.681L644.233 263.837C640.167 263.655 635.939 263.761 631.857 263.805L631.967 269.041C635.379 269.02 638.613 269.179 642.019 269.34L641.971 275.025C639.91 274.964 633.051 274.585 631.841 275.479C631.784 276.922 631.58 278.434 632.185 279.724C634.567 281.725 640.211 280.656 644.167 280.659L644.178 286.766C638.054 286.607 631.703 286.696 625.556 286.706C625.368 277.188 625.44 267.422 625.403 257.885Z"/><path fill="#013867" transform="matrix(1.39265 0 0 1.39265 -239.535 -239.536)" d="M773.439 257.952C779.305 257.693 786.091 257.808 792.029 257.781C792.051 259.762 792.009 261.806 791.995 263.794C787.331 263.541 784.186 263.577 779.509 263.792L779.489 268.94C782.724 269.188 786.72 269.093 790.026 269.096L789.852 274.978C786.743 274.896 783.5 274.929 780.378 274.919L779.927 274.993C779.2 276.303 779.473 279.107 779.471 280.842C783.63 280.783 787.791 280.806 791.949 280.91L791.926 286.735C785.889 286.587 779.459 286.708 773.39 286.733L773.439 257.952Z"/><path fill="#013867" transform="matrix(1.39265 0 0 1.39265 -239.535 -239.536)" d="M641.487 214.235L641.577 220.177L629.069 219.923L629.192 225.528L639.394 225.503C639.482 227.334 639.575 228.152 639.206 229.962C636.174 233.33 634 229.924 630.133 231.457C628.837 232.652 629.235 232.518 628.987 234.758C629.296 236.254 629.009 235.849 629.94 236.885C633.466 237.519 637.843 237.184 641.54 237.143L641.566 242.9C635.476 242.746 629.054 242.812 622.933 242.773C622.852 233.18 623.165 223.768 623.128 214.245L641.487 214.235Z"/><path fill="#013867" transform="matrix(1.39265 0 0 1.39265 -239.535 -239.536)" d="M432.964 214.196L451.656 214.245C451.678 215.935 451.527 218.157 451.462 219.89C447.555 219.785 443.307 219.887 439.371 219.906L439.362 225.615L449.496 225.508L449.474 231.253C446.208 231.181 442.989 231.033 439.737 231.328L439.395 232.061C439.309 233.475 439.081 234.919 439.665 236.193C441.837 238.129 447.853 237.17 451.664 237.249L451.539 243.013C445.353 242.915 439.166 242.91 432.981 242.999C432.916 233.398 432.91 223.797 432.964 214.196Z"/><path fill="#013867" transform="matrix(1.39265 0 0 1.39265 -239.535 -239.536)" d="M521.268 257.233C523.425 258.753 535.771 285.3 534.88 286.648C532.999 287.602 533.711 287.529 531.673 287.432C529.727 286.526 528.572 284.49 527.305 282.706C525.858 281.84 523.102 282.053 521.303 282.037L516.463 281.989C514.829 285.387 512.793 288.649 508.341 285.938C508.209 283.108 519.173 260.944 521.268 257.233ZM523.494 276.944L524.31 276.517C524.103 275.099 522.249 271.011 521.341 270.238C520.511 271.951 519.477 273.857 519.1 275.695C520.154 277.503 521.466 277.005 523.494 276.944Z"/><path fill="#013867" transform="matrix(1.39265 0 0 1.39265 -239.535 -239.536)" d="M499.126 213.465C501.219 215.198 513.094 240.55 512.545 242.64C508.363 244.893 506.993 241.049 504.066 238.903C504.066 238.902 501.441 238.729 501.171 238.711C495.869 238.613 494.63 237.788 491.482 242.239C490.693 243.355 487.063 243.049 485.541 243.013C486.616 239.363 497.057 216.981 499.126 213.465ZM500.619 233.481L501.968 233.105C502.28 231.41 500.284 227.448 499.136 226.429C498.349 228.05 496.597 230.982 496.945 232.571C498.166 233.636 498.623 233.312 500.619 233.481Z"/><path fill="#013867" transform="matrix(1.39265 0 0 1.39265 -239.535 -239.536)" d="M749.69 257.564C756.397 256.89 758.878 257.727 764.074 261.574L759.838 265.853C758.251 264.948 756.85 264.154 755.031 263.822C752.773 263.429 750.453 263.968 748.599 265.315C746.712 266.703 745.446 268.926 745.155 271.246C744.872 273.376 745.477 275.53 746.83 277.201C751.947 283.495 756.873 278.17 760.331 278.852C761.542 280.009 762.907 281.506 764.09 282.734C758.914 286.46 753.981 288.637 747.55 285.995C743.824 284.461 740.882 281.478 739.399 277.732C737.89 273.979 737.972 269.774 739.627 266.084C741.733 261.345 745.187 259.342 749.69 257.564Z"/><path fill="#013867" transform="matrix(1.39265 0 0 1.39265 -239.535 -239.536)" d="M601.44 257.549C607.56 257.166 609.326 257.842 614.525 260.795C613.594 262.427 612.188 264.232 611.059 265.772C609.527 264.889 606.348 263.268 604.66 262.979C602.922 263.545 603.161 263.206 602.041 264.43C602.78 269.264 625.785 276.009 608.903 286.486C605.264 287.292 599.303 286.823 596.189 284.574C595.342 282.977 595.481 283.708 595.799 281.765C599.484 277.535 606.013 283.068 607.92 279.682C606.987 276.398 605.128 275.835 602.262 274.222C593.984 269.558 590.783 262.492 601.44 257.549Z"/><path fill="#013867" transform="matrix(1.39265 0 0 1.39265 -239.535 -239.536)" d="M807.751 257.552C811.89 257.251 817.802 257.111 819.703 261.402C819.706 263.186 818.475 264.352 817.338 265.795C814.999 264.413 809.911 261.483 807.655 264.169C808.044 268.788 833.462 276.999 814.857 286.541C811.322 287.127 804.695 287.011 802.224 284.121C801.788 282.249 801.785 283.036 802.338 281.111C805.852 278.226 810.418 282.048 813.44 280.476C814.077 278.271 812.534 276.485 810.66 275.432C802.121 270.638 795.015 263.535 807.751 257.552Z"/><path fill="#013867" transform="matrix(1.39265 0 0 1.39265 -239.535 -239.536)" d="M684.49 257.989C685.639 257.908 688.885 257.548 689.723 257.986C693.561 259.994 696.617 269.349 698.457 273.597C700.799 269.274 703.514 262.641 705.723 257.975C707.906 257.783 710.631 257.852 712.861 257.846C711.688 260.804 709.985 264.123 708.575 267.025C706.947 270.371 700.587 285.468 698.699 286.943C696.536 285.749 686.03 261.743 684.49 257.989Z"/><path fill="#013867" transform="matrix(1.39265 0 0 1.39265 -239.535 -239.536)" d="M767.265 214.254C773.209 214.087 779.766 214.237 785.758 214.262C785.797 215.996 785.652 218.238 785.589 220.011C781.157 219.875 777.961 219.842 773.55 220.124L773.525 226.219C776.342 226.21 780.43 225.735 782.648 226.826C784.076 228.541 783.637 228.297 783.856 230.951L783.063 231.988C780.948 232.406 775.875 232.212 773.474 232.181L773.455 242.659C771.382 242.952 769.226 242.805 767.127 242.736C766.911 233.784 766.799 223.129 767.265 214.254Z"/><path fill="#013867" transform="matrix(1.39265 0 0 1.39265 -239.535 -239.536)" d="M551.768 214.242C555.692 214.202 567.845 213.884 571.08 214.544C571.853 215.96 571.616 218.441 571.595 220.155L564.745 220.142L564.708 239.687C564.603 241.767 564.958 241.487 563.799 242.639C561.941 243.039 560.391 242.906 558.499 242.85C558.356 235.418 558.49 227.607 558.505 220.146C556.598 220.146 553.665 220.52 552.312 219.467C551.344 218.073 551.683 216.004 551.768 214.242Z"/><path fill="#013867" transform="matrix(1.39265 0 0 1.39265 -239.535 -239.536)" d="M687.51 214.247C691.067 214.106 703.901 213.99 706.884 214.462C707.547 215.879 707.338 218.342 707.321 220.017L700.509 220.139L700.515 236.705L700.547 242.774L694.427 243.028C694.215 235.616 694.352 227.594 694.342 220.136L687.487 220.06L687.51 214.247Z"/><path fill="#013867" transform="matrix(1.39265 0 0 1.39265 -239.535 -239.536)" d="M721.662 258.056C723.747 257.906 725.991 257.965 728.093 257.976C728.115 262.054 728.521 284.802 727.583 286.767C725.436 286.82 724.279 286.924 722.193 286.447C720.958 284.624 721.52 261.671 721.662 258.056Z"/></g></svg>