<?xml version="1.0" encoding="utf-8" ?><svg xmlns="http://www.w3.org/2000/svg" xmlns:xlink="http://www.w3.org/1999/xlink" width="732" height="303" viewBox="0 0 732 303"><clipPath id="cl_3"><rect y="3.8146973e-06" width="731.68243" height="302.6142"/></clipPath><g clip-path="url(#cl_3)"><path fill="#002677" transform="matrix(0.257544 0 0 0.257544 0 -30.9053)" d="M263.754 388.984C265.767 392.032 265.743 392.476 265.784 396.549C266.119 429.373 265.894 462.518 265.793 495.32L265.716 671.158L265.777 787.675C265.787 820.088 268.236 851.108 258.781 882.511C236.343 957.042 145.557 973.208 91.0517 922.37C58.1922 887.061 59.4775 849.502 59.3794 805.032L59.3443 735.017L59.2486 481.171C126.083 453.368 197.779 419.174 263.754 388.984Z"/><path fill="#002677" transform="matrix(0.257544 0 0 0.257544 0 -30.9053)" d="M495.038 289.009C508.2 283.237 532.01 271.743 544.447 267.213C546.051 298.001 544.817 339.037 544.789 370.466L544.957 562.084C545.341 625.567 545.359 689.051 545.012 752.533C544.838 804.372 546.465 850.435 537.995 901.531C519.679 1012.02 448.399 1102.1 330.568 1107.52C287.467 1109.51 258.609 1099.63 219.119 1083.37L216.411 1078.75L217.156 1077.55L223.482 1076.88C225.837 1077.52 227.974 1077.95 230.359 1078.36C375.513 1103.56 467.801 1022.9 491.597 881.631C497.665 842.862 496.514 803.708 495.827 764.596C495.302 736.485 495.076 708.369 495.151 680.254L495.038 289.009Z"/><path fill="#002677" transform="matrix(0.257544 0 0 0.257544 0 -30.9053)" d="M1946.51 338.379L1958.43 337.681C1957.64 394.727 1958.35 454.448 1958.32 511.727L1958.2 575.344C1958.16 587.364 1958.13 599.497 1958.35 611.495C1958.78 634.435 1971.67 635.851 1990.49 637.669L1990.63 652.888C1967.96 653.966 1938.23 653.156 1915.13 653.193C1915.42 642.265 1915.79 631.98 1915.2 621.058C1911.73 626.114 1908.28 630.945 1904.35 635.556C1881.48 662.439 1838.79 661.869 1810.66 643.992C1805.25 640.549 1801.19 637.246 1796.38 633.011C1793.94 630.474 1791.61 627.962 1789.44 625.159C1767.36 596.641 1760.88 554.332 1765 519.24C1768.34 490.784 1781.5 459.164 1805.02 441.648C1821.95 429.042 1843.88 422.908 1865.06 425.751C1877.51 427.422 1896.99 436.472 1905.73 445.645C1908.03 448.061 1913.14 456.039 1915.7 459.511C1917.77 451.778 1913.27 415.788 1915.2 405.036C1915.01 396.899 1915.65 387.466 1914.34 379.53C1910.93 358.822 1899.82 359.534 1883.84 359.516L1883.81 344.171C1900.6 341.578 1928.42 340.102 1946.51 338.379ZM1867.67 631.967C1918.27 620.51 1920.47 543.857 1911.79 503.397C1905.68 474.897 1888.73 449.461 1856.88 451.372C1789.28 464.721 1795.57 639.706 1867.67 631.967Z"/><path fill="#002677" transform="matrix(0.257544 0 0 0.257544 0 -30.9053)" d="M405.751 327.875C412.191 324.045 443.951 309.378 450.46 309.114C452.002 314.648 451.609 349.541 451.627 356.882L451.725 467.866L451.715 709.215C451.728 796.729 459.956 889.93 415.298 968.476C392.085 1009.3 357.053 1037.19 311.758 1049.76C261.359 1063.73 207.457 1056.8 162.232 1030.54C155.642 1026.79 146.018 1020.74 140.059 1016.07C200.077 1033.43 255.374 1041.99 313.838 1011.03C353.47 990.037 378.493 951.309 390.584 909.166C393.365 899.474 397.833 880.424 398.067 870.419C401.093 858.394 401.971 814.323 402.093 801.005L402.502 711.834L402.757 391.579C402.843 381.396 401.163 334.201 403.775 327.986L405.433 327.909L405.751 327.875Z"/><path fill="#002677" transform="matrix(0.257544 0 0 0.257544 0 -30.9053)" d="M950.495 721.387C962.283 720.537 979.967 721.113 992.449 721.099C1017.25 720.987 1042.06 721.032 1066.86 721.235L1066.71 736.496C1051.85 738.278 1037.91 739.61 1033 756.6C1026.3 760.46 1028.86 764.071 1027.35 771.993L1027.18 771.527C1024.99 797.998 1026.4 847.613 1026.39 876.358L1026.4 949.883C1026.4 962.718 1026.34 975.691 1026.52 988.532C1026.54 990.008 1026.84 990.576 1027.86 991.655C1031.08 995.064 1029.13 994.293 1033.07 995.369L1033.3 995.985C1040.02 1012.94 1049.93 1013.8 1066.48 1015.6L1066.55 1030.49C1028.01 1030.59 987.908 1031.03 949.456 1030.42C949.196 1025.71 949.266 1019.94 949.194 1015.14C967.208 1013.65 974.688 1013.8 984.326 996.98L984.062 883.763C948.357 882.539 905.791 883.639 869.534 883.617L869.367 952.769C869.244 989.089 861.204 1011.89 905.643 1014.81L905.495 1030.11C870.275 1031.93 822.824 1030.67 786.658 1030.81C786.38 1025.41 785.845 1019.82 785.399 1014.42C798.223 1014.26 819.038 1012.54 820.908 995.887C822.666 980.224 822.114 963.451 822.127 947.628L822.049 871.039L822.193 802.822C822.215 797.805 822.298 792.598 822.256 787.568C821.974 754.124 827.125 739.457 787.206 737.146L787.374 721.329C793.586 721.063 800.164 721.1 806.384 721.188C839.07 721.652 872.176 720.472 904.816 721.534L904.909 736.09C886.949 738.911 871.496 739.572 869.779 761.751C868.857 773.662 869.294 785.479 869.327 797.422L869.196 859.101L984.503 859.548L984.479 794.341C984.498 782.862 985.099 770.58 983.925 759.19C981.762 738.207 967.043 738.2 950.44 737.565L950.495 721.387Z"/><path fill="#002677" transform="matrix(0.257544 0 0 0.257544 0 -30.9053)" d="M310.864 369.48C327.841 363.095 342.217 354.832 358.323 348.497L358.669 676.371C358.746 711.55 358.637 746.729 358.34 781.907C357.958 814.659 357.827 840.574 352.299 873.094C332.973 986.788 229.387 1035.04 127.981 982.938C127.938 978.969 126.804 976.795 125.405 973.096C209.671 991.905 284.93 974.74 304.548 878.184C311.026 846.304 310.879 818.97 311.298 786.611C311.617 753.638 311.714 720.663 311.588 687.689L310.864 369.48Z"/><path fill="#002677" transform="matrix(0.257544 0 0 0.257544 0 -30.9053)" d="M776.964 343.411L892.234 343.716L892.237 359.102C852.863 361.304 858.321 379.778 858.42 411.945L858.577 466.986L858.116 526.21C857.899 551.203 856.112 578.84 872.308 600.122C908.656 647.883 982.101 624.458 987.382 564.645C988.862 547.889 989.303 534.508 989.335 517.407L989.392 459.948C989.403 440.498 989.492 420.172 989.568 400.767C989.694 368.325 980.691 362.952 951.581 358.272C951.552 353.93 951.268 349.93 952.589 345.777C956.695 341.885 1009.03 343.557 1018.75 343.609C1031.06 343.521 1043.37 343.638 1055.68 343.96C1056.1 348.216 1056.01 355.123 1056.08 359.604C1008.44 363.237 1017.53 391.339 1017.7 428.939L1018.03 522.176C1018.03 536.765 1019.14 556.2 1017.38 570.414C1007.39 651.006 911.18 685.282 848.476 638.342C804.941 605.751 810.059 552.014 810.012 503.998C809.945 472.68 810.072 441.362 810.393 410.045C810.578 386.723 814.771 361.242 784.022 359.355C780.854 359.161 777.469 358.781 774.272 358.533C774.413 353.557 773.906 346.983 776.964 343.411Z"/><path fill="#002677" transform="matrix(0.257544 0 0 0.257544 0 -30.9053)" d="M1737.01 722.664C1752.61 719.74 1797.28 715.824 1812.91 716.395C1811.93 759.547 1813.13 803.714 1813.13 846.991C1829.35 819.88 1849.18 803.208 1882.11 805.314C1943.26 809.223 1941.42 860.083 1941.24 905.123L1940.98 971.106C1940.9 999.017 1938.24 1014.15 1972.24 1015.78L1972 1029.76C1966.2 1030.11 1960.05 1030.14 1954.24 1030.1C1924.66 1029.89 1894.67 1031.24 1865.14 1030.41L1865.12 1014.84C1871.76 1014.7 1880.48 1015.19 1886.56 1012.2C1891.69 1009.67 1894.09 1004.98 1895.66 999.73C1898.42 990.498 1898.83 880.715 1897.41 866.758C1896.78 860.431 1894.9 854.291 1891.89 848.694C1887.92 841.424 1881.58 834.942 1873.41 833.024C1843.08 825.905 1822.68 855.371 1816.5 880.3C1814.42 886.778 1813.48 893.983 1812.94 900.769C1811.74 915.716 1809.79 990.513 1815.35 1001.36C1815.75 1002.14 1816.18 1002.91 1816.6 1003.68C1816.77 1004 1816.94 1004.33 1817.11 1004.66C1817.22 1004.85 1817.33 1005.04 1817.44 1005.24C1826.75 1015.21 1830.3 1014.89 1843.62 1015.08L1843.39 1030.32C1832.01 1031.04 1816.62 1030.65 1805 1030.68L1736.98 1030.84C1736.93 1028.73 1736.19 1017.22 1737.93 1016.89C1754.98 1013.59 1768.69 1012.66 1768.79 989.855C1769.12 913.167 1768.35 835.892 1768.27 759.163C1768.24 737.059 1754.61 737.601 1737.23 737.187L1737.01 722.664Z"/><path fill="#002677" transform="matrix(0.257544 0 0 0.257544 0 -30.9053)" d="M1350.37 804.385C1374.52 802.744 1397.52 804.527 1417.39 819.959C1445.04 841.427 1443.46 873.64 1443.3 904.94L1443 962.236C1442.94 975.752 1442.45 991.325 1444.03 1004.61C1451.83 1016.71 1457.25 1016.17 1470.75 1015.5L1470.67 1030.17C1438.91 1038.83 1407.06 1037.02 1397.11 1000.76C1387.37 1012.93 1374.18 1026.51 1359.1 1031.31C1328.05 1041.2 1288.97 1031.76 1277.74 998.231C1270.93 980.869 1277.36 952.818 1291.91 941.359C1321.88 917.765 1364.99 906.714 1399.18 890.664C1399.2 889.378 1399.22 888.093 1399.21 886.807C1399.16 856.484 1390.98 826.909 1354.89 827.086C1346.84 826.214 1325.52 832.581 1320.95 839.267C1316 846.493 1337.02 858.398 1325.94 875.994C1322.33 881.8 1316.5 885.881 1309.81 887.295C1303.55 888.596 1297.04 887.324 1291.74 883.766C1287.48 880.893 1282.9 875.026 1282.56 869.804C1279.95 829.352 1316.54 809.988 1350.37 804.385ZM1330.54 1002.04C1339.43 1007.69 1346.39 1010.75 1357.26 1008.38C1369.76 1005.66 1380.62 998.002 1387.4 987.152C1400.48 966.273 1398 939.673 1397.85 915.915C1397.84 915.336 1397.22 914.641 1396.86 914.19C1395.17 913.859 1395.51 913.703 1393.95 914.007C1370.71 924.492 1331.33 937.069 1321.11 962.193C1315.34 976.362 1320.3 991.271 1330.54 1002.04Z"/><path fill="#002677" transform="matrix(0.257544 0 0 0.257544 0 -30.9053)" d="M2255.46 803.467C2261.49 803.124 2267.53 803.266 2273.53 803.894C2308.82 807.251 2333.97 825.934 2340.49 861.896C2342.66 873.878 2341.87 893.749 2341.94 906.759C2342.17 929.835 2342.18 952.913 2341.98 975.99C2341.93 986.179 2340.56 1002.22 2347.65 1010.2C2352.85 1016.05 2362.74 1015.46 2370.11 1015.63L2370.05 1030.85C2346.7 1036.56 2309.82 1039.33 2299.74 1010.85C2298.21 1006.54 2298.8 1003.93 2298.66 999.539C2297.79 1000.93 2286.87 1012.74 2284.79 1014.87C2260 1040.41 2212.15 1042.64 2187.62 1015.59C2182.1 1009.51 2179.95 1003.59 2176.79 996.26C2171.78 960.466 2183.51 940.817 2216.36 925.253C2243.41 912.431 2271.51 902.067 2299.34 891.019L2299.32 888.036C2299.21 871.338 2297.91 850.237 2284.78 838.273C2265.14 820.377 2234.89 824.68 2217.49 843.298C2227.83 854.889 2229.16 854.945 2228.51 871.247L2228.1 871.974C2220.5 885.106 2206.09 895.44 2191.55 883.749C2175.8 871.084 2182.04 847.104 2193.17 833.363C2208.88 813.973 2231.22 806.148 2255.46 803.467ZM2229.95 1001.58C2254.27 1017.69 2277.61 1004.46 2289.39 980.505C2296.51 966.005 2300.68 931.507 2298.06 915.636C2297.14 915.368 2296.26 915.024 2295.35 914.972C2273.36 923.655 2232.37 935.284 2222.09 958.643C2215.09 974.551 2218.32 988.945 2229.95 1001.58Z"/><path fill="#002677" transform="matrix(0.257544 0 0 0.257544 0 -30.9053)" d="M1640.74 426.392C1715.83 418.707 1742.08 476.41 1741.63 541.388C1727.56 542.367 1707.01 541.797 1692.51 541.807L1603.88 541.842C1607.96 584.761 1621.32 641.924 1683.21 625.976C1699.06 621.89 1710.78 605.879 1717.49 591.31C1717.5 589.905 1717.76 589.851 1718.38 588.415C1723.17 585.82 1733.95 589.873 1739.58 591.437C1727.99 621.831 1713.01 646.174 1678.99 654.583C1655.87 660.296 1626.42 655.549 1606.47 642.371C1539.23 597.933 1540.85 475.133 1612.7 435.857C1621.88 430.844 1630.82 428.489 1640.74 426.392ZM1604.61 519.634L1649.5 519.541C1664.52 519.47 1680.99 519.703 1695.89 519.289C1694.45 493.104 1685.36 450.404 1652.03 450.353C1618.79 454.818 1607.65 490.458 1604.61 519.634Z"/><path fill="#002677" transform="matrix(0.257544 0 0 0.257544 0 -30.9053)" d="M1167.48 803.447C1169.22 803.402 1170.96 803.385 1172.7 803.396C1212.22 803.688 1238.91 827.007 1252.01 863.243C1259.6 884.227 1258.89 897.414 1258.54 919.186L1121.27 919.638C1121.55 951.741 1132.79 992.057 1166.03 1004.4C1196.17 1015.59 1227.06 994.828 1236.97 966.061C1241.41 966.212 1254.3 967.133 1256.01 971.387C1254.85 979.364 1243.44 997.302 1238.66 1003.82C1208.88 1044.04 1152.57 1043.38 1115.74 1013.71C1063.83 971.891 1063.46 883.684 1104.13 834.303C1119.79 815.292 1143.06 805.277 1167.48 803.447ZM1122.94 896.935C1140.47 897.688 1158.66 897.461 1176.25 897.485C1188.46 897.476 1201.51 897.709 1213.64 897.425C1210.32 868.954 1202.98 826.079 1165.21 829.206C1134.7 837.641 1124.81 868.142 1122.94 896.935Z"/><path fill="#002677" transform="matrix(0.257544 0 0 0.257544 0 -30.9053)" d="M2649.67 803.401C2697.79 800.227 2729.56 834.872 2737.83 879.953C2740.35 893.673 2740.56 905.645 2741.09 919.5C2697.26 919.236 2646.67 918.333 2603.21 919.699C2602.84 947.722 2612.52 982.979 2636.99 999.234C2648.06 1006.66 2661.67 1009.26 2674.7 1006.42C2701.65 1000.62 2707 984.359 2718.77 965.867C2725.66 966.971 2730.39 968.398 2737.01 970.339C2726.81 1003.36 2706.04 1030.27 2669.48 1034.22C2530 1049.28 2517 814.802 2649.67 803.401ZM2605.72 897.3C2621.73 897.465 2637.74 897.538 2653.75 897.519C2666.73 897.51 2680.84 897.787 2693.72 897.433C2693.03 872.124 2684.86 827.749 2651.4 828.706C2649.33 828.751 2647.26 828.931 2645.22 829.247C2616.47 840.216 2606.12 868.219 2605.72 897.3Z"/><path fill="#002677" transform="matrix(0.257544 0 0 0.257544 0 -30.9053)" d="M1129.56 469.682C1131.68 465.18 1134.16 460.526 1136.98 456.427C1147.33 441.493 1163.21 431.306 1181.1 428.129C1219.77 421.26 1249.41 442.098 1256.02 480.654C1256.46 510.882 1256.74 541.112 1256.83 571.342C1256.94 586.832 1256.57 603.866 1258.19 619.195C1258.55 622.602 1260.48 625.328 1262.39 628.129C1270.48 636.848 1277.87 636.123 1289.1 636.847L1289.06 652.861C1254.1 653.406 1217.94 652.954 1182.92 652.88L1182.92 637.776C1218.89 634.584 1213.13 620.689 1213.34 590.402C1213.41 580.79 1213.49 570.88 1213.27 561.228C1212.72 536.209 1214.28 510.88 1212.44 485.954C1210.23 458.489 1181.27 444.333 1158.92 461.475C1133.86 480.699 1128.6 516.813 1128.93 546.565C1129.04 569.796 1127.93 592.707 1129.16 615.863C1130.35 635.73 1145.81 636.389 1161.21 637.348L1161.29 652.949C1126.41 653.65 1088.64 653.13 1053.61 652.907L1053.61 637.658C1072.72 636.359 1085.24 632.172 1085.27 610.849C1085.35 564.494 1085.95 518.039 1084.77 471.705C1084.22 449.997 1073.32 449.712 1055.54 449.402L1055.4 433.501C1080.17 431.953 1104.9 430.026 1129.61 427.722C1130.12 441.028 1129.66 456.24 1129.56 469.682Z"/><path fill="#002677" transform="matrix(0.257544 0 0 0.257544 0 -30.9053)" d="M2069.19 804.418C2086.95 803.044 2104.1 803.37 2120.85 810.427C2136.17 817.035 2148.29 829.381 2154.61 844.818C2164.64 869.584 2151.06 899.54 2122.21 884.883C2092.4 869.736 2135.43 843.735 2108.37 834.262C1998.26 795.712 2000.12 1045.7 2111.76 1002.08C2127.32 994.396 2133.19 982.345 2141.6 968.055C2143.43 967.391 2159.58 971.099 2160.95 973.347C2159.47 980.419 2152.4 992.188 2148.64 998.512C2123.81 1040.29 2067.26 1044.67 2028.62 1019.35C1975.38 984.478 1967.78 896.169 2002.56 845.702C2019.86 820.597 2039.94 809.846 2069.19 804.418Z"/><path fill="#002677" transform="matrix(0.257544 0 0 0.257544 0 -30.9053)" d="M1646.37 742.14C1653.42 741.947 1659.91 742.092 1666.93 742.268C1668.16 762.338 1667.46 789.588 1667.49 810.172C1687.24 810.178 1708.09 809.896 1727.72 810.572C1728.04 817.878 1727.83 825.574 1727.75 832.915C1711.88 833.957 1685.26 833.054 1668.59 833.018C1667.9 834.461 1667.4 835.588 1667.33 837.214C1666.61 852.194 1666.66 984.475 1669.04 990.588C1669.42 991.561 1669.89 992.432 1670.4 993.345C1674.49 1003.45 1691.33 1008.39 1700.84 1003.7C1711.76 998.313 1716.86 987.078 1721.05 976.313C1727.66 977.489 1731.44 977.992 1737.61 980.461C1729.7 1011.91 1712.7 1034.5 1677.57 1034.97C1615.72 1035.79 1623.86 978.62 1623.93 935.467L1623.94 833.647C1614.22 832.618 1595.14 833.254 1584.1 833.02C1583.75 828.645 1583.96 821.69 1583.96 817.102C1610.35 811.902 1628.42 795.192 1637.26 769.81C1640.29 761.116 1642.45 751.485 1645.97 743.081L1646.37 742.14Z"/><path fill="#002677" transform="matrix(0.257544 0 0 0.257544 0 -30.9053)" d="M1400.2 440.2C1425.77 431.033 1439.27 424.423 1452.54 398.829C1458.98 386.392 1457.77 369.478 1464.31 364.278C1469.58 362.63 1478.57 363.519 1484.32 363.965L1483.59 432.268C1501.8 432.203 1527 431.431 1544.59 432.505C1544.59 438.807 1544.93 449.186 1544.44 455.166C1525.62 455.235 1503.06 454.708 1484.57 455.51L1484.51 555.701C1484.54 572.697 1483.83 590.438 1485.83 607.278C1487.29 619.606 1498.48 627.46 1510.51 627.028C1517.56 626.778 1524.22 623.702 1528.98 618.492C1534.26 612.708 1536.98 604.37 1539.34 597.068C1544.92 598.398 1552.14 599.904 1557.46 601.655C1549.52 622.029 1538.37 642.485 1517.45 651.734C1488.74 664.43 1446.55 652.15 1442.89 617.129C1440.73 607.685 1441.49 579.29 1441.53 568.302L1441.65 489.087C1441.64 481.77 1442.07 462.918 1440.5 456.577C1437.53 454.931 1433.87 455.623 1430.28 455.818C1420.1 455.218 1409.92 455.907 1400.17 455.352L1400.2 440.2Z"/><path fill="#002677" transform="matrix(0.257544 0 0 0.257544 0 -30.9053)" d="M1544.45 716.473C1548.83 716.33 1549.47 715.646 1553.1 717.481C1555.51 721.243 1553.97 733.887 1553.9 739.172C1553.76 753.23 1553.71 767.288 1553.73 781.347L1554.21 914.33C1554.05 940.237 1553.09 967.612 1554.1 993.492C1554.47 1002.87 1559.33 1007.64 1566.11 1013.1C1571.63 1014.45 1579.7 1014.77 1585.56 1015.2C1585.73 1019.83 1585.55 1025.41 1585.51 1030.12C1554.89 1031.15 1519.24 1030.42 1488.25 1030.51C1484.75 1030.6 1484.23 1030.79 1481.06 1029.57C1478.34 1025.44 1479.35 1021.09 1479.5 1015.63C1487.32 1014.05 1497.91 1015.39 1503.74 1009.89C1508.69 1005.21 1509.36 1001.46 1509.47 995.107C1509.79 977.318 1509.57 959.404 1509.52 941.624L1509.38 841.034L1509.49 782.707C1509.51 770.682 1512.03 752.179 1503.33 743.344C1496.99 736.914 1486.49 737.625 1478.1 737.325L1478.45 722.246C1493.2 719.799 1528.04 717.981 1544.45 716.473Z"/><path fill="#002677" transform="matrix(0.257544 0 0 0.257544 0 -30.9053)" d="M2507.36 804.405C2517.86 804.192 2528.35 805.869 2537.36 811.569C2547.12 817.818 2554.03 827.668 2556.58 838.98C2565.07 878.324 2515 891.075 2509.31 851.696C2507.96 842.366 2513.58 837.774 2519.22 831.274L2518.87 829.566C2508.91 819.14 2491.53 828.876 2482.42 835.85C2463.15 850.584 2457.47 874.734 2454.77 897.607C2452.26 918.913 2453.69 940.374 2453.3 961.777C2453.15 967.17 2453.47 973.056 2453.3 978.394C2452.46 1004.81 2456.47 1013.29 2483.63 1015.6L2483.73 1030.01L2455.25 1030.21L2380.3 1030.49C2380.21 1025.4 2380.49 1019.75 2380.64 1014.61C2397.33 1013.04 2411.17 1012.21 2411.1 990.896C2410.8 944.519 2411.38 897.955 2409.87 851.602C2409.1 828.016 2398.71 827.49 2379.46 826.363L2379.64 811.801C2404.72 809.961 2429.2 807.45 2454.39 806.736C2455.3 816.83 2454.88 835.263 2454.99 846.02C2466.96 822.792 2480.88 808.093 2507.36 804.405Z"/><path fill="#002677" transform="matrix(0.257544 0 0 0.257544 0 -30.9053)" d="M1294.19 433.623C1317.22 431.916 1350.04 428.596 1372.53 428.084L1371.58 552.184C1371.32 573.778 1370.23 596.265 1371.85 617.703C1373.2 635.542 1389.43 636.647 1402.68 637.575L1402.47 652.734C1380.95 653.067 1359.42 653.184 1337.89 653.083C1325.59 653.1 1308.7 653.617 1296.68 652.854L1296.48 636.782C1307.28 636.014 1314.91 636.635 1322.77 628.265C1325.41 624.89 1326.79 621.966 1326.93 617.6C1328.05 580.83 1326.98 543.937 1327.94 507.119C1328.27 494.588 1328.77 480.726 1327.94 468.297C1328.98 451.26 1308.25 449.215 1296.11 448.494L1294.19 433.623Z"/><path fill="#FDFEFC" fill-opacity="0.0078431377" transform="matrix(0.257544 0 0 0.257544 0 -30.9053)" d="M491.597 881.631C489.304 872.96 491.934 811.767 491.881 797.428L490.749 392.424C490.768 379.124 489.499 295.805 491.847 289.679L495.038 289.009L495.151 680.254C495.076 708.369 495.302 736.485 495.827 764.596C496.514 803.708 497.665 842.862 491.597 881.631Z"/><path fill="#002677" transform="matrix(0.257544 0 0 0.257544 0 -30.9053)" d="M1342.99 334.938C1358.63 331.948 1373.73 342.266 1376.62 357.933C1379.52 373.6 1369.11 388.631 1353.42 391.43C1337.87 394.205 1323 383.904 1320.13 368.371C1317.26 352.838 1327.47 337.902 1342.99 334.938Z"/><path fill="#FDFEFC" fill-opacity="0.0078431377" transform="matrix(0.257544 0 0 0.257544 0 -30.9053)" d="M398.067 870.419C397.838 868.792 397.661 867.454 397.641 865.795C397.219 831.095 397.99 796.168 398.493 761.487C398.769 722.238 398.847 682.988 398.727 643.738L398.62 431.157C398.568 399.938 398.897 368.786 398.054 337.568C397.968 334.375 398.344 330.444 400.608 328.043L403.775 327.986C401.163 334.201 402.843 381.396 402.757 391.579L402.502 711.834L402.093 801.005C401.971 814.323 401.093 858.394 398.067 870.419Z"/><path fill="#002677" fill-opacity="0.98823529" transform="matrix(0.257544 0 0 0.257544 0 -30.9053)" d="M1033.07 995.369C1029.13 994.293 1031.08 995.064 1027.86 991.655C1026.84 990.576 1026.54 990.008 1026.52 988.532C1026.34 975.691 1026.4 962.718 1026.4 949.883L1026.39 876.358C1026.4 847.613 1024.99 797.998 1027.18 771.527L1027.35 771.993C1028.86 764.071 1026.3 760.46 1033 756.6C1031.38 809.708 1032.14 864.712 1031.98 917.922C1031.93 934.048 1031.04 982.357 1033.07 995.369Z"/><path fill="#FDFEFC" fill-opacity="0.011764706" transform="matrix(0.257544 0 0 0.257544 0 -30.9053)" d="M1256.02 480.654C1261.79 483.842 1261.43 500.471 1261.25 506.965C1260.15 546.977 1263.11 588.323 1262.39 628.129C1260.48 625.328 1258.55 622.602 1258.19 619.195C1256.57 603.866 1256.94 586.832 1256.83 571.342C1256.74 541.112 1256.46 510.882 1256.02 480.654Z"/><path fill="#FDFEFC" fill-opacity="0.011764706" transform="matrix(0.257544 0 0 0.257544 0 -30.9053)" d="M1322.77 628.265C1321.8 600.856 1322.05 486.834 1327.94 468.297C1328.77 480.726 1328.27 494.588 1327.94 507.119C1326.98 543.937 1328.05 580.83 1326.93 617.6C1326.79 621.966 1325.41 624.89 1322.77 628.265Z"/><path fill="#FDFEFC" fill-opacity="0.011764706" transform="matrix(0.257544 0 0 0.257544 0 -30.9053)" d="M1430.28 455.818C1433.87 455.623 1437.53 454.931 1440.5 456.577C1442.07 462.918 1441.64 481.77 1441.65 489.087L1441.53 568.302C1441.49 579.29 1440.73 607.685 1442.89 617.129C1440.9 616.618 1438.5 615.716 1438.38 613.266C1435.97 561.915 1439.19 509.776 1436.84 458.495C1436.8 457.794 1431.17 456.124 1430.28 455.818Z"/><path fill="#FDFEFC" fill-opacity="0.0078431377" transform="matrix(0.257544 0 0 0.257544 0 -30.9053)" d="M1670.4 993.345C1669.89 992.432 1669.42 991.561 1669.04 990.588C1666.66 984.475 1666.61 852.194 1667.33 837.214C1667.4 835.588 1667.9 834.461 1668.59 833.018C1671.46 846.959 1673.12 985.353 1670.4 993.345Z"/><path fill="#FDFEFC" fill-opacity="0.011764706" transform="matrix(0.257544 0 0 0.257544 0 -30.9053)" d="M1816.5 880.3C1818.29 883.057 1817.13 903.382 1817 907.913C1816.28 929.481 1816.04 951.062 1816.27 972.641C1816.42 982.375 1817.71 996.386 1817.44 1005.24C1817.33 1005.04 1817.22 1004.85 1817.11 1004.66C1816.94 1004.33 1816.77 1004 1816.6 1003.68C1816.18 1002.91 1815.75 1002.14 1815.35 1001.36C1809.79 990.513 1811.74 915.716 1812.94 900.769C1813.48 893.983 1814.42 886.778 1816.5 880.3Z"/><path fill="#07266A" fill-opacity="0.87450981" transform="matrix(0.257544 0 0 0.257544 0 -30.9053)" d="M194.627 1069.41C204.228 1071.97 213.846 1074.46 223.482 1076.88L217.156 1077.55L216.411 1078.75L219.119 1083.37C209.57 1079.19 202.872 1075.73 194.627 1069.41Z"/><path fill="#002677" fill-opacity="0.97647059" transform="matrix(0.257544 0 0 0.257544 0 -30.9053)" d="M127.981 982.938C124.322 980.81 110.255 972.77 109.213 969.726C113.36 969.312 121.009 971.88 125.405 973.096C126.804 976.795 127.938 978.969 127.981 982.938Z"/></g></svg>