<?xml version="1.0" encoding="utf-8" ?><svg xmlns="http://www.w3.org/2000/svg" xmlns:xlink="http://www.w3.org/1999/xlink" width="388" height="292" viewBox="0 0 388 292"><clipPath id="cl_7"><rect x="0.00028991699" width="388.30475" height="291.88007"/></clipPath><g clip-path="url(#cl_7)"><path fill="#0181C8" transform="matrix(0.651518 0 0 0.651518 -64.5 -128.349)" d="M233.1 250.266L340.573 250.293C340.889 272.567 340.463 295.158 340.724 317.548L407.961 317.556C408.283 353.621 408.288 389.688 407.976 425.753C400.653 425.436 391.827 425.635 384.421 425.632L340.693 425.622C340.488 443.378 340.846 473.476 340.635 492.079C340.491 492.274 340.346 492.469 340.202 492.664C335.757 492.478 330.539 492.473 326.093 492.581C295.466 493.323 263.953 491.584 233.417 492.73C233.276 489.591 233.286 486.218 233.343 483.063C233.689 463.945 232.965 444.631 233.364 425.534L166.023 425.537C165.487 389.64 165.429 353.737 165.848 317.838C187.987 318.299 211.201 318.036 233.396 317.951C232.783 295.707 233.609 272.685 233.1 250.266Z"/><path fill="#FEFEFE" transform="matrix(0.651518 0 0 0.651518 -64.5 -128.349)" d="M286.324 305.273C294.183 305.173 301.998 306.459 309.41 309.072C326.205 315.044 339.895 327.516 347.4 343.685C338.472 343.631 301.749 344.706 295.835 342.993C293.806 342.405 291.774 341.324 290.841 339.327C288.393 334.086 292.927 329.458 294.578 324.876C295.346 322.742 295.523 320.187 294.414 318.135C293.141 315.781 290.751 314.58 288.274 313.903C286.13 313.954 282.109 314.714 280.809 316.359C275.843 322.85 283.712 329.393 284.156 335.696C284.893 346.168 265.622 343.73 258.356 343.713L226.815 343.615C239.288 319.299 259.089 306.578 286.324 305.273Z"/><path fill="#0181C8" transform="matrix(0.651518 0 0 0.651518 -64.5 -128.349)" d="M302.994 316.678C309.33 318.137 327.864 327.924 330.108 334.074L329.67 334.635L327.378 334.712C318.192 334.756 309.005 334.724 299.819 334.617C303.751 327.7 305.741 324.646 302.994 316.678Z"/><path fill="#0181C8" transform="matrix(0.651518 0 0 0.651518 -64.5 -128.349)" d="M271.085 316.812L271.255 316.982C269.061 326.477 269.85 326.006 274.426 334.599C267.016 335.002 257.136 334.706 249.543 334.704L243.324 334.639C251.645 325.732 259.201 320.172 271.085 316.812Z"/><path fill="#FEFEFE" transform="matrix(0.651518 0 0 0.651518 -64.5 -128.349)" d="M224.852 348.28C233.097 348.962 267.606 351.475 272.468 353.561C274.639 354.493 276.602 356.067 277.376 358.369C278.186 360.78 277.762 363.529 276.982 365.887C275.379 370.735 272.298 375.491 269.892 379.995L256.115 405.723L246.256 424.313C222.474 404.173 215.25 377.902 224.852 348.28Z"/><path fill="#0181C8" transform="matrix(0.651518 0 0 0.651518 -64.5 -128.349)" d="M231.374 357.901C236.819 358.758 265.539 360.031 267.535 362.532C267.086 366.386 254.062 389.957 251.653 394.538C249.094 399.553 246.442 404.521 243.699 409.438C231.225 393.153 227.161 378.307 231.374 357.901Z"/><path fill="#FEFEFE" transform="matrix(0.651518 0 0 0.651518 -64.5 -128.349)" d="M346.717 348.512C350.964 347.919 351.08 352.834 351.816 356.228C357.917 384.337 348.609 405.709 328.244 424.395C325.56 419.24 322.689 414.032 319.935 408.902C315.602 400.475 297.43 369.353 296.642 363.208C296.304 360.567 296.807 357.788 298.587 355.735C299.659 354.498 301.122 353.605 302.687 353.137C307.694 351.642 313.715 351.659 318.912 351.175L346.717 348.512Z"/><path fill="#0181C8" transform="matrix(0.651518 0 0 0.651518 -64.5 -128.349)" d="M335.91 358.592C338.026 358.342 340.907 358.255 343.085 358.136C343.334 359.455 343.563 360.777 343.774 362.102C346.744 381.188 341.654 394.572 330.681 409.575L325.149 399.102C319.451 388.292 313.607 377.406 308.001 366.54C307.295 365.171 306.452 363.344 306.977 361.92C309.672 360.527 331.404 359.024 335.91 358.592Z"/><path fill="#FEFEFE" transform="matrix(0.651518 0 0 0.651518 -64.5 -128.349)" d="M285.893 376.271C287.854 376.321 289.3 376.385 290.602 378.072C294.632 383.292 298.29 389.11 301.944 394.593L323.865 427.333C311.887 434.316 303.006 437.753 288.878 438.138C273.814 438.252 263.442 435.229 250.617 427.368C259.448 412.559 270.647 398.13 279.853 383.45C281.467 380.875 283.394 378.014 285.893 376.271Z"/><path fill="#0181C8" transform="matrix(0.651518 0 0 0.651518 -64.5 -128.349)" d="M286.699 389.28C289.428 390.326 294.615 399.366 296.364 402.06L310.69 424.101C302.814 427.682 296.22 428.64 287.756 429.201C279.426 429.247 271.187 427.469 263.617 423.992C269.898 414.901 275.643 405.426 281.776 396.233C283.366 393.851 284.81 391.445 286.699 389.28Z"/><path fill="#0181C8" transform="matrix(0.651518 0 0 0.651518 -64.5 -128.349)" d="M456.083 247.733C459.537 248.863 463.745 251.192 467.21 252.72C508.359 270.58 554.604 272.839 597.297 259.076C608.126 255.64 614.899 251.596 624.718 247.808C630.869 257.736 635.621 276.257 637.348 287.895C645.975 346.03 631.667 400.375 597.076 447.432C595.77 449.351 591.793 453.929 590.249 455.751C579.239 468.744 565.79 480.023 551.398 489.096C547.825 491.349 543.914 494.181 539.99 495.803C539.254 495.419 538.529 495.018 537.813 494.598C476.647 458.395 442.153 392.914 441.813 322.737C441.701 299.542 444.04 268.213 456.083 247.733Z"/><path fill="#FEFEFE" transform="matrix(0.651518 0 0 0.651518 -64.5 -128.349)" d="M467.158 273.501C513.394 290.174 567.642 290.993 613.771 273.492C616.669 280.846 618.806 288.478 620.148 296.267C628.099 341.677 611.414 395.216 585.445 432.443C572.927 450.338 558.562 462.813 540.436 474.563C512.513 456.379 493.068 434.691 479.03 404.244C459.881 362.713 451.217 317.451 467.158 273.501Z"/><path fill="#0181C8" transform="matrix(0.651518 0 0 0.651518 -64.5 -128.349)" d="M473.592 285.422C479.413 287.29 490.645 289.624 496.697 290.818C534.508 298.279 570.303 295.751 607.387 285.291C608.714 289.578 609.816 293.932 610.688 298.334C616.788 329.699 608.897 368.422 595.869 397.282C590.992 408.086 585.639 417.076 579.055 426.85C569.829 440.165 554.379 457.094 540.317 465.232C487.455 432.543 455.265 344.668 473.592 285.422Z"/><path fill="#FEFEFE" transform="matrix(0.651518 0 0 0.651518 -64.5 -128.349)" d="M550.302 362.331C552.105 361.217 553.477 359.913 553.307 357.649C553.053 353.879 543.748 353.322 540.823 353.371C526.035 353.616 505.701 348.173 504.507 329.746C504.161 324.854 505.849 320.036 509.173 316.43C515.35 309.731 528.005 308.026 536.621 313.396C537.545 313.972 539.878 316.996 540.984 318.035L541.272 318.303L541.876 319.542C540.848 321.332 538.463 321.023 536.512 320.996C532.572 320.726 530.086 320.687 526.14 320.836C528.725 322.743 533.375 323.833 537.214 326.233L537.2 326.781C529.523 331.223 522.943 322.683 518.471 326.197C516.373 330.451 518.786 333.531 522.581 335.483C534.043 341.379 548.076 337.565 559.354 343.835C567.079 348.129 569.864 359.19 565.126 366.654C561.812 371.861 555.835 373.576 550.196 374.828C550.16 370.662 550.196 366.496 550.302 362.331Z"/><path fill="#0181C8" transform="matrix(0.651518 0 0 0.651518 -64.5 -128.349)" d="M525.931 313.193C528.417 312.98 532.893 312.886 534.737 314.757L534.367 315.504C530.452 317.809 529.527 315.433 525.931 313.193Z"/><path fill="#FEFEFE" transform="matrix(0.651518 0 0 0.651518 -64.5 -128.349)" d="M534.543 310.348C534.477 308.492 534.215 307.022 534.986 305.384C537.948 302.687 545.463 307.515 549.591 308.795C550.408 312.758 549.918 316.866 550.669 319.993C552.231 320.219 553.467 319.326 554.691 318.408C557.188 316.537 561.158 312.067 564.538 312.516C566.294 312.75 567.778 314.011 568.67 315.514C569.208 316.422 569.284 317.631 568.942 318.619C567.932 321.534 553.651 333.477 550.099 338.43C545.488 337.541 539.004 337.146 534.159 336.638L534.09 329.83C535.849 329.282 538.489 328.41 539.593 326.873C539.402 325.679 537.79 325.007 536.717 324.414L536.656 324.063C534.582 321.838 536.923 324.26 536.512 320.996C538.463 321.023 540.848 321.332 541.876 319.542L541.272 318.303L542.632 317.665C539.391 313.804 538.87 312.696 534.543 310.348Z"/><path fill="#228ABC" transform="matrix(0.651518 0 0 0.651518 -64.5 -128.349)" d="M542.632 317.665C543.723 319.202 543.988 319.069 544.164 320.681C542.614 322.609 538.504 322.297 536.008 322.605C539.069 323.132 545.991 323.718 547.9 325.691L548.041 326.382C546.346 326.96 540.579 324.527 537.218 324.132L536.656 324.063C534.582 321.838 536.923 324.26 536.512 320.996C538.463 321.023 540.848 321.332 541.876 319.542L541.272 318.303L542.632 317.665Z"/><path fill="#FEFEFE" transform="matrix(0.651518 0 0 0.651518 -64.5 -128.349)" d="M529.621 364.289C532.666 367.156 532.747 375.201 533.75 377.922C537.366 380.043 546.849 379.516 552.244 381.265C565.264 385.485 566.758 399.026 553.903 405.072C550.645 405.855 548.819 406.306 549.149 401.85C549.291 399.933 549.325 397.998 549.341 396.072C550.642 395.126 551.587 394.648 551.637 392.974C549.324 389.846 539.625 390.1 535.487 389.47C521.002 387.264 517.235 372.813 529.621 364.289Z"/><path fill="#FEFEFE" transform="matrix(0.651518 0 0 0.651518 -64.5 -128.349)" d="M536.161 397.312L537.173 396.989C537.865 395.911 537.626 393.734 537.796 392.271C540.973 392.506 544.155 392.691 547.338 392.826C547.415 398.972 547.394 405.118 547.275 411.263C547.114 411.721 546.84 412.595 546.644 412.995C558.297 418.7 562.523 429.468 548.242 435.026C548.121 431.488 548.39 428.652 548.763 425.147C542.015 418.458 528.601 419.431 526.526 409.242C525.137 402.421 529.642 398.383 536.161 397.312Z"/><path fill="#FEFEFE" transform="matrix(0.651518 0 0 0.651518 -64.5 -128.349)" d="M536.161 397.312L537.173 396.989C537.865 395.911 537.626 393.734 537.796 392.271C540.973 392.506 544.155 392.691 547.338 392.826C547.415 398.972 547.394 405.118 547.275 411.263C547.114 411.721 546.84 412.595 546.644 412.995L538.299 409.364C537.685 409.054 537.116 408.678 536.527 408.317C535.439 406.637 536.118 399.855 536.161 397.312Z"/><path fill="#3596CA" transform="matrix(0.651518 0 0 0.651518 -64.5 -128.349)" d="M536.161 397.312L537.173 396.989C537.865 395.911 537.626 393.734 537.796 392.271C538.341 395.755 538.596 403.831 538.353 407.306L538.299 409.364C537.685 409.054 537.116 408.678 536.527 408.317C535.439 406.637 536.118 399.855 536.161 397.312Z"/><path fill="#228ABC" transform="matrix(0.651518 0 0 0.651518 -64.5 -128.349)" d="M538.353 407.306C541.327 408.534 544.45 409.748 547.275 411.263C547.114 411.721 546.84 412.595 546.644 412.995L538.299 409.364L538.353 407.306Z"/><path fill="#FEFEFE" transform="matrix(0.651518 0 0 0.651518 -64.5 -128.349)" d="M534.538 355.277C539.358 355.416 543.272 355.64 548.06 356.251C548.052 359.069 548.275 376.697 547.56 377.737L546.205 377.652C542.931 377.345 539.712 377.191 536.431 377.019C535.709 372 532.513 364.993 530.52 360.07C532.262 358.318 533.86 357.421 534.538 355.277Z"/><path fill="#FEFEFE" transform="matrix(0.651518 0 0 0.651518 -64.5 -128.349)" d="M538.728 421.666C542.168 422.783 543.692 423.722 546.454 425.842C546.718 430.183 546.501 448.37 545.798 451.92C543.817 452.773 541.827 453.16 540.002 451.747C538.987 449.788 538.785 425.878 538.728 421.666Z"/><path fill="#FEFEFE" transform="matrix(0.651518 0 0 0.651518 -64.5 -128.349)" d="M536.798 431.555C537.542 432.87 537.46 437.705 537.512 439.525C535.09 442.193 535.889 443.489 535.161 447.377C534.157 448.524 534.8 448.139 533.009 448.28C528.822 441.511 531.261 436.288 536.798 431.555Z"/><path fill="#221E22" transform="matrix(0.651518 0 0 0.651518 -64.5 -128.349)" d="M403.1 554.367C408.326 554.062 424.784 552.71 426.403 558.942C428.001 565.089 425.072 567.814 419.612 569.437C424.314 571.017 425.938 571.353 428.866 575.449C429.683 582.132 428.802 584.166 422.995 587.453C419.978 588.422 399.484 589.299 398.046 587.61L398.47 586.895C399.847 585.897 400.92 586.18 402.719 586.26C402.574 582.887 402.558 556.932 402.284 556.435C400.912 556.331 399.546 556.44 398.542 555.625L398.49 554.808C399.617 554.278 401.766 554.393 403.1 554.367ZM410.533 586.195C414.325 586.312 416.125 586.692 419.07 584.059C419.988 582.445 420.379 581.767 421.038 580.055C420.249 571.474 418.966 571.234 410.511 570.777C410.444 575.97 410.359 581.002 410.533 586.195ZM410.487 568.968C413.396 568.946 414.77 569.104 417.386 567.712C420.736 560.2 418.386 556.732 410.518 556.363C410.722 560.703 410.405 564.712 410.487 568.968Z"/><path fill="#1B1A1B" transform="matrix(0.651518 0 0 0.651518 -64.5 -128.349)" d="M531.275 554.358C532.598 554.244 533.037 554.258 534.322 554.316C534.795 555.764 534.777 564.558 534.814 566.858C547.132 559.806 551.443 567.768 550.563 579.023C550.402 581.085 550.564 584.015 550.558 586.173C552.628 586.306 554.819 586.221 556.902 586.19C557.133 580.134 556.963 573.141 556.955 567.015C555.48 566.794 554.315 566.826 553.396 565.924C554.804 564.794 561.795 564.838 564.15 564.655L564.131 575.358C564.103 576.947 563.749 583.904 564.447 585.732C564.603 586.14 566.324 585.828 567.243 587.345C565.938 589.41 534.089 587.767 529.568 588.086C528.38 588.17 525.25 587.923 524.209 587.23C524.864 586.528 526.237 586.487 527.416 586.239C527.768 585.069 527.615 558.783 527.056 557.392C525.76 556.286 525.973 556.615 524.06 556.228L523.884 555.629L524.497 554.863C526.46 554.152 529.107 554.358 531.275 554.358ZM534.907 586.073C536.097 586.218 537.867 586.494 539.022 586.512C540.235 586.37 541.834 586.365 542.711 585.626C543.548 582.458 543.519 577.757 543.314 574.486C543.069 570.569 542.941 567.2 538.388 567.405C536.94 568.689 536.252 569.296 535.009 570.752C534.654 575.956 534.395 580.839 534.907 586.073Z"/><path fill="#1B1A1B" transform="matrix(0.651518 0 0 0.651518 -64.5 -128.349)" d="M167.746 554.695C174.317 554.29 182.035 554.27 188.589 554.593C193.341 554.827 196.877 558.933 195.581 563.679C194.73 566.794 192.204 568.051 189.595 569.564C196.79 572.172 201.18 579 195.369 585.342C193.013 586.882 192.341 587.212 189.514 587.733C185.946 588.389 170.235 588.736 168.024 587.127C168.906 586.352 170.488 586.464 171.746 586.39C172.067 576.66 172.311 566.273 171.682 556.573C169.858 556.456 168.792 556.618 167.57 555.6L167.746 554.695ZM187.879 583.805C190.546 580.006 190.628 574.367 186.33 571.901C184.047 570.59 182.211 570.881 179.711 570.924C179.663 577.065 176.859 592.39 187.879 583.805ZM186.555 567.329C189.361 559.948 187.49 556.624 179.669 556.483C179.736 560.513 179.78 564.544 179.802 568.576C182.738 568.682 184.146 569.053 186.555 567.329Z"/><path fill="#1B1A1B" transform="matrix(0.651518 0 0 0.651518 -64.5 -128.349)" d="M628.367 554.341C629.97 554.286 630.223 553.98 631.26 554.712C631.647 557.644 631.473 562.767 631.473 565.916L631.477 586.264C632.979 586.327 633.898 586.231 635.238 586.914L635.364 587.613C633.496 588.981 627.007 588.638 624.475 588.623C624.094 588.621 624.142 586.85 623.009 587.412C618.842 589.479 616.816 589.254 612.34 587.848C605.199 582.875 605.016 568.972 613.547 565.312C615.699 564.39 619.143 563.958 621.334 564.843L624.017 565.933C623.966 563.926 623.861 561.303 623.932 559.335C624.103 554.559 622.989 557.902 620.917 555.762L620.948 554.974C621.936 554.293 626.676 554.418 628.367 554.341ZM620.36 586.355C626.085 583.043 626.336 566.973 618.404 566.957C613.052 569.477 612.797 584.053 618.821 586.045C619.11 586.14 620.067 586.296 620.36 586.355Z"/><path fill="#3596CA" transform="matrix(0.651518 0 0 0.651518 -64.5 -128.349)" d="M595.533 494.118C575.173 494.169 579.57 466.319 595.957 468.913C608.263 470.862 612.149 484.558 601.144 492.548C598.968 493.295 597.845 493.683 595.533 494.118ZM600.487 489.593C604.418 486.695 605.663 481.373 603.424 477.033C601.186 472.693 596.128 470.621 591.488 472.144C586.849 473.667 584.002 478.333 584.771 483.156C585.54 487.978 589.697 491.527 594.58 491.531C596.706 491.533 598.776 490.854 600.487 489.593Z"/><path fill="#3596CA" transform="matrix(0.651518 0 0 0.651518 -64.5 -128.349)" d="M592.026 474.221C595.861 473.89 599.483 473.552 601.787 477.278C602.355 480.208 600.274 481.361 597.974 482.41C598.998 484.641 601.196 486.674 600.148 488.935C598.948 488.94 598.82 488.722 597.793 488.094C597.031 486.391 595.762 483.362 594.077 482.524C592.064 482.943 592.737 486.945 590.885 488.932L590.287 488.928C589.207 487.467 588.97 477.088 589.954 474.905C590.145 474.48 591.541 474.326 592.026 474.221ZM596.682 480.018C598.106 479.785 597.654 480.147 598.341 479.247C598.096 476.361 596.42 476.391 594.085 476.494C592.858 477.251 592.59 477.316 591.877 478.602C592.5 480.645 594.838 480.103 596.682 480.018Z"/><path fill="#228ABC" transform="matrix(0.651518 0 0 0.651518 -64.5 -128.349)" d="M600.487 489.593C600.264 491.695 600.05 490.745 601.144 492.548C598.968 493.295 597.845 493.683 595.533 494.118L594.58 491.531C596.706 491.533 598.776 490.854 600.487 489.593Z"/><path fill="#3596CA" transform="matrix(0.651518 0 0 0.651518 -64.5 -128.349)" d="M365.641 493.704C361.148 493.879 357.372 492.913 354.529 489.127C350.522 483.793 351.201 475.223 356.906 471.313C361.058 468.467 364.855 468.839 369.513 469.643C382.4 476.086 377.759 494.506 365.641 493.704ZM360.703 490.417C359.281 484.747 359.463 480.546 359.854 474.759C364.184 473.725 366.586 474.843 369.494 474.319C373.881 477.744 371.127 480.428 367.67 482.764C368.709 484.98 370.41 485.716 371.053 487.833L370.784 488.472C369.197 488.93 369.97 488.917 368.375 488.525C365.245 485.732 367.941 483.012 362.984 482.25L362.687 481.638C364.183 479.886 367.311 480.958 369.061 478.454C368.948 477.381 368.334 476.738 367.445 476.163C365.839 476.252 363.888 476.296 362.328 476.521C362.167 480.731 362.417 486.726 361.108 490.514C362.082 491.566 363.665 491.626 365.126 491.822C377.572 490.214 377.539 473.87 366.67 471.284C362.949 471.296 360.957 471.518 358.171 474.24C354.505 477.82 353.456 485.296 357.798 488.755C358.846 489.591 359.328 490.249 360.703 490.417Z"/><path fill="#228ABC" transform="matrix(0.651518 0 0 0.651518 -64.5 -128.349)" d="M360.703 490.417C359.281 484.747 359.463 480.546 359.854 474.759C360.314 475.082 362.004 476.22 362.328 476.521C362.167 480.731 362.417 486.726 361.108 490.514L360.703 490.417Z"/><path fill="#228ABC" transform="matrix(0.651518 0 0 0.651518 -64.5 -128.349)" d="M369.513 469.643C382.4 476.086 377.759 494.506 365.641 493.704C363.555 493.132 361.954 492.935 360.022 491.935C362.528 492.446 363.168 492.947 365.126 491.822C377.572 490.214 377.539 473.87 366.67 471.284C367.644 470.787 368.574 470.206 369.513 469.643Z"/><path fill="#1B1A1B" transform="matrix(0.651518 0 0 0.651518 -64.5 -128.349)" d="M330.627 564.698C337.262 562.924 344.076 566.877 345.829 573.517C347.582 580.157 343.608 586.959 336.963 588.691C330.346 590.416 323.582 586.464 321.836 579.853C320.09 573.242 324.022 566.465 330.627 564.698ZM335.384 586.725C337.247 585.31 338.18 583.815 338.254 581.42C338.415 576.18 340.182 566.601 332.711 566.553C328.841 569.067 329.159 573.209 329.03 577.457C328.89 582.088 329.324 586.362 334.585 586.671L335.384 586.725Z"/><path fill="#1B1A1B" transform="matrix(0.651518 0 0 0.651518 -64.5 -128.349)" d="M213.345 565.019C216.63 564.942 220.123 564.993 223.427 564.983C223.192 569.109 221.799 583.356 224.874 585.772C231.361 587.301 231.56 579.641 231.518 575.207C231.498 573.082 231.725 569.144 230.866 567.218C229.574 566.974 229.2 566.911 227.923 566.466L227.908 565.833C229.66 564.522 236.056 564.969 238.583 564.995L238.552 569.656C238.52 574.953 238.427 580.274 238.666 585.564C239.559 586.6 239.641 586.308 241.339 586.678L241.771 587.355L241.343 587.941C239.772 588.159 232.779 588.507 231.477 587.915L231.362 586.143L230.986 585.993C227.702 588.632 224.133 589.79 219.918 588.104C213.013 585.343 217.896 572.197 215.633 567.159C214.567 566.91 213.621 566.715 212.544 566.511L212.398 565.909L213.345 565.019Z"/><defs><linearGradient id="gradient_0" gradientUnits="userSpaceOnUse" x1="501.20691" y1="584.6889" x2="520.83844" y2="557.73254"><stop offset="0" stop-color="#0E0D0E"/><stop offset="1" stop-color="#2D2B2C"/></linearGradient></defs><path fill="url(#gradient_0)" transform="matrix(0.651518 0 0 0.651518 -64.5 -128.349)" d="M504.308 583.575L504.732 583.925C507.258 585.973 509.766 586.917 512.906 586.43C518.487 585.565 520.04 579.448 514.339 576.661C509.152 574.126 502.321 572.84 500.221 566.989C498.467 561.412 501.747 555.415 507.621 554.308C510.938 553.683 515.25 553.721 518.457 554.944C520.883 556.039 521.993 561.823 520.426 563.928C517.617 563.366 514.606 552.633 507.499 556.978C505.248 558.354 504.252 561.745 506.473 563.545C511.952 567.989 522.437 568.456 523.63 577.116C523.766 584.231 517.617 588.816 511.075 588.723C508.735 588.703 506.399 588.522 504.083 588.181L504.308 583.575Z"/><path fill="#1B1A1B" transform="matrix(0.651518 0 0 0.651518 -64.5 -128.349)" d="M580.111 564.288C588.289 564.659 590.826 567.92 591.628 575.833C586.763 575.931 581.418 575.795 576.507 575.789C576.532 578.772 576.306 586.275 581.184 586.368C585.34 586.446 587.594 583.444 590.337 580.848L590.899 581.773C590.866 582.546 590.712 583.591 590.196 584.2C579.311 597.053 561.816 582.383 570.855 568.882C572.865 565.879 576.676 564.764 580.111 564.288ZM576.419 573.756L582.003 573.905L583.696 573.624C584.997 571.588 583.49 568.045 581.65 566.748C581.094 566.357 580.106 566.41 579.396 566.352C576.682 568.854 576.756 569.942 576.419 573.756Z"/><path fill="#080708" transform="matrix(0.651518 0 0 0.651518 -64.5 -128.349)" d="M483.273 564.623C494.912 563.56 504.799 576.09 491.985 575.843C489.18 575.788 484.882 575.779 482.102 575.747C482.297 579.137 481.962 582.75 484.732 585.185C488.43 588.436 492.265 584.921 494.572 582.296C495.222 581.572 495.188 581.622 496.067 581.19L496.683 581.556C496.966 583.882 494.073 586.99 492.119 587.9C489.407 589.164 484.817 589.084 482.021 588.153C478.991 587.143 476.538 584.883 475.284 581.945C471.866 574.123 475.846 567.604 483.273 564.623ZM488.075 573.801L489.632 573.54C490.989 571.087 489.34 567.839 487.069 566.631L485.305 566.477C483.624 568.231 482.624 569.268 482.502 571.72C483.758 574.39 485.415 573.87 488.075 573.801Z"/><path fill="#1B1A1B" transform="matrix(0.651518 0 0 0.651518 -64.5 -128.349)" d="M299.085 586.319C292.545 588.456 283.925 590.352 277.395 587.02C273.669 585.085 270.912 581.692 269.78 577.649C267.31 569.089 270.337 557.678 279.774 555.013C281.497 555.388 281.703 555.272 283.491 554.953C284.519 555.459 284.168 555.063 284.711 555.999C277.729 558.391 277.484 564.319 277.069 570.654C276.737 575.713 278.106 583.127 282.87 585.802C284.927 586.94 287.366 587.167 289.597 586.428C296.016 584.271 296.144 577.009 298.473 576.313L298.95 576.782C299.595 579.456 299.307 583.549 299.085 586.319Z"/><path fill="#1B1A1B" transform="matrix(0.651518 0 0 0.651518 -64.5 -128.349)" d="M601.531 588.343C599.593 588.416 593.687 588.907 592.257 587.935C592.616 587.089 592.626 586.995 592.651 586.104L592.666 585.366C593.718 586.516 593.078 586.165 594.695 586.374L595.296 585.84C595.593 583.359 595.539 559.357 595.166 556.768C593.703 556.144 593.374 556.584 592.151 555.391L592.342 554.785C594.39 554.171 600.565 554.191 602.96 554.121C602.913 557.672 602.732 584.734 603.366 586.065L604.926 586.497L606.199 586.819L606.463 587.434C604.951 588.541 603.345 588.405 601.531 588.343Z"/><path fill="#080708" transform="matrix(0.651518 0 0 0.651518 -64.5 -128.349)" d="M604.926 586.497L606.199 586.819L606.463 587.434C604.951 588.541 603.345 588.405 601.531 588.343L600.2 587.605L600.592 587.18C602.222 587.033 603.312 586.816 604.926 586.497Z"/><path fill="#1B1A1B" transform="matrix(0.651518 0 0 0.651518 -64.5 -128.349)" d="M429.887 554.687C432.706 554.406 437.491 554.53 440.456 554.518C441.011 564.599 440.786 574.719 440.849 584.813C441.014 585.073 441.179 585.333 441.343 585.592C443.064 586.149 443.577 585.964 443.592 587.767C442.385 588.623 442.215 588.32 440.412 588.384C438.116 588.429 431.471 588.902 430.012 587.796L429.966 587.079C430.936 586.306 431.914 586.26 433.224 585.94C434.037 583.624 433.209 560.274 433.143 556.381C432.081 556.123 431.335 555.904 430.308 555.58L429.887 554.687Z"/><path fill="#1B1A1B" transform="matrix(0.651518 0 0 0.651518 -64.5 -128.349)" d="M198.44 554.645C201.282 554.401 206.45 554.578 209.462 554.591C209.494 562.416 209.307 576.559 209.662 584.894C209.891 585.192 210.12 585.49 210.349 585.787C211.441 586.137 211.693 586.178 212.708 586.759L212.705 587.584C211.841 588.281 210.699 588.095 209.504 588.105C207.584 588.118 199.971 588.606 198.975 587.295C199.714 586.211 200.902 586.053 202.225 585.624L202.287 556.943L201.569 556.307C199.425 556.351 199.243 556.614 198.44 554.645Z"/><path fill="#1B1A1B" transform="matrix(0.651518 0 0 0.651518 -64.5 -128.349)" d="M354.421 564.595C358.736 564.375 360.393 564.524 364.376 566.15C364.36 567.827 364.427 570.286 363.776 571.771C362.232 571.515 359.914 566.596 357.458 566.371C355.118 566.157 353.909 566.83 353.406 569.029C354.822 572.505 361.632 572.824 364.122 575.537C370.091 582.041 363.836 588.301 356.648 588.864C354.305 588.722 350.52 588.843 348.809 587.01C347.578 585.691 347.559 580.723 348.919 579.739C350.358 581.417 355.318 591.381 360.671 584.765C362.222 581.844 355.631 579.8 354.326 579.142C346.368 575.128 345.956 567.974 354.421 564.595Z"/><path fill="#1B1A1B" transform="matrix(0.651518 0 0 0.651518 -64.5 -128.349)" d="M250.678 575.242C249.746 596.245 263.926 581.471 265.58 581.297L265.7 581.871C264.156 586.749 261.659 588.157 256.755 588.743C238.998 590.864 238.145 563.788 255.938 564.503C258.482 564.606 261.435 565.566 263.183 567.525L263.026 568.223L263.309 568.658C264.44 570.428 265.544 572.42 265.434 574.581C264.451 575.201 260.207 574.884 258.835 574.809L258.564 574.351C259.739 571.705 258.491 567.929 255.788 566.5C251.311 566.353 251.174 570.738 250.718 574.15L256.879 574.284C254.657 574.734 251.784 574.344 250.789 574.862L250.678 575.242Z"/><path fill="#1B1A1B" transform="matrix(0.651518 0 0 0.651518 -64.5 -128.349)" d="M290.551 554.275C299.532 556.195 299.189 556.125 299.167 565.081C302.165 564.901 308.657 564.026 310.868 565.658L311.58 567.659L312.612 568.601C311.103 573.14 311.202 580.226 311.344 585.16C311.41 587.43 312.569 585.453 314.462 586.683L314.342 587.707C312.682 588.755 302.939 588.399 300.699 588.06L300.597 587.517C301.205 587.112 303.824 585.463 303.834 584.687C303.914 578.804 303.775 573.026 303.998 567.127C303.439 567.059 297.454 565.422 297.649 565.683C293.776 560.492 295.63 558.547 288.729 556.051L288.952 554.819L290.551 554.275Z"/><path fill="#1B1A1B" transform="matrix(0.651518 0 0 0.651518 -64.5 -128.349)" d="M369.531 576.204C368.375 571.344 367.424 568.438 372.076 565.298L373.575 567.233C372.752 572.107 377.826 572.424 381.689 573.534C384.651 575.353 385.526 577.47 386.428 580.821C384.6 588.922 378.422 589.894 371.09 588.249C370.833 588.165 369.793 587.854 369.535 587.691C367.537 586.421 367.147 582.099 368.377 580.377L369.147 580.406C369.557 580.733 372.79 585.458 373.645 586.613C374.029 586.623 374.413 586.631 374.796 586.636C376.946 586.66 381.042 586.842 380.783 583.825C378.761 580.564 372.929 578.989 369.531 576.204Z"/><path fill="#080708" transform="matrix(0.651518 0 0 0.651518 -64.5 -128.349)" d="M371.09 588.249C370.833 588.165 369.793 587.854 369.535 587.691C367.537 586.421 367.147 582.099 368.377 580.377L369.147 580.406C369.557 580.733 372.79 585.458 373.645 586.613L372.947 586.753C371.633 585.703 371.403 585.554 369.759 585.225L369.056 585.573L368.866 586.158C369.998 587.185 372.539 587.592 374.195 588.037L371.09 588.249Z"/><path fill="#1B1A1B" transform="matrix(0.651518 0 0 0.651518 -64.5 -128.349)" d="M459.379 588.187C442.505 592.925 448.734 576.293 447.055 567.514C446.946 566.942 444.776 567.008 443.881 566.736L443.532 565.995L444.126 565.236C446.741 564.475 451.681 564.795 454.541 564.846C454.587 569.976 453.831 581.845 455.74 585.557C459.652 586.207 460.709 585.564 462.575 582.193C463.774 583.03 463.349 582.496 463.892 583.856C463.475 585.2 463.865 584.694 462.714 585.449C461.516 586.676 460.909 587.522 459.379 588.187Z"/><path fill="#080708" transform="matrix(0.651518 0 0 0.651518 -64.5 -128.349)" d="M462.575 582.193C463.774 583.03 463.349 582.496 463.892 583.856C463.475 585.2 463.865 584.694 462.714 585.449C461.516 586.676 460.909 587.522 459.379 588.187C457.751 588.203 456.114 588.434 454.873 587.498C455.037 586.131 454.822 586.782 455.74 585.557C459.652 586.207 460.709 585.564 462.575 582.193Z"/><path fill="#1B1A1B" transform="matrix(0.651518 0 0 0.651518 -64.5 -128.349)" d="M462.575 582.193C462.568 578.509 462.889 570.526 462.407 567.322C460.704 566.26 461.107 567.845 459.319 566.4L459.316 565.763C461.307 564.484 467.382 564.967 470.065 565.024C469.907 570.478 469.649 580.769 470.168 585.93C471.008 586.625 472.127 586.464 473.298 586.497L473.475 587.014C472.049 588.815 465.107 589.114 463.262 588.12C462.658 587.151 462.752 586.591 462.714 585.449C463.865 584.694 463.475 585.2 463.892 583.856C463.349 582.496 463.774 583.03 462.575 582.193Z"/><path fill="#080708" transform="matrix(0.651518 0 0 0.651518 -64.5 -128.349)" d="M311.58 567.659C313.413 564.883 316.813 563.503 319.734 565.526C320.674 566.17 321.312 567.168 321.503 568.291C321.713 569.593 321.533 570.405 321.098 571.594C319.819 572.968 317.534 573.581 316.102 571.942C314.823 570.478 315.694 568.143 314.181 567.216C313.232 567.768 313.292 567.733 312.612 568.601L311.58 567.659Z"/><path fill="#080708" transform="matrix(0.651518 0 0 0.651518 -64.5 -128.349)" d="M558.475 554.37C559.744 553.704 561.276 553.779 562.474 554.567C563.672 555.355 564.348 556.731 564.239 558.16C564.13 559.59 563.254 560.848 561.95 561.445C560.008 562.336 557.71 561.517 556.768 559.6C555.827 557.682 556.583 555.363 558.475 554.37Z"/><path fill="#3596CA" transform="matrix(0.651518 0 0 0.651518 -64.5 -128.349)" d="M369.494 474.319C373.881 477.744 371.127 480.428 367.67 482.764C368.709 484.98 370.41 485.716 371.053 487.833L370.784 488.472C369.197 488.93 369.97 488.917 368.375 488.525C365.245 485.732 367.941 483.012 362.984 482.25L362.687 481.638C364.183 479.886 367.311 480.958 369.061 478.454C368.948 477.381 368.334 476.738 367.445 476.163C368.171 475.248 368.572 475.042 369.494 474.319Z"/><path fill="#221E22" transform="matrix(0.651518 0 0 0.651518 -64.5 -128.349)" d="M372.076 565.298C378.331 563.139 387.738 564.551 383.166 573.249L382.274 572.205L382.154 571.813C380.644 567.03 378.528 565.542 373.575 567.233L372.076 565.298Z"/><path fill="#080708" transform="matrix(0.651518 0 0 0.651518 -64.5 -128.349)" d="M499.773 586.596C499.501 582.473 499.219 579.372 499.94 575.3C501.689 578.21 502.301 580.55 504.308 583.575L504.083 588.181L499.773 586.596Z"/><path fill="#080708" fill-opacity="0.98431373" transform="matrix(0.651518 0 0 0.651518 -64.5 -128.349)" d="M263.183 567.525C266.007 569.799 265.835 571.804 266.48 575.539C263.594 575.648 253.512 575.654 250.678 575.242L250.789 574.862C251.784 574.344 254.657 574.734 256.879 574.284L258.564 574.351L258.835 574.809C260.207 574.884 264.451 575.201 265.434 574.581C265.544 572.42 264.44 570.428 263.309 568.658L263.026 568.223L263.183 567.525Z"/><path fill="#3596CA" transform="matrix(0.651518 0 0 0.651518 -64.5 -128.349)" d="M359.854 474.759C364.184 473.725 366.586 474.843 369.494 474.319C368.572 475.042 368.171 475.248 367.445 476.163C365.839 476.252 363.888 476.296 362.328 476.521C362.004 476.22 360.314 475.082 359.854 474.759Z"/><defs><linearGradient id="gradient_1" gradientUnits="userSpaceOnUse" x1="386.3063" y1="576.58887" x2="383.68848" y2="577.63855"><stop offset="0" stop-color="#FAFBFB" stop-opacity="0"/><stop offset="1" stop-color="#FEFEFF" stop-opacity="0.035294119"/></linearGradient></defs><path fill="url(#gradient_1)" transform="matrix(0.651518 0 0 0.651518 -64.5 -128.349)" d="M382.274 572.205L383.166 573.249L384.202 573.224C386.04 575.227 388.213 579.432 386.822 582.017L386.428 580.821C385.526 577.47 384.651 575.353 381.689 573.534L382.274 572.205Z"/><path fill="#221E22" transform="matrix(0.651518 0 0 0.651518 -64.5 -128.349)" d="M279.774 555.013C283.705 553.758 286.475 554.047 290.551 554.275L288.952 554.819L288.729 556.051C287.06 555.676 286.455 555.836 284.711 555.999C284.168 555.063 284.519 555.459 283.491 554.953C281.703 555.272 281.497 555.388 279.774 555.013Z"/></g></svg>