<?xml version="1.0" encoding="utf-8" ?><svg xmlns="http://www.w3.org/2000/svg" xmlns:xlink="http://www.w3.org/1999/xlink" width="720" height="137" viewBox="0 0 720 137"><path fill="#1B3861" transform="scale(0.358511 0.358511)" d="M528.064 43.6585L562.685 43.5521L667.844 260.548C679.783 240.412 695.667 206.512 706.204 184.955C728.982 138.046 751.496 91.01 773.745 43.8479C785.626 43.3605 799.805 43.6717 811.867 43.6186C813.664 52.1282 815.276 68.3332 816.424 77.315L824.669 142.267L851.715 354.622L776.987 354.652C776.329 337.142 774.131 315.968 772.753 298.286C770.334 265.858 767.618 233.454 764.604 201.076C762.922 182.697 761.031 164.339 758.931 146.003C745.842 171.874 732.881 199.938 720.222 226.221L658.561 354.575L639.369 354.647C623.993 327.972 610.603 293.94 596.398 265.919C577.472 228.585 560.235 189.945 541.538 152.387C537.819 172.518 534.762 207.635 532.684 228.488C528.473 270.495 524.745 312.549 521.502 354.642L478.296 354.66C483.091 328.134 486.939 299.687 491.041 272.938L513.051 129.748C516.828 105.153 521.34 67.5551 526.348 44.5389L528.064 43.6585Z"/><path fill="#1B3861" transform="scale(0.358511 0.358511)" d="M1254.7 13.6946C1275.15 12.6165 1302.65 13.1981 1323.4 13.6102C1322.18 126.623 1323.57 241.406 1323.34 354.604L1257.44 354.63C1258.95 342.747 1259.76 328.08 1260.65 315.984C1238.91 354.408 1225.67 361.673 1181.29 359.046C1179.47 358.713 1177.66 358.355 1175.86 357.973C1109.58 343.857 1100.25 266.503 1111.17 210.835C1116.05 185.998 1129.16 161.11 1150.11 146.358C1175.46 128.518 1214.96 125.754 1240.57 144.497C1248.61 150.37 1253.46 157.334 1258.78 165.621C1258.43 114.957 1257.06 64.3046 1254.7 13.6946ZM1221.07 331.596C1231.83 327.955 1241.89 320.5 1246.25 309.451C1260.1 274.279 1262.53 227.198 1252.12 190.888C1246.5 171.297 1232.93 160.205 1212.61 161.339C1166.83 174.85 1171.63 261.915 1180.73 299.02C1185.61 318.92 1199.07 334.577 1221.07 331.596Z"/><path fill="#1B3861" transform="scale(0.358511 0.358511)" d="M1809.35 132.003C1828.07 128.862 1861.15 136.247 1876.21 148.052C1885.39 155.34 1892.08 165.31 1895.35 176.577C1898.88 188.31 1899.06 205.009 1899.23 217.404C1899.34 237.13 1899.34 256.857 1899.23 276.583C1899.19 300.989 1893.33 339.492 1929.04 334.94C1895.86 361.145 1861.74 371.035 1840.42 326.024C1821.68 347.667 1805.32 361.709 1775.25 359.815C1759.75 358.838 1750.47 355.545 1737.52 347.186C1716.46 329.641 1710.44 302.118 1720.27 276.581C1734.59 239.396 1783.85 238.051 1815.57 225.961C1822.64 223.266 1830.57 217.507 1833.25 209.931C1844.21 172.788 1803.75 150.721 1772.61 164.994C1756.77 172.257 1748.14 184.263 1742.29 199.267L1729.59 163.398C1756.38 142.178 1775.46 134.196 1809.35 132.003ZM1789.06 322.769C1811.11 340.24 1837.17 319.176 1837.93 294.203C1838.52 275.1 1839.31 255.916 1838.95 236.778L1838.1 235.777C1802.5 249.129 1774.3 258.004 1780.95 303.671C1781.93 310.377 1784.37 317.699 1789.06 322.769Z"/><path fill="#1B3861" transform="scale(0.358511 0.358511)" d="M977.364 132.028C1003.61 129.41 1035.64 139.831 1053.11 159.992C1075.01 185.264 1077.27 215.629 1075.52 247.368C1048.09 246.623 1020.66 246.29 993.22 246.368C977.441 246.289 960.078 245.691 944.484 246.082C944.445 267.455 946.848 290.395 960.06 307.931C985.05 341.102 1026.67 335.687 1056.86 313.28C1058.02 312.159 1058.71 311.974 1060.21 311.376C1061.95 316.028 1058.9 333.354 1058.08 339.258C1035.31 352.305 1021.84 357.892 995.397 359.6C927.452 363.839 880.659 321.754 878.338 253.265C876.079 186.607 906.333 134.903 977.364 132.028ZM945.427 224.818L982.674 224.799L1014.41 224.805C1013.19 202.357 1011.8 149.19 978.667 151.152C977.835 151.2 977.005 151.28 976.179 151.392C949.594 161.834 945.326 199.555 945.427 224.818Z"/><path fill="#1B3861" transform="scale(0.358511 0.358511)" d="M1612.39 132.006C1638.81 129.217 1671.95 137.666 1694.59 151.208C1687.07 166.695 1678.24 182.691 1670.41 198.26C1666.57 181.095 1659.55 163.304 1642.38 156.363C1614.26 144.991 1586.62 160.547 1575.89 187.838C1564.03 218.353 1562.51 259.194 1574.3 290.056C1588.94 328.405 1629.08 337.969 1664.54 323.643C1672.89 319.63 1677.01 316.097 1683.69 309.716C1682.6 320.172 1681.63 330.844 1680.06 341.224C1662.19 351.966 1641.98 358.217 1621.17 359.442C1588.89 361.183 1556.75 354.889 1531.91 332.619C1488.36 293.571 1487.29 211.018 1525.76 168.215C1548.47 142.947 1579.5 133.679 1612.39 132.006Z"/><path fill="#1B3861" transform="scale(0.358511 0.358511)" d="M1382.68 137.295C1410.49 140.276 1423.6 140.414 1451.22 137.191C1450.49 208.724 1450.73 283.116 1451.27 354.662C1428.79 354.243 1405.36 354.572 1382.81 354.576C1382.34 282.329 1383.47 209.309 1382.68 137.295Z"/><path fill="#1B3861" transform="scale(0.358511 0.358511)" d="M1409.67 26.9915C1428.96 22.7155 1448.05 34.9549 1452.25 54.2886C1456.44 73.6222 1444.14 92.6843 1424.81 96.802C1405.59 100.896 1386.68 88.6649 1382.51 69.4429C1378.35 50.2209 1390.49 31.2428 1409.67 26.9915Z"/><path fill="#1BA08E" transform="scale(0.358511 0.358511)" d="M0 197.716C1.50665 182.981 2.12796 171.249 5.23739 156.586C14.9135 112.646 39.2659 73.3225 74.275 45.1061C115.494 11.5046 168.477 -4.09233 221.303 1.82509C273.593 7.41506 321.512 33.6083 354.481 74.6232C387.765 115.663 403.258 168.331 397.504 220.88C391.828 273.149 365.77 321.062 324.997 354.2C313.915 363.19 290.096 379.043 276.648 383L274.229 383C266.584 379.934 209.883 331.949 199.536 323.462C187.466 333.414 133.62 379.816 124.07 383L123.353 383C109.754 379.345 85.882 363.629 74.7222 354.639C38.8554 325.615 14.1108 285.073 4.67898 239.879C1.69845 224.854 1.61393 213.577 0 198.701L0 197.716ZM120.536 345.076C137.337 331.051 156.143 314.881 173.376 301.634C155.571 287.301 100.76 244.528 89.6554 229.061C82.6444 219.391 78.2724 208.059 76.9707 196.181C72.7645 157.503 102.77 120.538 141.316 116.476C159.786 114.439 178.295 119.95 192.652 131.76C195.042 133.706 197.25 135.563 199.694 137.468L207.784 130.449C241.721 106.088 284.783 113.215 309.099 147.256C320.182 162.524 324.708 181.595 321.668 200.222C319.914 210.685 315.492 221.562 309.129 230.078C298.811 243.886 242.32 289.627 225.734 301.491L278.834 344.935C319.424 321.457 347.43 287.205 359.619 241.506C370.768 199.345 364.73 154.478 342.835 116.774C320.638 78.5869 284.208 50.7821 241.547 39.4675C228.879 36.1203 196.18 31.7119 184.744 34.7767C139.261 39.5073 100.023 59.8657 71.0405 95.5915C43.4266 129.59 30.4529 173.187 34.9797 216.771C39.7543 260.525 61.5971 300.622 95.7547 328.334C103.805 334.867 111.58 339.899 120.536 345.076ZM199.619 279.733C213.971 267.978 229.253 255.844 243.299 243.836C259.759 230.506 286.633 213.462 288.819 192.41C289.748 182.524 286.691 172.677 280.329 165.059C265.863 147.384 241.17 143.377 225.77 159.649C185.147 202.57 187.24 150.859 147.832 149.612C117.625 153.26 99.3703 184.157 117.111 209.784C123.269 218.681 144.104 234.218 153.292 241.726L199.619 279.733Z"/><path fill="#1B3861" transform="scale(0.358511 0.358511)" d="M2009 340.568C2002.22 351.656 1990.62 359.156 1977.3 353.174C1951.57 341.616 1968.52 300.253 1996.62 313.349C2004.24 316.9 2006.01 320.55 2009 327.917L2009 340.568ZM1992.21 350.941C2014.53 340.59 2007.54 313.063 1981.48 315.367C1959.77 324.748 1965.48 353.232 1992.21 350.941Z"/><path fill="#1B3861" transform="scale(0.358511 0.358511)" d="M1978.88 322.228C1981.28 322.073 1983.67 322.006 1986.07 322.027C1990.67 322.071 1993.13 321.951 1996.37 325.258C1996.72 328.076 1993.94 331.765 1992.37 334.339C1991.96 337.274 1994.64 340.285 1996.41 342.811L1996.1 344.409L1992.72 345.128C1990.89 341.598 1988.51 336.362 1985.07 334.75C1984.49 335.334 1982.53 342.847 1981.02 345.694L1979.79 345.508C1977.85 342.235 1978.82 326.784 1978.88 322.228Z"/></svg>