<?xml version="1.0" encoding="utf-8" ?><svg xmlns="http://www.w3.org/2000/svg" xmlns:xlink="http://www.w3.org/1999/xlink" width="984" height="170" viewBox="0 0 984 170"><path fill="#00215C" d="M228.419 2.06673C229.215 2.01486 230.013 1.98918 230.81 1.98975C248.963 2.07456 247.146 21.4029 247.129 33.7961L247.056 75.2689C247.045 83.2809 246.505 97.5539 248.268 104.863C250.051 112.164 253.796 118.838 259.097 124.167C266.521 131.534 276.539 135.7 287 135.771C297.518 135.687 307.575 131.439 314.965 123.958C319.934 119.002 323.508 112.825 325.329 106.049C327.369 98.2314 326.777 84.8 326.766 76.301L326.679 39.2156C326.647 25.2563 322.886 2.37875 343.497 2.00464C351.42 1.86082 358.578 8.742 359.15 16.2092C359.944 26.5589 359.481 38.5273 359.468 48.9584L359.456 81.0587C359.455 101.877 359.687 116.248 348.049 134.783C338.033 150.96 322.012 162.512 303.493 166.908C284.847 171.281 265.225 168.005 249.012 157.812C232.647 147.553 220.982 131.267 216.539 112.477C213.916 100.942 214.407 89.8974 214.422 78.1449L214.469 46.5029C214.479 36.8108 214.123 26.7878 214.704 17.1417C215.187 9.12245 220.904 3.73525 228.419 2.06673Z"/><path fill="#307FE3" d="M36.7049 94.2517C37.5262 94.187 38.3493 94.1474 39.1731 94.1331C75.5325 93.2937 88.2217 135.922 61.0139 157.521C55.6368 161.79 48.8592 173.64 40.6936 168.08C28.3933 159.703 41.0226 149.928 46.9195 144.208C52.4355 138.862 57.8635 133.798 55.9533 125.336C54.9273 120.79 51.6644 116.42 47.3051 114.598C32.7176 108.538 25.3454 125.658 15.1899 132.386C6.85475 137.907 -3.37906 128.098 1.69002 119.773C3.8859 116.467 7.12003 113.795 9.83952 110.916C18.2823 101.978 24.149 96.4374 36.7049 94.2517Z"/><path fill="#307FE3" d="M124.347 94.2714C127.696 93.9007 131.401 93.9475 134.717 94.4781C138.535 95.0887 142.598 96.378 145.964 98.3053C151.971 101.745 162.883 112.35 167.015 118.086C168.721 120.455 170.048 123.452 169.528 126.429C169.121 128.752 166.924 131.699 164.991 133.016C154.814 139.954 142.634 115.669 131.315 113.506C127.423 112.762 123.63 113.808 120.392 116.038C117.23 118.216 114.519 122.418 113.858 126.196C113.066 130.721 114.897 134.74 117.44 138.349C122.574 144.019 132.541 150.912 134.327 158.448C136.309 166.61 124.708 172.615 119.059 167.226C109.359 157.973 96.8945 148.19 94.8438 134.231C91.9202 114.329 104.789 97.3841 124.347 94.2714Z"/><path fill="#00215C" d="M966.836 141.791C970.477 141.254 974.123 141.325 977.333 143.347C981.631 146.055 982.884 150.554 983.959 155.203C983.592 156.275 983.213 157.352 982.756 158.389C980.92 162.55 978.532 164.878 974.312 166.524C971.44 167.179 968.77 167.223 965.994 166.172C962.804 164.994 960.224 162.581 958.836 159.477C957.472 156.438 957.307 152.854 958.505 149.735C960.065 145.671 962.978 143.522 966.836 141.791ZM972.214 165.099C978.113 164.15 982.172 158.664 981.353 152.749C980.534 146.834 975.136 142.657 969.202 143.345C965.244 143.804 961.846 146.367 960.318 150.045C958.791 153.723 959.375 157.938 961.844 161.063C964.314 164.188 968.281 165.732 972.214 165.099Z"/><path fill="#00215C" d="M966.163 146.51C968.564 146.692 971.379 146.426 973.506 147.671C976.851 149.627 973.401 152.412 973.303 154.982C973.232 156.841 975.466 158.91 975.919 160.788C975.974 161.016 976.028 161.242 976.069 161.473L975.422 161.811L973.984 161.193C972.902 159.283 971.91 157.163 970.188 155.745C967.714 156.015 968.981 160.533 967.259 161.777L966.519 161.552C965.493 159.496 966.201 149.322 966.163 146.51ZM972.685 153.349C972.948 152.019 973.27 150.897 972.59 149.65C971.423 148.513 969.755 148.493 968.209 148.384C968.16 149.95 967.741 152.454 968.66 153.78C970.045 154.22 971.302 153.778 972.685 153.349Z"/><path fill="#00215C" d="M866.332 0L873.898 0C875.066 0.389066 879.333 0.843512 880.794 0.983891C920.339 4.78472 944.582 40.2744 944.719 78.309C944.801 100.894 927.464 97.2866 910.126 97.5059C906.335 97.5538 901.988 97.5045 898.15 97.5037L829.803 97.4756C830.089 99.114 830.432 100.742 830.832 102.356C838.899 135.11 869.676 139.135 897.677 134.111C908.744 132.125 922.507 121.221 932.372 127.27C935.9 129.461 938.42 132.954 939.385 136.991C940.24 140.635 939.988 144.538 937.963 147.683C931.031 157.07 913.329 163.199 902.552 165.53C856.378 175.521 808.974 161.379 797.778 110.469C788.336 67.5337 802.103 13.7927 850.392 2.4411C855.701 1.19302 861.377 1.1388 866.332 0ZM829.451 68.2238L878.057 68.2345L910.837 68.2283C907.732 43.9014 889.172 27.5006 864.264 30.7543C864.075 30.7792 863.886 30.808 863.697 30.8407C843.677 34.7602 832.043 47.9406 829.451 68.2238Z"/><path fill="#00215C" d="M608.846 0L617.327 0C618.969 0.549553 625.32 1.22732 627.288 1.46432C657.022 5.01061 678.171 30.0418 679.103 59.4459C679.685 77.7976 679.241 96.2271 679.28 114.603L679.365 138.025C679.381 142.919 679.652 148.454 678.931 153.244C677.795 160.782 670.711 166.579 663.252 166.977C658.745 167.247 654.316 165.709 650.947 162.703C647.06 159.191 645.552 154.993 645.292 149.895C641.247 152.927 637.353 155.723 632.986 158.297C598.797 179.377 539.12 168.824 540.138 119.66C541.347 61.2966 605.946 66.7201 645.303 66.7045C646.402 22.3031 597.594 31.7608 569.874 40.2882C566.517 41.2921 560.583 41.8758 557.677 39.4667C543.973 28.1075 549.632 14.0733 565.465 9.10807C578.373 5.0601 586.777 2.00224 600.295 1.08822C602.979 0.90668 606.505 0.559358 608.846 0ZM609.333 136.907C623.511 134.631 635.375 126.659 645.293 116.603L645.248 95.7482C633.311 95.5085 621.101 95.1979 609.177 95.758C599.06 96.6892 584.34 97.4644 577.328 105.906C574.362 109.476 573.382 114.01 573.83 118.564C574.334 123.695 576.582 128.446 580.6 131.742C587.663 137.535 598.821 138.083 607.549 137.193C608.148 137.126 608.743 137.031 609.333 136.907Z"/><path fill="#00215C" d="M463.912 0L472.034 0C475.933 1.06277 481.61 0.848918 485.779 1.61986C496.649 3.63039 506.595 8.03638 516.042 13.6618C525.335 18.8303 529.403 28.5319 523.097 37.9251C515.424 49.3559 506.39 43.4737 497.494 39.2389C494.071 37.619 490.518 36.2883 486.873 35.2608C466.154 29.4578 438.964 33.8159 426.742 53.3551C412.43 76.236 415.558 112.563 439.413 128.017C452.504 136.498 476.03 138.432 490.512 132.396C503.908 125.845 519.499 116.409 525.663 137.265C530.558 153.826 498.737 164.079 487.404 166.504C464.493 171.406 439.678 167.606 420.243 154.776C402.643 143.239 390.408 125.128 386.278 104.499C377.226 60.0467 398.295 15.3585 444.263 3.15514C450.904 1.39205 457.398 1.3274 463.912 0Z"/><path fill="#00215C" d="M772.696 0L783.027 0C795.233 3.92673 801.366 15.1388 794.607 27.1339C789.192 36.7429 774.231 33.8901 764.132 36.3826C732.115 44.2847 734.534 70.6861 734.591 98.0112L734.481 136.438C734.527 147.865 736.489 163.106 721.542 166.442C717.061 167.474 712.354 166.679 708.461 164.234C703.138 160.853 700.418 154.564 700.438 148.385C700.497 129.624 700.738 110.88 700.57 92.115C700.475 81.5449 700.389 70.4118 702.326 60.0012C704.145 50.0943 707.829 40.6223 713.181 32.0879C724.735 14.0645 743.403 3.85899 764.376 1.26604C767.054 0.934944 770.082 0.571586 772.696 0Z"/><path fill="#307FE3" d="M42.5068 0L47.8244 0C53.3445 2.98016 66.4876 16.6502 70.4177 22.1036C75.0048 28.4686 76.6325 39.7674 75.0581 47.6621C73.2285 56.6561 67.9092 64.5596 60.264 69.6435C53.343 74.2496 43.452 76.5776 35.2773 74.9148C31.2846 74.0966 27.4541 72.6263 23.9397 70.5631C19.6903 68.042 16.0764 64.8038 12.414 61.1462C6.42198 55.2407 -6.57638 44.6344 4.93042 36.7751C15.4328 29.6018 25.2618 48.6547 33.3278 53.5136C42.6503 59.1294 54.0229 53.7073 56.1204 43.6159C58.7179 31.119 43.3496 23.8635 37.5035 15.0433C32.9841 8.23061 36.7107 3.64803 42.5068 0Z"/><path fill="#307FE3" d="M122.354 0L126.347 0C128.617 0.703801 132.803 3.07524 133.775 5.24235C138.372 18.5764 116.624 25.4566 114.204 37.6109C112.484 46.2475 117.398 53.2193 125.49 55.4939C138.866 59.2538 146.03 41.8573 155.164 36.5177C157.334 35.238 159.928 34.8875 162.359 35.5454C164.985 36.2274 167.228 37.9352 168.583 40.2854C169.748 42.3047 170.044 44.7096 169.404 46.951C168.767 49.182 166.829 51.8126 165.228 53.4937C152.468 66.8875 139.671 80.0441 119.098 73.8622C110.229 71.1477 102.795 65.0375 98.4161 56.8648C92.9443 46.6676 92.9065 30.6428 100.222 21.3901C104.411 16.0918 116.701 3.02038 122.354 0Z"/></svg>