<?xml version="1.0" encoding="utf-8" ?><svg xmlns="http://www.w3.org/2000/svg" xmlns:xlink="http://www.w3.org/1999/xlink" width="273" height="117" viewBox="0 0 273 117"><path fill="#EFB718" transform="scale(0.0606468 0.0606468)" d="M746.49 298.5C843.098 297.47 921.003 310.698 1008.01 356.465C1129.08 419.984 1219.92 529.049 1260.5 659.613C1293.79 767.391 1290.7 883.13 1251.7 988.977C1241.88 1015.5 1232.04 1035.5 1218.95 1060.4C1166.81 993.624 1112.36 945.92 1041.05 901.271C1045.68 885.389 1049.4 871.57 1051.95 855.232C1063.64 780.348 1045.05 703.891 1000.29 642.732C956.923 583.547 894.102 544.547 822.362 530.63C813.635 528.937 805.522 528.47 796.769 527.129C759.025 524.751 727.094 526.822 690.623 537.462C617.397 559.016 555.758 608.825 519.311 675.894C479.534 748.92 476.345 823.156 499.547 901.615C429.252 942.784 373.124 996.647 322.285 1059.57C286.241 990.838 264.909 930.312 258.897 851.744C248.061 715.486 292.098 580.544 381.222 476.907C454.868 390.958 554.919 331.834 665.732 308.78C694.453 302.86 717.438 300.661 746.49 298.5Z"/><path fill="#08A9C9" transform="scale(0.0606468 0.0606468)" d="M756.743 697.432C785.776 695.356 809.394 699.595 834.7 714.068C866.953 732.943 890.386 763.859 899.844 800.012C910.595 839.768 904.518 879.296 884.242 914.824C1009.23 946.763 1113.49 1031.64 1184.26 1137.88C1110.64 1100.33 1026.04 1078.55 945.066 1063.45C926.636 1119.29 905.912 1176.49 886.561 1232.14L774.065 1555.74L770.623 1566.29C764.106 1550.96 756.616 1526.89 750.916 1510.49L713.209 1402.02L595.527 1063.71C512.775 1076.81 432.329 1101.71 356.646 1137.65C421.299 1035.27 537.435 943.553 656.458 915.107C646.476 897.398 640.19 880.779 637.301 860.509C631.517 821.3 641.681 781.407 665.523 749.746C688.721 719.287 719.166 702.621 756.743 697.432Z"/><path fill="#08A9C9" transform="scale(0.0606468 0.0606468)" d="M1872.49 466L1984.51 466L1984.51 644.067C2008.53 624.803 2045.4 613.84 2075.95 613.165C2121.21 612.261 2164.94 629.598 2197.28 661.271C2271.86 734.009 2269.72 866.454 2197.83 940.5C2169.49 968.645 2132.02 985.732 2092.19 988.676C2043.23 992.073 2004.47 977.764 1968 945.906L1968 980.51L1872.49 980.51L1872.49 466ZM2070.3 893.715C2122.25 887.82 2159.46 840.731 2153.18 788.822C2146.89 736.914 2099.53 700.06 2047.67 706.729C1996.35 713.328 1959.97 760.089 1966.18 811.453C1972.4 862.818 2018.89 899.549 2070.3 893.715Z"/><path fill="#EFB718" transform="scale(0.0606468 0.0606468)" d="M1528.58 1046L1663.04 1046L1829.56 1521.51L1715.93 1521.51L1689.12 1437L1663.5 1437L1499.8 1437C1493.13 1461.84 1480.72 1496.27 1472.53 1521.51L1361.86 1521.51L1469.04 1215.07L1507.48 1105.11C1513.46 1088.02 1521.66 1062.17 1528.58 1046ZM1595.5 1346L1660.33 1346L1616.94 1210.87C1613.27 1199.04 1597.81 1139.56 1594.04 1134.55C1587.09 1159.86 1580.19 1186.33 1572.53 1211.36C1558.8 1256.18 1542.48 1301.18 1528.96 1346L1595.5 1346Z"/><path fill="#08A9C9" transform="scale(0.0606468 0.0606468)" d="M1528.21 505.49L1663.26 505.49C1683.53 566.967 1707.06 630.666 1728.53 692.074L1829.59 980.51L1715.94 980.51C1706.69 953.284 1697.99 924.051 1689.29 896.51L1663.5 896.51L1499.95 896.51C1490.42 923.546 1481.54 953.006 1472.47 980.51L1361.86 980.51L1528.21 505.49ZM1595.5 805L1660.35 805C1643.7 754.323 1627.34 703.288 1611.7 652.265C1609 643.453 1597.61 598.351 1594.11 593.606C1587.16 618.822 1580.15 645.687 1572.51 670.59C1558.79 715.306 1542.63 760.28 1529.04 805L1595.5 805Z"/><path fill="#EFB718" transform="scale(0.0606468 0.0606468)" d="M2402.75 1154.5C2417.52 1153.63 2432.34 1153.96 2447.06 1155.49C2570.78 1168.57 2611.02 1265.52 2598.2 1377.51L2336.23 1377.51C2344.21 1404.8 2355.27 1426.09 2382.31 1438.75C2407.2 1450.4 2438.52 1450.01 2464.17 1440.9C2483.15 1434.16 2494.61 1423.73 2503.06 1405.64C2523.27 1412.8 2543.93 1419.76 2564.26 1426.61C2572.84 1429.98 2585.24 1433.79 2594.21 1436.86C2568.73 1497.48 2517.79 1520.75 2455.08 1527.83C2342.69 1540.2 2240.02 1487.79 2230.47 1365.61C2221.2 1246.91 2283.77 1165.56 2402.75 1154.5ZM2335.93 1310L2431.5 1310L2500.39 1310C2489.96 1257.25 2458.39 1230.94 2404.49 1235.19C2363.48 1243.86 2341.9 1268.15 2335.93 1310Z"/><path fill="#EFB718" transform="scale(0.0606468 0.0606468)" d="M3674.75 1154.5C3816.67 1147.48 3890.19 1239.69 3870.32 1377.51L3608.73 1377.51C3609.88 1382.42 3611.31 1387.27 3613.01 1392.02C3632.12 1444.68 3689.22 1458.22 3738.57 1440.14C3756.1 1433.72 3767.6 1422.73 3775.16 1405.67L3834.25 1425.75C3844.84 1429.53 3855.46 1433.24 3866.1 1436.88C3847.76 1493.28 3786.71 1521.1 3731.88 1527.37C3619.08 1540.97 3513.82 1491.28 3502.92 1367.46C3492.44 1248.56 3555.25 1165.8 3674.75 1154.5ZM3608.06 1310L3702.5 1310L3772.65 1310C3762.59 1258.96 3731.27 1230.43 3678.18 1235.15C3636.52 1241.99 3614.24 1268.63 3608.06 1310Z"/><path fill="#08A9C9" transform="scale(0.0606468 0.0606468)" d="M3221.63 620.494L3344.62 620.495C3372.89 704.332 3399.19 788.82 3423.5 873.889C3449.63 789.135 3476.68 704.664 3504.62 620.49L3616.54 620.49C3604.23 655.761 3589.88 692.611 3576.82 727.765L3497.72 940.777C3478.27 987.291 3468.04 1034.58 3437.41 1076.4C3404.12 1121.86 3361.56 1136.49 3306.47 1135.04C3271.79 1134.13 3244.45 1129.13 3215.93 1108.31L3241.35 1030.84C3247.47 1036.84 3254.62 1041.67 3262.47 1045.1C3281.16 1053.22 3311.74 1054.75 3331.09 1047.32C3353.78 1038.61 3362.11 1008.29 3370.66 986.561C3330.47 898.085 3293.28 800.282 3256.77 709.596L3232.24 648.637C3230.16 643.456 3222.35 625.151 3221.63 620.494Z"/><path fill="#EFB718" transform="scale(0.0606468 0.0606468)" d="M3087.49 1161.49L3199.51 1161.49L3199.46 1316.1C3199.46 1336.33 3199.14 1356.85 3199.55 1376.98C3200.3 1413.3 3211.37 1441.64 3252.4 1441.52C3339.13 1441.27 3328.56 1353.67 3328.46 1293.01L3328.49 1161.49L3440.51 1161.49L3440.51 1293.5L3440.51 1521.51L3337.49 1521.51C3337.66 1507.37 3336.56 1492.1 3336.49 1477.6C3312.31 1522.8 3272.61 1528.75 3225.49 1530.63C3164.15 1533.48 3108.24 1507.62 3093.56 1443.67C3084.02 1402.17 3087.52 1359.22 3087.53 1316.64L3087.49 1161.49Z"/><path fill="#EFB718" transform="scale(0.0606468 0.0606468)" d="M2873.75 1154.5C2877.54 1154.26 2881.34 1154.13 2885.14 1154.1C2920.13 1153.77 2954.92 1162.64 2980.36 1187.81C3023.23 1230.22 3014.55 1298.3 3014.54 1353.74L3014.51 1521.51L2902.49 1521.51L2902.54 1386.04C2902.55 1351.13 2905.4 1311.62 2897.68 1277.8C2889.66 1242.7 2851.55 1234.71 2821.6 1244.87C2801.73 1251.6 2791.27 1264.35 2782.19 1282.62C2778.28 1292.7 2775.74 1303.25 2774.64 1314C2772.5 1333.35 2773.47 1368.79 2773.46 1389.29L2773.51 1521.51L2661.49 1521.51L2661.49 1161.49L2761.3 1161.49C2762.79 1181.2 2764.53 1207.82 2764.54 1227.29C2787.96 1180.41 2822.53 1159.98 2873.75 1154.5Z"/><path fill="#EFB718" transform="scale(0.0606468 0.0606468)" d="M4075.75 1154.5C4097.06 1153.38 4118.42 1154.25 4139.57 1157.08C4192.22 1164.62 4223.47 1184.07 4254.71 1225.96C4237.22 1243.76 4210.98 1268.13 4192.32 1284.78C4170.53 1252.3 4148.18 1236.35 4107.29 1233.41C4087.35 1231.97 4038.01 1235.32 4038.08 1264.61C4038.15 1291.52 4096.16 1299.71 4115.96 1304.45C4129.04 1307.35 4142.08 1310.12 4154.92 1313.98C4205.83 1329.24 4252.42 1353.16 4253.36 1413.05C4253.89 1439.95 4243.66 1465.95 4224.94 1485.28C4193.57 1517.23 4139.32 1528.84 4095.75 1529C4082.09 1530.37 4052.59 1528.19 4038.61 1526.14C3990.2 1519.03 3948.71 1502.09 3918.67 1462.28C3936.42 1441.15 3958.55 1417.75 3977.26 1396.86C4003.26 1440.76 4046.72 1451.24 4095.19 1449.26C4107.68 1448.95 4130.88 1444.16 4138.86 1433.87C4165.3 1399.75 4080.11 1388.06 4062.21 1384C4048.93 1381.08 4035.78 1377.62 4022.79 1373.6C3978.52 1359.63 3933.48 1336.48 3928.8 1285.3C3926.08 1255.56 3933.18 1230.29 3952.71 1207.4C3984.16 1170.54 4029.35 1158.6 4075.75 1154.5Z"/><path fill="#08A9C9" transform="scale(0.0606468 0.0606468)" d="M2958.49 512L3070.51 512L3070.51 627.49L3182 627.49L3182 708.51L3070.51 708.51L3070.56 799.175C3070.56 814.587 3069.37 831.782 3071 846.891C3077.25 904.763 3133.24 892.474 3168.38 874.047L3178.54 930.249C3180.17 939.842 3181.93 949.412 3183.84 958.955C3126.17 999.399 3019.97 1002.37 2978.28 936.683C2954.27 898.844 2958.43 852.78 2958.44 809.827L2958.49 708.51L2894.49 708.51L2894.49 627.49L2958.49 627.49L2958.49 512Z"/><path fill="#EFB718" transform="scale(0.0606468 0.0606468)" d="M1808.37 1161.49L1927.21 1161.49C1951.92 1255.37 1980.99 1352.65 2007.35 1446.56C2035.36 1352.59 2062.14 1255.88 2089 1161.49L2205.74 1161.49C2198.87 1177.61 2191.6 1199.43 2185.43 1216.24L2073.12 1521.51L1941.03 1521.51C1930.57 1491.11 1917.66 1458.24 1906.38 1427.78L1841.6 1252.62L1818.94 1191.77C1816.64 1185.59 1809.16 1166.63 1808.37 1161.49Z"/><path fill="#08A9C9" transform="scale(0.0606468 0.0606468)" d="M2520 466L2632 466L2632 980.51L2520 980.51L2520 466Z"/><path fill="#7DD004" transform="scale(0.0606468 0.0606468)" d="M993.693 1148.39C1041.28 1160.02 1087.11 1173.63 1131.75 1193.93C1103.23 1235.71 1074.95 1279.08 1046.83 1321.24L865.175 1593.99L808.089 1679.52C813.805 1666.05 819.16 1649.12 824.016 1635.11L851.433 1556.03L948.627 1276.71L978.545 1190.45C981.93 1180.69 989.757 1156.24 993.693 1148.39Z"/><path fill="#7DD004" transform="scale(0.0606468 0.0606468)" d="M546.803 1148.36C550.015 1152.09 584.492 1254.75 589.544 1269.28L731.578 1677.47C713.068 1652.03 692.529 1619.27 674.806 1592.65C646.259 1552.66 615.412 1503.65 587.549 1461.85L409.164 1194C416.176 1190.06 431.948 1183.95 439.621 1180.98C474.717 1167.4 510.423 1157.64 546.803 1148.36Z"/><path fill="#08A9C9" transform="scale(0.0606468 0.0606468)" d="M2321.49 620.49L2433.51 620.49L2433.51 980.51L2321.49 980.51L2321.49 620.49Z"/><path fill="#08A9C9" transform="scale(0.0606468 0.0606468)" d="M2719.23 620.492L2831 620.49L2830.99 856.3C2830.99 895.501 2832.17 941.725 2830.77 980.508L2719 980.51L2719.01 744.7C2719.01 705.499 2717.83 659.275 2719.23 620.492Z"/><path fill="#08A9C9" transform="scale(0.0606468 0.0606468)" d="M2371.51 443.722C2407.27 440.675 2438.73 467.202 2441.77 502.964C2444.8 538.727 2418.27 570.178 2382.5 573.204C2346.75 576.229 2315.32 549.707 2312.28 513.958C2309.25 478.21 2335.76 446.767 2371.51 443.722Z"/><path fill="#08A9C9" transform="scale(0.0606468 0.0606468)" d="M2769.51 443.717C2805.16 440.835 2836.44 467.32 2839.47 502.963C2842.5 538.605 2816.14 569.99 2780.52 573.17C2744.68 576.368 2713.06 549.823 2710.02 513.97C2706.97 478.117 2733.64 446.617 2769.51 443.717Z"/></svg>