<?xml version="1.0" encoding="utf-8" ?><svg xmlns="http://www.w3.org/2000/svg" xmlns:xlink="http://www.w3.org/1999/xlink" width="137" height="59" viewBox="0 0 137 59"><path fill="#FBF4DC" transform="scale(0.0304566 0.0304566)" d="M748.617 298.499C841.032 296.313 924.382 312.701 1006.9 355.883C1128.36 419.225 1219.57 528.356 1260.35 659.127C1293.86 767.281 1290.73 883.474 1251.44 989.666C1241.73 1015.83 1231.91 1035.79 1218.96 1060.35C1166.14 993.256 1112.98 946.223 1041 901.249C1048.98 874.329 1053.39 854.789 1054.99 826.418C1059 750.526 1032.6 676.164 981.629 619.794C935.831 568.953 863.941 530.894 795.108 527.378C760.457 524.102 725.499 527.38 692.061 537.041C618.709 558.21 556.802 607.711 520.015 674.609C479.328 748.415 476.483 822.069 499.464 901.622C428.824 943.402 373.393 996.137 322.294 1059.59C283.645 987.641 262.1 919.122 257.979 836.876C251.093 700.957 298.566 567.882 389.925 467.011C482.017 364.963 611.278 304.236 748.617 298.499Z"/><path fill="#FBF4DC" transform="scale(0.0304566 0.0304566)" d="M755.035 697.669C781.864 694.581 808.991 699.902 832.665 712.898C905.564 752.872 923.511 844.303 884.279 914.849C1010.25 948.071 1112.6 1030.19 1184.24 1137.86C1116.1 1102.58 1020.94 1076.55 945.056 1063.49C928.64 1115.9 905.966 1176.33 887.756 1228.71L774.475 1554.5L770.555 1566.37C763.683 1549.16 756.482 1526.47 750.229 1508.48L711.93 1398.33L595.567 1063.73C519.366 1074.99 425.241 1104.04 356.558 1137.72C422.657 1034.7 536.096 943.973 656.456 915.096C646.97 898.337 640.67 882.001 637.659 862.87C631.259 823.744 640.787 783.684 664.115 751.628C687.073 720.466 717.193 703.492 755.035 697.669Z"/><path fill="#FBF4DC" transform="scale(0.0304566 0.0304566)" d="M1872.49 465.999L1984.51 465.999L1984.51 644.035C2008.49 624.812 2045.21 613.938 2075.7 613.228C2120.73 612.183 2164.29 629.254 2196.62 660.612C2271.57 733.02 2269.96 865.383 2198.5 939.817C2169.95 968.513 2131.95 985.88 2091.57 988.696C2042.78 991.981 2004.37 977.54 1968 945.927L1968 980.49L1872.49 980.49L1872.49 465.999ZM2065.4 894.138C2117.2 890.987 2156.69 846.526 2153.7 794.716C2150.72 742.906 2106.38 703.274 2054.56 706.094C2002.51 708.926 1962.66 753.506 1965.66 805.551C1968.66 857.596 2013.36 897.304 2065.4 894.138Z"/><path fill="#FBF4DC" transform="scale(0.0304566 0.0304566)" d="M1528.53 1046L1663.05 1046L1829.52 1521.49L1715.91 1521.49L1689.14 1437L1663.5 1437L1499.79 1437C1493.48 1461.04 1480.53 1496.89 1472.55 1521.49L1361.96 1521.49C1370.9 1492.86 1383.1 1460.66 1393.16 1431.9L1454.04 1257.86L1502.57 1119.16C1510.26 1097.18 1519.86 1067.04 1528.53 1046ZM1595.5 1346L1660.28 1346C1640.4 1284.19 1619.73 1222.59 1602.33 1160.04C1601.12 1155.68 1596.54 1137.37 1594.05 1134.6C1581.53 1180.07 1570.48 1217.83 1555.89 1262.72L1538.41 1316.51C1535.54 1325.33 1531.21 1337.31 1529.12 1346L1595.5 1346Z"/><path fill="#FBF4DC" transform="scale(0.0304566 0.0304566)" d="M1528.18 505.49L1663.25 505.49C1683.56 566.706 1706.69 629.867 1728.1 690.931L1829.54 980.49L1715.92 980.49C1706.76 952.903 1698.07 924.265 1689.27 896.49L1662.5 896.49L1499.94 896.49C1490.46 923.795 1481.54 952.864 1472.5 980.49L1361.95 980.49C1381.01 922.818 1402.77 863.531 1422.93 805.941L1528.18 505.49ZM1595.5 804.999L1660.32 804.999L1617.17 670.691C1613.69 659.512 1597.49 598.072 1594.13 593.617C1587.41 617.889 1580.61 644.028 1573.27 667.967C1559.28 713.632 1542.97 759.345 1529.02 804.998L1595.5 804.999Z"/><path fill="#FBF4DC" transform="scale(0.0304566 0.0304566)" d="M3675.67 1154.5C3693.3 1153.42 3710.99 1154.15 3728.46 1156.68C3843.1 1173.6 3886.26 1270.9 3870.28 1377.49L3608.73 1377.49C3609.88 1382.41 3611.3 1387.26 3613.01 1392.02C3631.96 1444.25 3688.28 1458.01 3737.44 1440.58C3755.5 1434.18 3767.38 1423.18 3775.17 1405.67L3834.24 1425.76C3844.85 1429.53 3855.47 1433.23 3866.12 1436.88C3861.49 1449.97 3854.58 1462.13 3845.72 1472.82C3785.12 1546.01 3632.37 1545.84 3562.14 1486.95C3486.48 1424.49 3482.47 1288.72 3544.48 1215.74C3578.64 1175.54 3624.24 1158.87 3675.67 1154.5ZM3607.99 1310L3696.5 1310L3772.84 1310C3762.2 1262.81 3736.74 1233.39 3685.74 1234.5C3638.05 1238.87 3616.98 1264.31 3607.99 1310Z"/><path fill="#FBF4DC" transform="scale(0.0304566 0.0304566)" d="M2403.67 1154.5C2419.25 1153.56 2434.87 1154.02 2450.36 1155.87C2571.23 1170.46 2611.77 1267.42 2598.13 1377.49L2336.22 1377.49C2344.19 1404.85 2355.41 1426.26 2382.54 1438.86C2407.42 1450.4 2438.69 1450.01 2464.29 1440.86C2483.18 1434.1 2494.63 1423.7 2503.04 1405.66L2564.49 1426.69L2594.15 1436.83C2568.7 1498.47 2514.28 1522.27 2451.3 1528.14C2338.64 1539.05 2239.02 1485.43 2230.27 1363.32C2221.85 1245.72 2285.46 1164.49 2403.67 1154.5ZM2335.59 1310L2424.5 1310L2500.65 1310C2489.63 1263.56 2464.81 1233.01 2413.74 1234.5C2365.65 1238.48 2345.13 1264.56 2335.59 1310Z"/><path fill="#FBF4DC" transform="scale(0.0304566 0.0304566)" d="M3221.15 620.491L3344.76 620.49C3366.13 691.841 3391.95 762.277 3412.29 833.978C3416.08 847.335 3419.83 860.707 3423.58 874.076C3449.55 789.219 3476.57 704.684 3504.63 620.49L3616.59 620.49C3604.12 656.185 3589.43 693.814 3576.19 729.44L3498.05 939.73C3469.99 1017.34 3441.89 1121.05 3345.27 1132.82C3300.22 1138.31 3253.81 1135.99 3215.95 1108.31C3224.73 1083.14 3233.06 1056.39 3241.42 1030.93C3265.54 1052.61 3301.85 1057.93 3332.49 1046.73C3353.27 1039.14 3362.91 1006.24 3370.68 986.635C3318.95 865.366 3269.1 743.303 3221.15 620.491Z"/><path fill="#FBF4DC" transform="scale(0.0304566 0.0304566)" d="M3087.92 1161.49L3199.51 1161.49L3199.49 1316.86C3199.49 1337.58 3199.05 1358.61 3199.6 1379.18C3200.53 1413.96 3212.36 1441.41 3251.41 1441.56C3338.84 1441.88 3328.56 1354.83 3328.46 1293.97L3328.49 1161.49L3440.51 1161.49L3440.51 1292.5L3440.51 1521.49L3337.49 1521.49C3337.65 1507.38 3336.57 1492.11 3336.49 1477.65C3329.68 1489.4 3324.13 1497.65 3313.33 1506.53C3283.27 1531.24 3232.08 1532.67 3194.97 1529.36C3164.27 1526.01 3134.26 1513.56 3115.06 1488.78C3084.21 1448.97 3087.41 1400.5 3087.46 1353.12L3087.49 1261.97L3087.44 1197.52C3087.42 1188.75 3086.93 1169.29 3087.92 1161.49Z"/><path fill="#FBF4DC" transform="scale(0.0304566 0.0304566)" d="M2874.67 1154.46C2878.26 1154.23 2881.84 1154.1 2885.43 1154.08C2920.22 1153.81 2955.04 1162.76 2980.35 1187.81C3023.16 1230.18 3014.55 1297.83 3014.54 1353.3L3014.51 1521.49L2902.49 1521.49L2902.52 1376.99C2902.52 1343.32 2905.85 1304.1 2895.8 1272.19C2885.83 1240.55 2846.25 1235.07 2819.15 1245.79C2799.9 1253.4 2789.56 1266.12 2781.46 1284.74C2770.53 1313 2773.47 1358.22 2773.47 1389.28L2773.51 1521.49L2661.49 1521.49L2661.49 1161.49L2761.3 1161.49C2762.81 1181.38 2764.45 1207.44 2764.6 1227.17C2788.71 1180.07 2822.51 1159.62 2874.67 1154.46Z"/><path fill="#FBF4DC" transform="scale(0.0304566 0.0304566)" d="M4076.67 1154.5C4098.17 1153.36 4119.72 1154.3 4141.03 1157.31C4192.92 1165.09 4223.94 1184.49 4254.7 1225.98C4237.43 1243.65 4210.77 1268.19 4192.22 1284.91C4176.74 1260.23 4157.96 1243.34 4129.16 1236.67C4101.23 1230.21 4045.93 1228.11 4037.5 1264C4039.31 1273.05 4044.6 1281.36 4052.82 1285.21C4109.65 1311.87 4179.37 1305.77 4228.29 1351.55C4264.63 1385.54 4259.39 1452.59 4224.11 1486.17C4191.13 1517.56 4140.27 1528.86 4095.75 1529C4082.02 1530.25 4054.01 1528.31 4040.07 1526.32C3990.91 1519.31 3949.24 1502.62 3918.68 1462.28C3935.34 1441.91 3959.25 1417.26 3977.19 1396.85C4003.95 1440.27 4042.86 1450.16 4091.84 1449.41C4108.28 1449.16 4147.22 1442.01 4143.91 1419.53C4140.54 1396.61 4079.24 1387.87 4061.35 1383.8C4048.07 1380.87 4034.91 1377.37 4021.93 1373.33C3975.89 1358.73 3933.07 1335.69 3928.45 1282.74C3926.05 1255.38 3934.77 1228.22 3952.63 1207.36C3983.55 1170.7 4030.77 1158.14 4076.67 1154.5Z"/><path fill="#FBF4DC" transform="scale(0.0304566 0.0304566)" d="M2958.49 511.999L3070.51 511.999L3070.51 627.49L3182 627.49L3182 708.49L3070.51 708.49L3070.51 799.284C3070.5 814.449 3069.3 832.025 3070.93 846.879C3077.25 904.507 3133.27 892.805 3168.39 873.97L3178.31 929.242L3183.6 959.088C3125.34 999.959 3016.95 1002.25 2976.69 934.098C2954.47 896.487 2958.43 851.904 2958.44 809.822L2958.49 708.49L2894.49 708.49L2894.49 627.49L2958.49 627.49L2958.49 511.999Z"/><path fill="#FBF4DC" transform="scale(0.0304566 0.0304566)" d="M1808.33 1161.49L1927.21 1161.49L2007.35 1446.43C2017.41 1413.94 2026.79 1378.91 2036.2 1346.09L2089 1161.49L2205.67 1161.49C2198.64 1178.69 2192.57 1197.64 2185.65 1215.25C2174.27 1248.56 2160.26 1284.51 2148.01 1317.8L2073.12 1521.49L1941.02 1521.49C1908.44 1429.63 1872.17 1337.57 1839.06 1245.66C1832.33 1227.28 1825.47 1208.96 1818.48 1190.68C1815.93 1183.9 1809.6 1167.96 1808.33 1161.49Z"/><path fill="#FBF4DC" transform="scale(0.0304566 0.0304566)" d="M2520 465.999L2632 465.999L2632 980.49L2520 980.49L2520 465.999Z"/><path fill="#FBF4DC" transform="scale(0.0304566 0.0304566)" d="M993.137 1148.3C1041.25 1159.84 1086.66 1173.62 1131.76 1193.91L866.42 1592.12L809.599 1677.23C825.911 1626.92 844.909 1574.95 862.363 1524.76L993.137 1148.3Z"/><path fill="#FBF4DC" transform="scale(0.0304566 0.0304566)" d="M543.726 1149.13L545.907 1148.87C550.236 1151.53 563.087 1193.97 565.435 1200.73L604.149 1311.3L731.567 1677.36C713.573 1652.63 694.003 1621.5 676.818 1595.67C647.974 1554.82 617.576 1506.88 589.399 1464.61L409.142 1193.97C439.158 1177.49 510.233 1157.73 543.726 1149.13Z"/><path fill="#FBF4DC" transform="scale(0.0304566 0.0304566)" d="M2719.06 620.49L2831 620.49L2831 980.49L2719 980.49L2719.06 620.49Z"/><path fill="#FBF4DC" transform="scale(0.0304566 0.0304566)" d="M2321.92 620.492L2433.51 620.49L2433.5 980.49L2321.49 980.49L2321.54 731.397L2321.41 659.937C2321.37 649.992 2320.79 629.41 2321.92 620.492Z"/><path fill="#FBF4DC" transform="scale(0.0304566 0.0304566)" d="M2372.36 443.654C2407.99 441.09 2439.01 467.772 2441.8 503.387C2444.59 539.001 2418.1 570.186 2382.5 573.197C2346.59 576.236 2315.07 549.46 2312.25 513.529C2309.44 477.597 2336.41 446.242 2372.36 443.654Z"/><path fill="#FBF4DC" transform="scale(0.0304566 0.0304566)" d="M2770.25 443.659C2805.79 441.193 2836.68 467.813 2839.5 503.328C2842.31 538.843 2816 569.999 2780.51 573.164C2744.53 576.374 2712.84 549.61 2709.99 513.597C2707.13 477.584 2734.21 446.16 2770.25 443.659Z"/></svg>