<?xml version="1.0" encoding="utf-8" ?><svg xmlns="http://www.w3.org/2000/svg" xmlns:xlink="http://www.w3.org/1999/xlink" width="159" height="159" viewBox="0 0 159 159"><path fill="#DA8F17" transform="matrix(-0.155708 0 0 0.155708 159.445 0)" d="M354.035 347.544C356.947 341.8 360.474 324.427 362.199 317.272C366.846 297.973 371.861 278.764 377.24 259.656C381.532 243.943 384.547 227.159 393.911 213.481C397.652 208.016 406.873 206.529 412.761 209.24C421.906 213.452 429.538 218.95 437.82 224.433C457.507 237.603 476.784 251.377 495.622 265.734L499.366 268.522C508.787 274.63 517.384 281.68 526.671 287.971C537.638 295.461 536.753 297.288 549.644 294.649C568.372 291.163 588.197 285.951 606.848 282.744C632.59 278.318 658.814 271.316 684.332 267.198C699.916 264.683 745.798 250.938 748.663 274.416C749.836 284.03 750.63 296.951 750.894 306.658C751.272 321.722 751.533 336.788 751.679 351.855C752.029 379.983 753.263 407.777 753.264 435.901C753.265 449.398 752.546 463.557 753.054 476.882C755.922 481.118 759.568 484.02 762.457 487.475C770.726 497.362 790.049 513.747 794.124 525.742C798.095 537.432 796.451 568.678 796.455 581.634L796.396 664.573C796.3 687.559 796.917 712.136 795.263 735.069C794.79 741.636 786.072 749.224 779.784 748.61C767.373 749.004 755.609 747.522 743.297 746.231L710.605 743.093L632.871 735.666C627.906 735.158 623.023 734.285 618.102 733.77C596.017 731.402 573.878 729.561 551.705 728.252C543.139 733.496 534.366 742.189 525.739 748.312C487.432 775.497 451.524 806.169 413.124 833.158C409.603 835.633 401.555 838.532 397.323 838.383C390.804 838.803 383.353 835.447 380.704 829.197C378.241 826.482 376.991 820.777 375.988 817.297C371.24 800.81 367.996 783.722 363.643 767.089C359.964 753.033 355.16 739.305 351.266 725.321C349.955 720.611 348.123 705.58 344.606 702.697C341.148 699.863 323.428 695.494 318.276 693.955C300.618 688.679 203.187 661.663 194.91 653.099C191.705 649.783 190.524 645.736 189.865 641.295C187.876 627.891 188.089 614.356 187.838 600.845L186.525 553.655L183.864 482.245C183.522 473.574 182.119 463.979 181.89 455.513C181.606 444.985 181.951 433.156 182.106 422.517C188.651 411.939 226.364 398.613 239.271 393.065C270.111 379.81 301.981 367.437 333.517 355.878C340.282 353.398 347.651 350.853 354.035 347.544Z"/><path fill="#E9A519" transform="matrix(-0.155708 0 0 0.155708 159.445 0)" d="M499.366 268.522L497.81 270.157C495.869 270.213 494.769 270.193 492.836 270.02L492.635 269.523C493.741 268.335 494.94 267.229 495.622 265.734L499.366 268.522Z"/><path fill="#F4BD33" transform="matrix(-0.155708 0 0 0.155708 159.445 0)" d="M326.525 462.936C299.324 455.29 272.332 447.23 245.164 439.49C238.518 437.596 201.53 428.991 198.2 426.759C198.416 422.586 227.202 412.6 232.074 410.627C257.494 400.069 283.029 389.787 308.673 379.783C318.601 375.808 356.952 361.946 364.372 355.115C368.722 351.112 373.23 323.63 375.378 315.443C380.829 295.013 386.549 274.656 392.537 254.377C395.37 244.778 397.696 234.458 401.546 225.238C402.254 223.543 403.028 221.195 405.215 221.364C414.996 222.118 496.895 284.21 511.46 294.642C517.621 299.055 529.332 309.388 536.303 310.385C537.747 310.592 539.473 310.888 540.923 310.755C548.244 310.08 557.343 307.145 564.62 305.504L615.12 294.341C630.374 291.029 645.907 288.51 661.264 285.113C682.537 280.408 704.305 277.04 725.79 273.404C730.616 272.587 733.096 273.582 738.771 272.309L739.415 272.16C736.732 275.738 730.801 282.515 729.877 286.32C730.42 287.389 730.659 287.584 731.447 288.509L730.997 289.055L729.234 287.712C726.919 288.4 722.45 296.456 721.307 298.929C720.841 299.939 722.993 305.62 721.786 306.567C720.875 305.575 719.98 304.568 719.101 303.548L718.312 303.548C715.455 306.679 714.105 309.317 711.7 312.423C705.363 320.608 700.125 329.378 694.279 337.798L672.365 369.748C667.327 376.988 659.271 386.835 656.168 394.527L656.468 395.174C661.72 406.287 688.916 430.612 698.444 440.188C726.008 467.891 753.308 496.53 779.81 525.292C781.649 527.287 783.383 530.818 783.054 533.602C782.44 534.447 781.831 535.334 780.552 535.374C773.359 535.598 763.55 533.797 756.511 532.995L704.388 527.211C699.447 526.646 694.218 526.465 689.199 525.98L649.825 521.81C644.472 521.214 628.015 518.219 624.059 519.055C621.264 519.646 615.661 517.934 612.582 517.592C605.485 516.803 598.357 516.231 591.273 515.333C576.653 513.48 556.385 509.417 542.035 512.294C538.354 513.031 534.734 515.259 531.732 517.462C523.143 523.767 515.459 531.69 507.211 538.479C493.372 549.872 479.449 561.208 465.901 572.947C460.527 577.603 455.503 582.623 450.064 587.236C439.434 596.251 428.47 604.854 417.706 613.7C411.997 618.392 407.18 624.167 400.821 628.04C395.916 627.965 391.83 627.783 386.942 627.396C375.675 603.771 375.116 549.415 369.107 522.633C366.154 509.468 367.295 490.083 363.121 476.61C362.32 473.041 338.183 466.213 333.89 464.651C331.387 464.945 328.361 467.064 326.014 466.658L325.535 465.714C325.849 464.679 326.128 463.944 326.525 462.936Z"/><path fill="#E9A519" transform="matrix(-0.155708 0 0 0.155708 159.445 0)" d="M326.525 462.936C328.774 463.47 331.673 464.252 333.89 464.651C331.387 464.945 328.361 467.064 326.014 466.658L325.535 465.714C325.849 464.679 326.128 463.944 326.525 462.936Z"/><path fill="#F5C54D" transform="matrix(-0.155708 0 0 0.155708 159.445 0)" d="M694.296 285.004C695.09 283.348 695.108 282.936 695.428 281.184L695.93 280.621C696.579 280.891 697.003 281.076 697.645 281.387L699.131 280.031L699.903 280.191C700.37 281.163 700.805 281.976 700.215 283.036C697.405 288.089 695.105 288.666 690.418 287.747L689.554 287.327L688.807 287.769C687.569 292.802 688.019 291.891 683.415 293.132L682.923 294.052L683.538 295.289C683.187 296.593 683.475 295.986 682.378 296.974L681.667 296.694C681.061 293.629 678.768 289.325 679.523 287.707C684.279 287.077 680.283 286.05 683.468 283.159L685.383 284.303L686.229 283.614L686.095 281.767C687.007 280.479 686.417 281.023 688.297 280.525C688.279 280.929 688.26 281.332 688.241 281.736C689.081 283.428 688.441 282.947 689.891 283.605L691.428 281.464L692.335 281.427C693.683 282.421 693.778 283.386 694.296 285.004Z"/><path fill="#F5C54D" transform="matrix(-0.155708 0 0 0.155708 159.445 0)" d="M468.212 321.571L469.157 321.629C468.448 323.1 468.565 323.058 468.705 324.719C469.62 325.517 469.596 325.448 470.726 325.814L470.975 326.799L469.099 328.887C469.746 331.141 471.636 331.295 473.621 331.704C473.849 333.283 473.78 332.549 472.926 334.377C471.727 333.755 471.2 333.308 469.874 333.321C469.196 335.446 470.399 334.802 469.942 337.09C468.521 336.762 469.204 337.036 468.032 335.721L466.806 333.679C467.2 332.559 467.576 331.432 467.932 330.298L467.485 329.736C465.531 330.774 465.398 332.843 462.997 334.79L462.231 334.699C461.53 333.277 461.98 333.923 460.543 332.968L460.644 332.354L462.999 331.308C462.866 326.939 463.011 325.807 465.868 322.654C466.99 322.37 467.301 322.282 468.212 321.571Z"/><path fill="#F5C54D" transform="matrix(-0.155708 0 0 0.155708 159.445 0)" d="M415.164 246.695L415.592 246.736L416.746 248.211C417.932 248.008 417.528 247.974 418.678 248.164L418.714 249.336C417.586 250.332 415.348 250.17 414.172 250.843C413.771 251.073 412.79 256.608 412.713 257.064C412.215 260.009 411.363 262.112 410.036 264.69C409.466 265.01 409.846 264.871 408.828 264.795C408.743 264.213 408.67 263.78 408.863 263.21C409.929 260.057 407.341 258.948 408.888 255.644C415.639 254.808 407.684 248.277 415.164 246.695Z"/><path fill="#F5C54D" transform="matrix(-0.155708 0 0 0.155708 159.445 0)" d="M458.628 328.783L459.424 329.789C458.885 340.132 461.368 335.072 466.387 335.997L466.306 336.701C463.821 337.737 464.343 338.055 464.667 340.34C463.901 339.692 463.267 339.209 462.458 338.612C452.57 338.471 453.159 335.588 458.628 328.783Z"/><path fill="#F5C54D" transform="matrix(-0.155708 0 0 0.155708 159.445 0)" d="M437.673 338.891C438.762 339.208 439.844 339.475 440.958 339.687C441.642 340.872 441.876 341.173 442.741 342.243L443.495 341.242L444.773 341.318L445.167 342.085C443.749 345.314 443.71 345.039 440.367 346.593C438.883 347.584 437.351 348.137 435.667 347.571L435.48 346.539C436.779 344.883 438.528 345.404 440.729 343.779C440.027 342.598 438.551 343.896 436.071 342.49C436.549 341.07 437.011 340.211 437.673 338.891Z"/><path fill="#F5C54D" transform="matrix(-0.155708 0 0 0.155708 159.445 0)" d="M661.125 309.291C662.239 309.75 662.077 309.84 663.022 310.775C662.989 312.372 663.018 311.849 661.602 313.38C662.528 315.299 662.443 313.522 664.676 315.5L664.466 316.377C663.032 317.202 662.475 317.525 661.345 318.811L659.987 317.15L660.215 315.236C659.391 313.472 659.112 313.236 657.583 312.018C657.915 310.86 659.779 310.122 661.125 309.291Z"/><path fill="#F5C54D" transform="matrix(-0.155708 0 0 0.155708 159.445 0)" d="M420.438 412.927C423.504 413.625 427.241 413.932 427.873 417.917C427.471 419.573 427.057 420.599 425.245 420.642L425.343 419.257C424.36 417.815 423.839 416.27 422.825 414.694C422.102 415.398 422.388 417.127 422.362 418.518L421.524 419.012L422.338 418.803L421.569 419.14C420.273 416.531 420.391 415.881 420.438 412.927Z"/><path fill="#F5C54D" transform="matrix(-0.155708 0 0 0.155708 159.445 0)" d="M288.041 421.306C288.186 421.344 289.095 421.974 289.25 422.077C289.267 424.019 286.936 425.593 285.698 427.519L284.655 427.734C284.401 425.455 283.9 424.985 283.028 422.977L283.602 422.445C285.693 422.299 286.154 422.203 288.041 421.306Z"/><path fill="#F5C54D" transform="matrix(-0.155708 0 0 0.155708 159.445 0)" d="M592.705 396.455L593.863 397.107C594.612 402.58 595.65 399.43 596.335 401.922C594.369 401.95 593.583 400.901 591.683 399.584C589.858 399.856 588.139 399.682 586.241 399.98L585.561 399.344L586.009 398.487C589.833 397.013 589.028 399.989 592.705 396.455Z"/><path fill="#F5C54D" transform="matrix(-0.155708 0 0 0.155708 159.445 0)" d="M432.48 564.997C433.607 566.153 433.517 566.191 434.134 567.719L433.777 568.499L433.785 568.541L431.655 567.129C432.409 569.51 434.598 571.644 436.499 573.23L435.272 573.737C432.79 571.808 429.963 572.224 429.675 568.927C430.574 566.609 430.557 566.411 432.48 564.997Z"/><path fill="#F5C54D" transform="matrix(-0.155708 0 0 0.155708 159.445 0)" d="M456.745 551.75C460.22 553.369 458.439 555.136 461.316 556.812C462.919 556.449 463.947 555.837 464.816 557.386L463.992 557.931C462.127 557.812 461.446 557.624 459.695 558.329L459.53 559.662C460.607 561.672 461.272 562.014 459.604 563.574C457.174 562.682 458.209 560.126 458.933 558.394L459.151 557.885C458.394 554.898 457.484 554.122 456.745 551.75Z"/><path fill="#F5C54D" transform="matrix(-0.155708 0 0 0.155708 159.445 0)" d="M284.574 409.739C285.468 410.485 285.676 410.877 286.425 411.816C286.761 414.017 285.693 415.733 285.27 417.927L284.124 417.871C284.64 413.663 281.285 413.678 284.574 409.739Z"/><path fill="#F5C54D" transform="matrix(-0.155708 0 0 0.155708 159.445 0)" d="M583.92 382.343C586.133 383.946 584.904 384.959 587.228 386.269C588.156 385.4 587.749 385.607 588.99 385.316C589.972 386.258 590.168 386.651 590.92 387.769L590.369 388.113C589.594 387.708 589.483 387.688 588.661 387.4L587.954 388.396L587.097 388.506C585.561 387.681 583.685 385.115 583.128 383.535L583.92 382.343Z"/><path fill="#F5C54D" transform="matrix(-0.155708 0 0 0.155708 159.445 0)" d="M579.561 499.472C579.115 494.814 583.927 494.179 587.034 498.814C586.97 499.776 587.141 499.425 586.764 499.953C585.467 498.853 584.932 498.216 583.286 497.75C581.37 498.218 582.062 497.838 580.707 499.82L579.561 499.472Z"/><path fill="#F5C54D" transform="matrix(-0.155708 0 0 0.155708 159.445 0)" d="M439.075 355.859L440.347 356.19C439.866 357.831 436.144 360.849 434.495 362.484C434.339 360.728 434.469 359.562 435.033 357.878C436.668 357.079 435.821 357.235 437.673 357.451L439.075 355.859Z"/><path fill="#F5C54D" transform="matrix(-0.155708 0 0 0.155708 159.445 0)" d="M534.312 347.155C537.727 348.553 538.457 351.721 537.472 355.006L537.123 355.281L536.374 354.99L534.312 347.155Z"/><path fill="#F5C54D" transform="matrix(-0.155708 0 0 0.155708 159.445 0)" d="M598.399 327.009L599.106 327.786C597.185 329.983 592.229 332.492 591.831 333.748L593.185 334.88L593.159 335.59L592.075 335.435C589.224 332.736 596.362 328.538 598.399 327.009Z"/><path fill="#F5C54D" transform="matrix(-0.155708 0 0 0.155708 159.445 0)" d="M385.418 426.608L386.066 426.478L386.924 427.877C388.289 427.515 388.32 427.599 389.755 427.724C388.831 429.231 388.75 428.865 386.73 429.727C387.029 430.889 387.544 431.831 387.114 432.6C385.734 430.448 385.989 428.822 384.918 427.32L385.418 426.608Z"/><path fill="#F5C54D" transform="matrix(-0.155708 0 0 0.155708 159.445 0)" d="M312.26 400.165C312.858 400.464 312.479 400.238 313.287 401.002L312.045 402.735C312.269 405.007 312.845 403.979 314.557 406.497L313.178 408.663C312.432 408.507 312.807 408.664 312.094 408.097L312.501 407.135C311.919 405.831 311.315 404.537 310.691 403.252C310.729 401.794 311.335 401.32 312.26 400.165Z"/><path fill="#F5C54D" transform="matrix(-0.155708 0 0 0.155708 159.445 0)" d="M672.082 430.807L672.741 431.646C672.39 435.1 672.589 436.334 670.273 439.11C669.518 438.614 669.884 438.952 669.278 437.993C670.246 435.546 671.027 433.209 672.082 430.807Z"/><path fill="#F5C54D" transform="matrix(-0.155708 0 0 0.155708 159.445 0)" d="M392.267 457.037L393.142 456.656L394.167 457.09L394.455 457.944C396.163 459.003 395.958 459.011 397.602 458.847L398.362 459.98C397.21 460.359 396.745 460.429 395.548 460.683C392.964 459.551 393.773 458.997 391.86 457.887L392.267 457.037Z"/><path fill="#F5C54D" transform="matrix(-0.155708 0 0 0.155708 159.445 0)" d="M646.503 461.3C648.942 461.198 650.168 461.849 650.791 464.141L649.586 466.105C648.696 465.741 648.095 463.932 646.426 462.733L646.503 461.3Z"/><path fill="#F5C54D" transform="matrix(-0.155708 0 0 0.155708 159.445 0)" d="M413.376 237.178C414.724 237.457 414.69 237.58 415.798 238.453C416.191 240.305 416.033 239.792 415.26 241.875C414.227 241.017 413.177 240.181 412.111 239.366L412.041 238.363L413.376 237.178Z"/><path fill="#F5C54D" transform="matrix(-0.155708 0 0 0.155708 159.445 0)" d="M442.048 361.41L444.049 363.399C444.575 365.257 444.301 364.865 443.433 367.126C440.894 364.884 440.823 364.077 442.048 361.41Z"/><path fill="#F5C54D" transform="matrix(-0.155708 0 0 0.155708 159.445 0)" d="M317.937 421.738L318.566 422.026C318.978 424.102 316.576 424.985 315.957 429.159C313.349 427.508 316.706 423.56 317.937 421.738Z"/><path fill="#F5C54D" transform="matrix(-0.155708 0 0 0.155708 159.445 0)" d="M590.73 424.853C593.169 424.95 594.307 425.62 595.362 427.681L594.708 429.329C594.022 429.79 594.43 429.652 593.443 429.596C592.59 427.526 592.373 427.066 591.037 425.261L590.73 424.853Z"/><path fill="#F5C54D" transform="matrix(-0.155708 0 0 0.155708 159.445 0)" d="M290.296 419.787C292.71 420.561 293.315 423.302 293.817 425.607C291.28 425.018 289.942 422.21 290.296 419.787Z"/><path fill="#F5C54D" transform="matrix(-0.155708 0 0 0.155708 159.445 0)" d="M598.399 327.009C600.703 326.876 601.856 326.526 603.708 327.667L604.203 328.454C602.601 329.624 600.911 328.48 599.106 327.786L598.399 327.009Z"/><path fill="#F5C54D" transform="matrix(-0.155708 0 0 0.155708 159.445 0)" d="M618.092 329.898C619.869 330.464 620.521 330.481 621.626 331.976L621.203 332.652L619.462 332.718L619.396 332.668C618.129 332.643 618.702 332.643 617.298 333.681C616.74 332.134 617.276 331.936 618.092 329.898Z"/><path fill="#F5C54D" transform="matrix(-0.155708 0 0 0.155708 159.445 0)" d="M368.764 421.666C370.234 421.89 370.267 421.888 371.633 422.46L371.671 423.272L370.083 424.869C369.073 425.389 369.48 425.278 368.329 425.253C367.849 423.705 368.246 423.534 368.764 421.666Z"/><path fill="#F5C54D" transform="matrix(-0.155708 0 0 0.155708 159.445 0)" d="M528.994 326.766L529.754 327.205C530.086 328.744 529.372 330.758 528.959 332.373C528.045 331.992 528.277 332.078 527.482 331.438C527.178 329.703 528.149 328.426 528.994 326.766Z"/><path fill="#F5C54D" transform="matrix(-0.155708 0 0 0.155708 159.445 0)" d="M612.472 316.348L613.631 316.836C614.984 318.353 614.983 319.564 615.413 321.653C614.246 321.604 614.849 321.69 613.61 321.357C612.976 319.401 612.82 318.397 612.472 316.348Z"/><path fill="#F5C54D" transform="matrix(-0.155708 0 0 0.155708 159.445 0)" d="M622.792 303.876C623.13 304.92 623.039 304.508 622.898 305.676C621.648 306.974 620.73 307.516 619.262 308.516C618.917 307.53 619.007 307.857 618.972 306.792C620.205 305.408 621.248 304.866 622.792 303.876Z"/><path fill="#F5C54D" transform="matrix(-0.155708 0 0 0.155708 159.445 0)" d="M589.775 407.625C590.143 407.63 590.512 407.636 590.88 407.641C590.658 409.228 589.8 409.801 588.653 411.285C587.69 410.88 587.956 410.952 587.147 410.169C587.703 408.578 588.011 408.823 589.775 407.625Z"/><path fill="#F5C54D" transform="matrix(-0.155708 0 0 0.155708 159.445 0)" d="M331.122 405.463L331.963 405.712L331.801 406.524C330.421 407.409 329.343 408.033 327.903 408.816C327.378 408.606 327.737 408.788 327.033 407.978C327.714 406.9 329.778 406.143 331.122 405.463Z"/><path fill="#F5C54D" transform="matrix(-0.155708 0 0 0.155708 159.445 0)" d="M669.941 327.724C672.678 327.458 674.306 326.686 675.793 329.031C672.666 328.807 672.15 330.669 669.941 327.724Z"/><path fill="#F5C54D" transform="matrix(-0.155708 0 0 0.155708 159.445 0)" d="M351.894 399.232C354.025 401.27 352.723 403.15 351.166 405.1L350.518 404.24C351.116 402.425 351.462 401.096 351.894 399.232Z"/><path fill="#F5C54D" transform="matrix(-0.155708 0 0 0.155708 159.445 0)" d="M620.599 378.337C620.821 378.54 621.253 379.224 621.446 379.506C621.325 381.35 620.132 382.917 619.15 384.546C618.547 382.908 619.888 380.406 620.599 378.337Z"/><path fill="#F5C54D" transform="matrix(-0.155708 0 0 0.155708 159.445 0)" d="M481.593 325.677C483.535 325.74 485.213 325.523 486.664 326.707L486.591 327.948L486.294 327.959C485.381 326.676 484.513 327.401 481.937 326.658L481.593 325.677Z"/><path fill="#F5C54D" transform="matrix(-0.155708 0 0 0.155708 159.445 0)" d="M413.785 519.891L414.374 520.564C413.978 522.284 413.139 522.548 411.588 524.046L411.033 523.239C411.333 521.64 412.483 521 413.785 519.891Z"/><path fill="#F5C54D" transform="matrix(-0.155708 0 0 0.155708 159.445 0)" d="M413.758 589.366L414.198 589.831C414.114 591.329 412.648 593.255 411.775 594.636L411.212 593.911C411.436 592.217 412.718 590.802 413.758 589.366Z"/><path fill="#F5C54D" transform="matrix(-0.155708 0 0 0.155708 159.445 0)" d="M557.662 385.303C559.284 386.314 558.743 387.978 558.744 389.801C558.241 389.925 558.603 389.865 557.645 389.708C556.956 388.298 557.411 386.934 557.662 385.303Z"/><path fill="#E9A519" transform="matrix(-0.155708 0 0 0.155708 159.445 0)" d="M539.914 528.057L540.211 528.309C541.525 531.096 540.534 535.951 540.626 539.281C541.305 540.211 541.66 540.725 542.235 541.719C541.811 542.253 540.556 543.745 540.576 544.424C540.842 553.518 541.049 562.665 540.435 571.75C540.287 573.927 542.13 573.554 542.376 575.532L540.936 576.22C540.476 577.171 541.366 705.194 541.615 715.733C534.413 722.149 494.035 751.843 491.688 756.319C491.181 757.285 490.919 757.872 490.047 758.587C484.562 758.548 484.378 763.133 481.608 764.233C466.906 770.07 411.817 821.522 400.338 822.583C398.905 821.816 398.667 820.698 397.99 819.161C397.353 791.968 395.726 764.594 394.858 737.386C394.194 712.931 394.001 688.466 394.278 664.003C394.352 657.606 392.413 652.219 394.004 645.724C395.195 640.859 400.87 643.55 404.441 641.299C412.528 636.201 419.207 629.379 426.527 623.356C432.982 618.045 440.111 613.37 446.438 607.862C451.834 603.389 456.841 598.203 462.221 593.739C468.719 588.347 475.264 583.1 481.557 577.445C485.746 573.682 489.876 569.885 494.079 566.145C494.582 566.144 495.085 566.142 495.588 566.141C496.817 565.085 496.704 564.304 497.232 562.473C500.329 560.956 505.638 558.085 508.097 555.574C508.649 555.011 508.324 554.297 508.219 553.181L510.21 553.359C511.989 551.935 513.377 550.855 515.012 549.242C514.664 546.57 515.884 546.906 518.208 545.743C521.107 544.291 522.396 543.25 524.602 540.936C529.411 535.89 533.984 531.777 539.914 528.057Z"/><path fill="#F4BD33" transform="matrix(-0.155708 0 0 0.155708 159.445 0)" d="M425.999 654.146C428.68 655.919 427.343 654.832 428.377 657.549C428.312 657.379 431.767 658.739 433.132 659.792C433.71 661.477 433.649 660.598 432.988 662.52L432.38 662.57L430.859 659.803C429.393 659.055 429.31 658.849 427.659 659.023L427.229 659.961C427.759 661.986 428.523 666.049 427.941 667.979C426.752 668.724 427.098 668.407 426.173 669.463L427.177 671.563L426.476 672.116C424.376 671.502 423.876 671.456 422.097 670.275C424.514 668.251 424.159 669.432 424.479 666.935C421.639 661.554 426.986 660.709 425.999 654.146Z"/><path fill="#F4BD33" transform="matrix(-0.155708 0 0 0.155708 159.445 0)" d="M404.425 708.864C406.136 709.359 410.834 712.288 412.48 713.33C412.276 716.487 412.586 721.485 411.148 724.001C410.469 722.814 410.537 722.191 410.435 720.832L410.4 720.316C406.664 717.704 403.051 713.908 404.425 708.864Z"/><path fill="#F4BD33" transform="matrix(-0.155708 0 0 0.155708 159.445 0)" d="M486.246 614.675C487.285 615.248 487.527 615.823 488.302 616.82C488.275 619.783 487.943 623.914 487.24 626.917C486.941 628.196 485.519 628.537 484.337 629.044C484.81 627.549 485.072 627.697 486.386 626.472C487.621 622.685 485.437 625.551 483.686 621.98C483.69 618.729 484.701 617.629 486.246 614.675Z"/><path fill="#F4BD33" transform="matrix(-0.155708 0 0 0.155708 159.445 0)" d="M434.204 639.474C436.236 640.666 435.483 639.836 436.382 642.194C436.134 643.528 435.873 643.574 434.942 644.632C433.813 644.693 433.155 645.024 432.122 645.465L431.158 644.865C430.754 642.898 429.651 640.929 429.725 639.446L434.204 639.474Z"/><path fill="#F4BD33" transform="matrix(-0.155708 0 0 0.155708 159.445 0)" d="M527.358 541.727L528.444 542.123L528.438 542.89C526.121 545.741 523.834 547.891 521.209 550.45C520.839 551.953 520.989 551.755 520.298 553.079L519.769 551.85L518.772 551.778C517.62 552.484 517.701 552.48 516.381 552.712L515.971 551.928L516.788 550.378C521.14 549.819 525.265 545.44 527.358 541.727Z"/><path fill="#F4BD33" transform="matrix(-0.155708 0 0 0.155708 159.445 0)" d="M458.071 757.185C459.512 758.153 462.704 762.624 462.734 764.597C459.352 764.484 457.651 759.917 458.071 757.185Z"/><path fill="#F4BD33" transform="matrix(-0.155708 0 0 0.155708 159.445 0)" d="M421.865 674.567C423.032 674.75 422.633 674.598 423.591 675.279C423.505 676.429 420.844 679.921 419.961 681.371C419.597 681.765 419.878 681.496 418.964 681.974L418.641 681.361C419.745 679.11 420.819 676.846 421.865 674.567Z"/><path fill="#F4BD33" transform="matrix(-0.155708 0 0 0.155708 159.445 0)" d="M510.599 558.039C510.805 558.259 511.01 558.48 511.216 558.701C511.549 558.181 507.079 563.346 507.624 562.843C505.826 562.006 506.136 562.579 505.491 561.304C506.212 559.837 508.967 558.835 510.599 558.039Z"/><path fill="#F4BD33" transform="matrix(-0.155708 0 0 0.155708 159.445 0)" d="M495.542 576.96C496.961 578.056 497.842 578.623 498.1 580.2C496.537 580.233 496.725 579.927 495.143 578.717L493.459 580.136L492.725 579.946L492.813 578.804C494.131 576.987 493.28 577.618 495.542 576.96Z"/><path fill="#F4BD33" transform="matrix(-0.155708 0 0 0.155708 159.445 0)" d="M499.134 573.092C499.393 573.076 500.511 573.293 500.816 573.345L500.919 573.813C499.805 575.004 498.685 575.133 497.096 575.599C496.765 575.621 495.769 575.471 495.395 575.426L495.233 574.663C497.301 573.056 496.428 573.536 499.134 573.092Z"/><path fill="#F4BD33" transform="matrix(-0.155708 0 0 0.155708 159.445 0)" d="M505.54 674.222C506.877 675.39 506.443 674.673 506.788 676.503C506.165 678.445 505.296 679.003 503.784 680.49C502.234 677.731 502.294 678.736 504.929 676.78C505.171 675.768 505.374 674.916 505.54 674.222Z"/><path fill="#E9A519" transform="matrix(-0.155708 0 0 0.155708 159.445 0)" d="M361.267 570.966C363.017 572.885 363.133 582.723 364.904 586.821C365.844 587.177 365.841 587.181 366.79 587.682C365.844 588.64 365.375 588.892 365.065 590.177C366.185 594.783 366.335 599.332 367.166 603.96C368.056 608.922 372.63 630.831 374.713 633.061C376.059 634.503 377.906 636.458 378.827 638.192C379.617 639.679 379.29 664.669 379.242 668.404C379.134 676.77 379.928 685.096 380.028 693.45L381.027 763.622C381.092 767.211 382.404 780.997 381.887 783.03L381 783.24C380.465 782.223 378.677 779.587 378.55 778.865C377.995 775.704 377.316 772.865 376.485 769.76L365.775 729.759C365.302 728.029 361.363 717.075 361.476 716.301C362.427 709.79 359.005 708.89 357.568 702.465C357.384 701.644 359.104 699.646 359.078 699.228C356.993 665.681 358.412 632.153 359.146 598.592C359.348 589.558 360.19 579.937 361.267 570.966Z"/><path fill="#F4BD33" transform="matrix(-0.155708 0 0 0.155708 159.445 0)" d="M372.246 640.601C374.573 641.464 372.441 644.364 374.065 646.361L375.736 646.068L376.253 646.502L376.291 647.627L375.511 648.118L374.262 647.779C373.94 648.069 374.107 647.889 373.767 648.424L373.482 648.879L372.468 648.785L372.117 649.33L371.769 649.302C373.662 643.108 369.617 646.458 372.246 640.601Z"/><path fill="#F4BD33" transform="matrix(-0.155708 0 0 0.155708 159.445 0)" d="M372.273 686.319C372.465 686.625 372.658 686.931 372.85 687.237C371.743 689.299 371.172 690.509 370.312 692.684C369.352 691.733 369.736 692.293 369.476 690.77C370.057 688.743 370.904 688.002 372.273 686.319Z"/><path fill="#F4BD33" transform="matrix(-0.155708 0 0 0.155708 159.445 0)" d="M365.124 659.376C365.861 659.926 366.214 660.776 366.634 661.587C367.611 661.899 367.123 661.68 368.095 662.265C367.342 663.36 366.852 663.193 365.777 663.007C364.632 661.245 364.966 661.898 365.124 659.376Z"/><path fill="#E9A519" transform="matrix(-0.155708 0 0 0.155708 159.445 0)" d="M732.987 712.496L733.529 712.421L734.032 713.194L733.69 714.17L731.892 714.19C730.834 715.154 731.053 714.579 730.932 715.824C731.943 716.996 732.157 717.173 732.437 718.69C734.831 717.886 735.422 717.208 737.496 717.708C738.88 719.374 738.641 718.51 738.865 720.26L738.238 720.713C735.903 721.772 735.809 721.854 733.303 721.833C729.61 720.009 732.795 716.162 727.274 716.659L726.703 716.164C727.473 714.286 730.941 712.732 732.987 712.496Z"/><path fill="#E9A519" transform="matrix(-0.155708 0 0 0.155708 159.445 0)" d="M784.967 622.219C786.266 623.424 786.987 624.302 787.232 626.075C786.035 629.385 785.708 629.341 787.931 631.726C788.243 633.486 788.352 632.615 787.237 634.366C786.454 632.685 785.67 631.902 784.969 629.987C786.086 627.543 786.174 625.96 783.805 624.712L783.657 623.979L784.967 622.219Z"/><path fill="#E9A519" transform="matrix(-0.155708 0 0 0.155708 159.445 0)" d="M635.288 530.56L635.823 530.712C637.372 532.12 638.643 532.982 637.783 535.069L636.559 535.47C634.506 535.286 633.658 535.377 632.534 533.693C633.251 531.675 633.298 532.141 635.288 530.56Z"/><path fill="#E9A519" transform="matrix(-0.155708 0 0 0.155708 159.445 0)" d="M428.147 223.909C430.776 224.056 432.437 224.6 434.369 226.327L433.858 227.458C431.425 227.805 429.172 227.212 427.853 225.03L428.147 223.909Z"/><path fill="#E9A519" transform="matrix(-0.155708 0 0 0.155708 159.445 0)" d="M694.124 589.487C696.567 589.74 697.902 590.387 699.447 592.347L699.1 592.986L697.519 592.435C696.973 593.287 696.565 593.801 695.934 594.595L695.39 594.287C695.086 592.477 694.801 591.217 694.124 589.487Z"/><path fill="#E9A519" transform="matrix(-0.155708 0 0 0.155708 159.445 0)" d="M651.917 691.893C653.259 692.141 654.12 693.004 654.864 694.09C653.231 694.612 654.065 694.589 652.286 693.909L652.15 694.826L650.707 695.465C649.294 695.306 648.869 695.369 647.605 694.715C648.846 693.24 649.874 693.932 651.917 691.893Z"/><path fill="#E9A519" transform="matrix(-0.155708 0 0 0.155708 159.445 0)" d="M293.535 560.564C295.253 561.116 297.552 562.572 297.7 564.471C296.029 564.823 295.391 565.131 293.805 564.509C292.907 562.692 293.258 562.977 293.535 560.564Z"/><path fill="#E9A519" transform="matrix(-0.155708 0 0 0.155708 159.445 0)" d="M691.526 726.693C694.055 727.377 695.801 729.838 696.194 732.348C693.565 730.727 691.403 729.987 691.526 726.693Z"/><path fill="#E9A519" transform="matrix(-0.155708 0 0 0.155708 159.445 0)" d="M576.095 535.56L576.678 535.685C577.062 536.988 577.138 536.375 576.72 537.564C575.218 537.734 574.44 537.689 572.96 537.636C572.682 537.757 572.02 537.85 571.687 537.912L571.68 537.225C573.4 535.879 573.851 535.955 576.095 535.56Z"/><path fill="#E9A519" transform="matrix(-0.155708 0 0 0.155708 159.445 0)" d="M625.583 644.56C626.749 645.456 626.449 644.865 626.674 646.271C625.85 647.379 625.477 647.867 624.829 649.097L624.363 649.991L624.132 650.355L623.613 650.076C623.667 648.227 624.782 646.293 625.583 644.56Z"/><path fill="#E9A519" transform="matrix(-0.155708 0 0 0.155708 159.445 0)" d="M319.638 580.243L320.851 582.033C322.348 582.012 321.96 581.831 323.226 582.348L322.764 584.243L321.366 584.739C320.116 583.837 319.85 583.085 319.106 581.744L319.638 580.243Z"/><path fill="#E9A519" transform="matrix(-0.155708 0 0 0.155708 159.445 0)" d="M743.238 363.215C744.123 364.211 744.057 364.255 744.732 365.443C744.495 367.355 744.418 366.898 742.967 368.665C742.283 368.487 742.643 368.658 741.98 367.986C742.776 366.103 742.915 365.713 743.182 363.678L743.238 363.215Z"/><path fill="#E9A519" transform="matrix(-0.155708 0 0 0.155708 159.445 0)" d="M239.87 605.16C241.482 605.012 243.322 604.655 244.775 605.223L244.644 606.265C243.026 606.58 241.502 607.139 240.1 606.492L239.87 605.16Z"/><path fill="#E9A519" transform="matrix(-0.155708 0 0 0.155708 159.445 0)" d="M728.481 433.493C729.581 434.652 731.406 436.74 731.689 438.3L731.011 438.512C729.04 437.072 728.833 435.739 728.481 433.493Z"/><path fill="#E9A519" transform="matrix(-0.155708 0 0 0.155708 159.445 0)" d="M401.898 634.853L402.737 635.776C402.876 637.597 402.548 637.295 401.025 639.249L400.214 638.818C400.187 636.979 400.767 636.751 401.898 634.853Z"/><path fill="#E9A519" transform="matrix(-0.155708 0 0 0.155708 159.445 0)" d="M249.415 469.814L250.096 470.473L249.675 471.182C248.063 472.16 247.444 472.028 245.574 472.093C245.281 469.963 246.836 471.46 249.415 469.814Z"/><path fill="#E9A519" transform="matrix(-0.155708 0 0 0.155708 159.445 0)" d="M197.277 617.859C199.027 618.462 199.269 618.392 200.562 619.751L200.328 620.56C199.979 620.992 200.218 620.78 199.52 621.08L197.277 617.859Z"/><path fill="#E9A519" transform="matrix(-0.155708 0 0 0.155708 159.445 0)" d="M732.639 667.357L733.299 667.653C733.27 669.159 732.593 669.469 731.465 670.973C731.141 670.818 730.817 670.663 730.493 670.509C730.737 669.038 731.463 668.696 732.639 667.357Z"/></svg>