<?xml version="1.0" encoding="utf-8" ?><svg xmlns="http://www.w3.org/2000/svg" xmlns:xlink="http://www.w3.org/1999/xlink" width="175" height="133" viewBox="0 0 175 133"><clipPath id="cl_3"><rect x="7.6293945e-06" y="2.6702881e-05" width="175.22842" height="132.54457"/></clipPath><g clip-path="url(#cl_3)"><path fill="#F4C537" transform="matrix(0.224652 0 0 0.224652 -27.1829 -50.5466)" d="M499.93 365.774C509.994 364.73 522.911 365.533 533.059 366.025C647.149 371.61 751.609 447.271 788.299 556.166C798.551 584.683 804.416 615.305 804.467 645.617C804.485 655.97 800.581 659.542 791.16 659.802C781.201 660.076 770.524 660.004 760.59 660.007L703.084 660.007L525.25 660.022L331.239 660L267.717 659.985C259.977 659.98 230.306 661.197 224.401 657.492C217.837 653.375 220.765 629.629 221.444 621.231C226.501 562.943 250.089 507.807 288.754 463.898C344.538 401.784 417.23 370.149 499.93 365.774Z"/></g></svg>